<svg width="123" height="20" viewBox="0 0 123 20" fill="none" xmlns="http://www.w3.org/2000/svg">
<mask id="path-1-inside-1_11_6039" fill="white">
<path d="M0 0H123V20H0V0Z"/>
</mask>
<path d="M0 20.5H0.991935V19.5H0V20.5ZM2.97581 20.5H4.95968V19.5H2.97581V20.5ZM6.94355 20.5H8.92742V19.5H6.94355V20.5ZM10.9113 20.5H12.8952V19.5H10.9113V20.5ZM14.879 20.5H16.8629V19.5H14.879V20.5ZM18.8468 20.5H20.8306V19.5H18.8468V20.5ZM22.8145 20.5H24.7984V19.5H22.8145V20.5ZM26.7823 20.5H28.7661V19.5H26.7823V20.5ZM30.75 20.5H32.7339V19.5H30.75V20.5ZM34.7177 20.5H36.7016V19.5H34.7177V20.5ZM38.6855 20.5H40.6694V19.5H38.6855V20.5ZM42.6532 20.5H44.6371V19.5H42.6532V20.5ZM46.621 20.5H48.6048V19.5H46.621V20.5ZM50.5887 20.5H52.5726V19.5H50.5887V20.5ZM54.5565 20.5H56.5403V19.5H54.5565V20.5ZM58.5242 20.5H60.5081V19.5H58.5242V20.5ZM62.492 20.5H64.4758V19.5H62.492V20.5ZM66.4597 20.5H68.4436V19.5H66.4597V20.5ZM70.4274 20.5H72.4113V19.5H70.4274V20.5ZM74.3952 20.5H76.379V19.5H74.3952V20.5ZM78.3629 20.5H80.3468V19.5H78.3629V20.5ZM82.3307 20.5H84.3145V19.5H82.3307V20.5ZM86.2984 20.5H88.2823V19.5H86.2984V20.5ZM90.2661 20.5H92.25V19.5H90.2661V20.5ZM94.2339 20.5H96.2178V19.5H94.2339V20.5ZM98.2016 20.5H100.186V19.5H98.2016V20.5ZM102.169 20.5H104.153V19.5H102.169V20.5ZM106.137 20.5H108.121V19.5H106.137V20.5ZM110.105 20.5H112.089V19.5H110.105V20.5ZM114.073 20.5H116.056V19.5H114.073V20.5ZM118.04 20.5H120.024V19.5H118.04V20.5ZM122.008 20.5H123V19.5H122.008V20.5ZM0 21H0.991935V19H0V21ZM2.97581 21H4.95968V19H2.97581V21ZM6.94355 21H8.92742V19H6.94355V21ZM10.9113 21H12.8952V19H10.9113V21ZM14.879 21H16.8629V19H14.879V21ZM18.8468 21H20.8306V19H18.8468V21ZM22.8145 21H24.7984V19H22.8145V21ZM26.7823 21H28.7661V19H26.7823V21ZM30.75 21H32.7339V19H30.75V21ZM34.7177 21H36.7016V19H34.7177V21ZM38.6855 21H40.6694V19H38.6855V21ZM42.6532 21H44.6371V19H42.6532V21ZM46.621 21H48.6048V19H46.621V21ZM50.5887 21H52.5726V19H50.5887V21ZM54.5565 21H56.5403V19H54.5565V21ZM58.5242 21H60.5081V19H58.5242V21ZM62.492 21H64.4758V19H62.492V21ZM66.4597 21H68.4436V19H66.4597V21ZM70.4274 21H72.4113V19H70.4274V21ZM74.3952 21H76.379V19H74.3952V21ZM78.3629 21H80.3468V19H78.3629V21ZM82.3307 21H84.3145V19H82.3307V21ZM86.2984 21H88.2823V19H86.2984V21ZM90.2661 21H92.25V19H90.2661V21ZM94.2339 21H96.2178V19H94.2339V21ZM98.2016 21H100.186V19H98.2016V21ZM102.169 21H104.153V19H102.169V21ZM106.137 21H108.121V19H106.137V21ZM110.105 21H112.089V19H110.105V21ZM114.073 21H116.056V19H114.073V21ZM118.04 21H120.024V19H118.04V21ZM122.008 21H123V19H122.008V21Z" fill="white" fill-opacity="0.7" mask="url(#path-1-inside-1_11_6039)"/>
<path d="M1.65057 15H0.357955L4.09659 4.81818H5.36932L9.10795 15H7.81534L4.77273 6.42898H4.69318L1.65057 15ZM2.12784 11.0227H7.33807V12.1165H2.12784V11.0227ZM13.9354 7.36364V8.35795H9.81889V7.36364H13.9354ZM11.0518 15V6.30966C11.0518 5.87216 11.1546 5.50758 11.3601 5.21591C11.5656 4.92424 11.8324 4.70549 12.1605 4.55966C12.4886 4.41383 12.835 4.34091 13.1996 4.34091C13.4879 4.34091 13.7232 4.36411 13.9055 4.41051C14.0878 4.45691 14.2237 4.5 14.3132 4.53977L13.9751 5.55398C13.9155 5.53409 13.8326 5.50923 13.7266 5.4794C13.6238 5.44957 13.4879 5.43466 13.3189 5.43466C12.9311 5.43466 12.651 5.53243 12.4787 5.72798C12.3097 5.92353 12.2251 6.21023 12.2251 6.58807V15H11.0518ZM18.9803 7.36364V8.35795H14.8638V7.36364H18.9803ZM16.0968 15V6.30966C16.0968 5.87216 16.1995 5.50758 16.405 5.21591C16.6105 4.92424 16.8773 4.70549 17.2054 4.55966C17.5336 4.41383 17.8799 4.34091 18.2445 4.34091C18.5328 4.34091 18.7682 4.36411 18.9505 4.41051C19.1328 4.45691 19.2686 4.5 19.3581 4.53977L19.0201 5.55398C18.9604 5.53409 18.8775 5.50923 18.7715 5.4794C18.6687 5.44957 18.5328 5.43466 18.3638 5.43466C17.976 5.43466 17.696 5.53243 17.5236 5.72798C17.3546 5.92353 17.2701 6.21023 17.2701 6.58807V15H16.0968ZM20.6246 15V7.36364H21.7979V15H20.6246ZM21.2212 6.09091C20.9925 6.09091 20.7953 6.01302 20.6296 5.85724C20.4672 5.70147 20.386 5.5142 20.386 5.29545C20.386 5.0767 20.4672 4.88944 20.6296 4.73366C20.7953 4.57789 20.9925 4.5 21.2212 4.5C21.4499 4.5 21.6455 4.57789 21.8079 4.73366C21.9736 4.88944 22.0565 5.0767 22.0565 5.29545C22.0565 5.5142 21.9736 5.70147 21.8079 5.85724C21.6455 6.01302 21.4499 6.09091 21.2212 6.09091ZM27.0492 15.1591C26.3333 15.1591 25.7168 14.9901 25.1998 14.652C24.6827 14.3139 24.285 13.8482 24.0066 13.255C23.7282 12.6617 23.589 11.9839 23.589 11.2216C23.589 10.446 23.7315 9.7616 24.0165 9.16832C24.3049 8.57173 24.7059 8.10606 25.2196 7.77131C25.7367 7.43324 26.3399 7.2642 27.0293 7.2642C27.5662 7.2642 28.0501 7.36364 28.481 7.5625C28.9119 7.76136 29.2649 8.03977 29.54 8.39773C29.815 8.75568 29.9857 9.1733 30.052 9.65057H28.8787C28.7892 9.30256 28.5904 8.99432 28.2821 8.72585C27.9772 8.45407 27.5662 8.31818 27.0492 8.31818C26.5918 8.31818 26.1908 8.4375 25.8461 8.67614C25.5047 8.91146 25.2379 9.24455 25.0456 9.67543C24.8567 10.103 24.7623 10.6051 24.7623 11.1818C24.7623 11.7718 24.8551 12.2855 25.0407 12.723C25.2296 13.1605 25.4947 13.5002 25.8361 13.7422C26.1808 13.9841 26.5852 14.1051 27.0492 14.1051C27.3541 14.1051 27.6309 14.0521 27.8794 13.946C28.128 13.84 28.3385 13.6875 28.5108 13.4886C28.6832 13.2898 28.8058 13.0511 28.8787 12.7727H30.052C29.9857 13.2235 29.8217 13.6295 29.5598 13.9908C29.3013 14.3487 28.9583 14.6338 28.5307 14.8459C28.1065 15.0547 27.6126 15.1591 27.0492 15.1591ZM32.9405 10.4062V15H31.7672V4.81818H32.9405V8.55682H33.04C33.2189 8.16241 33.4874 7.84919 33.8453 7.61719C34.2066 7.38187 34.6872 7.2642 35.2871 7.2642C35.8075 7.2642 36.2632 7.36861 36.6543 7.57741C37.0454 7.78291 37.3487 8.09943 37.5641 8.52699C37.7828 8.95123 37.8922 9.49148 37.8922 10.1477V15H36.7189V10.2273C36.7189 9.62074 36.5615 9.15175 36.2466 8.82031C35.9351 8.48556 35.5025 8.31818 34.949 8.31818C34.5646 8.31818 34.2199 8.39938 33.915 8.56179C33.6133 8.72419 33.3747 8.96117 33.199 9.27273C33.0267 9.58428 32.9405 9.96212 32.9405 10.4062ZM43.2404 15.1591C42.5046 15.1591 41.8699 14.9967 41.3363 14.6719C40.806 14.3438 40.3967 13.8864 40.1083 13.2997C39.8233 12.7098 39.6808 12.0237 39.6808 11.2415C39.6808 10.4593 39.8233 9.76989 40.1083 9.1733C40.3967 8.57339 40.7977 8.10606 41.3114 7.77131C41.8285 7.43324 42.4317 7.2642 43.1211 7.2642C43.5188 7.2642 43.9116 7.33049 44.2994 7.46307C44.6871 7.59564 45.0401 7.81108 45.3583 8.10938C45.6765 8.40436 45.93 8.79545 46.119 9.28267C46.3079 9.76989 46.4023 10.3698 46.4023 11.0824V11.5795H40.516V10.5653H45.2092C45.2092 10.1345 45.123 9.75 44.9506 9.41193C44.7816 9.07386 44.5397 8.80705 44.2248 8.61151C43.9132 8.41596 43.5453 8.31818 43.1211 8.31818C42.6538 8.31818 42.2494 8.43419 41.908 8.66619C41.57 8.89489 41.3098 9.19318 41.1275 9.56108C40.9452 9.92898 40.854 10.3234 40.854 10.7443V11.4205C40.854 11.9972 40.9535 12.486 41.1523 12.8871C41.3545 13.2848 41.6346 13.5881 41.9925 13.7969C42.3505 14.0024 42.7665 14.1051 43.2404 14.1051C43.5487 14.1051 43.8271 14.062 44.0756 13.9759C44.3275 13.8864 44.5446 13.7538 44.7269 13.5781C44.9092 13.3991 45.0501 13.1771 45.1495 12.9119L46.283 13.2301C46.1637 13.6146 45.9632 13.9527 45.6815 14.2443C45.3997 14.5327 45.0517 14.758 44.6374 14.9205C44.2231 15.0795 43.7575 15.1591 43.2404 15.1591ZM48.1871 15V7.36364H49.3207V8.51705H49.4002C49.5394 8.1392 49.7913 7.83262 50.1559 7.5973C50.5205 7.36198 50.9315 7.24432 51.3888 7.24432C51.475 7.24432 51.5827 7.24597 51.712 7.24929C51.8413 7.2526 51.939 7.25758 52.0053 7.2642V8.45739C51.9656 8.44744 51.8744 8.43253 51.7319 8.41264C51.5927 8.38944 51.4452 8.37784 51.2894 8.37784C50.9182 8.37784 50.5868 8.45573 50.2951 8.61151C50.0067 8.76397 49.7781 8.97609 49.609 9.24787C49.4433 9.51634 49.3604 9.82292 49.3604 10.1676V15H48.1871ZM58.5069 4.81818V15H57.3336V4.81818H58.5069ZM63.8576 15.1591C63.1218 15.1591 62.4871 14.9967 61.9535 14.6719C61.4232 14.3438 61.0138 13.8864 60.7255 13.2997C60.4405 12.7098 60.2979 12.0237 60.2979 11.2415C60.2979 10.4593 60.4405 9.76989 60.7255 9.1733C61.0138 8.57339 61.4149 8.10606 61.9286 7.77131C62.4457 7.43324 63.0489 7.2642 63.7383 7.2642C64.136 7.2642 64.5288 7.33049 64.9165 7.46307C65.3043 7.59564 65.6573 7.81108 65.9755 8.10938C66.2937 8.40436 66.5472 8.79545 66.7362 9.28267C66.9251 9.76989 67.0195 10.3698 67.0195 11.0824V11.5795H61.1332V10.5653H65.8263C65.8263 10.1345 65.7402 9.75 65.5678 9.41193C65.3988 9.07386 65.1568 8.80705 64.842 8.61151C64.5304 8.41596 64.1625 8.31818 63.7383 8.31818C63.271 8.31818 62.8666 8.43419 62.5252 8.66619C62.1871 8.89489 61.927 9.19318 61.7447 9.56108C61.5624 9.92898 61.4712 10.3234 61.4712 10.7443V11.4205C61.4712 11.9972 61.5707 12.486 61.7695 12.8871C61.9717 13.2848 62.2518 13.5881 62.6097 13.7969C62.9677 14.0024 63.3836 14.1051 63.8576 14.1051C64.1658 14.1051 64.4442 14.062 64.6928 13.9759C64.9447 13.8864 65.1618 13.7538 65.3441 13.5781C65.5264 13.3991 65.6673 13.1771 65.7667 12.9119L66.9002 13.2301C66.7809 13.6146 66.5804 13.9527 66.2987 14.2443C66.0169 14.5327 65.6689 14.758 65.2546 14.9205C64.8403 15.0795 64.3746 15.1591 63.8576 15.1591ZM74.2134 9.07386L73.1594 9.37216C73.0932 9.1965 72.9954 9.0258 72.8661 8.86009C72.7402 8.69105 72.5678 8.55185 72.3491 8.44247C72.1303 8.3331 71.8503 8.27841 71.5089 8.27841C71.0415 8.27841 70.6521 8.38613 70.3406 8.60156C70.0323 8.81368 69.8782 9.08381 69.8782 9.41193C69.8782 9.7036 69.9843 9.93395 70.1964 10.103C70.4085 10.272 70.7399 10.4129 71.1907 10.5256L72.3242 10.804C73.007 10.9697 73.5157 11.2232 73.8505 11.5646C74.1853 11.9027 74.3526 12.3385 74.3526 12.8722C74.3526 13.3097 74.2267 13.7008 73.9748 14.0455C73.7262 14.3902 73.3782 14.6619 72.9308 14.8608C72.4833 15.0597 71.9629 15.1591 71.3697 15.1591C70.5908 15.1591 69.9461 14.9901 69.4357 14.652C68.9253 14.3139 68.6022 13.8201 68.4663 13.1705L69.5799 12.892C69.686 13.303 69.8865 13.6113 70.1815 13.8168C70.4798 14.0223 70.8692 14.125 71.3498 14.125C71.8967 14.125 72.3308 14.009 72.6523 13.777C72.9772 13.5417 73.1396 13.2599 73.1396 12.9318C73.1396 12.6667 73.0468 12.4446 72.8612 12.2656C72.6755 12.0833 72.3905 11.9474 72.006 11.858L70.7333 11.5597C70.034 11.3939 69.5202 11.1371 69.1921 10.7891C68.8673 10.4377 68.7049 9.99858 68.7049 9.47159C68.7049 9.04072 68.8259 8.65956 69.0678 8.32812C69.3131 7.99669 69.6462 7.73651 70.0671 7.54758C70.4914 7.35866 70.9719 7.2642 71.5089 7.2642C72.2646 7.2642 72.8578 7.42992 73.2887 7.76136C73.7229 8.0928 74.0311 8.5303 74.2134 9.07386ZM82.9398 15.1591C82.3034 15.1591 81.7417 14.9983 81.2544 14.6768C80.7672 14.352 80.3861 13.8946 80.111 13.3047C79.8359 12.7114 79.6983 12.0104 79.6983 11.2017C79.6983 10.3996 79.8359 9.7036 80.111 9.11364C80.3861 8.52367 80.7689 8.06794 81.2594 7.74645C81.7499 7.42495 82.3167 7.2642 82.9597 7.2642C83.4569 7.2642 83.8496 7.34706 84.138 7.51278C84.4296 7.67519 84.6517 7.8608 84.8042 8.0696C84.9599 8.27509 85.0809 8.44413 85.1671 8.5767H85.2665V4.81818H86.4398V15H85.3063V13.8267H85.1671C85.0809 13.9659 84.9583 14.1416 84.7992 14.3537C84.6401 14.5625 84.4131 14.7498 84.1181 14.9155C83.8231 15.0779 83.4303 15.1591 82.9398 15.1591ZM83.0989 14.1051C83.5695 14.1051 83.9673 13.9825 84.2921 13.7372C84.6169 13.4886 84.8638 13.1456 85.0328 12.7081C85.2019 12.2673 85.2864 11.7585 85.2864 11.1818C85.2864 10.6117 85.2035 10.1129 85.0378 9.68537C84.8721 9.2545 84.6268 8.91974 84.302 8.68111C83.9772 8.43916 83.5762 8.31818 83.0989 8.31818C82.6017 8.31818 82.1874 8.44579 81.856 8.70099C81.5279 8.95289 81.281 9.29593 81.1152 9.73011C80.9528 10.161 80.8716 10.6449 80.8716 11.1818C80.8716 11.7254 80.9545 12.2192 81.1202 12.6634C81.2892 13.1042 81.5378 13.4555 81.8659 13.7173C82.1974 13.9759 82.6084 14.1051 83.0989 14.1051ZM91.9533 15.1591C91.2175 15.1591 90.5828 14.9967 90.0492 14.6719C89.5189 14.3438 89.1096 13.8864 88.8212 13.2997C88.5362 12.7098 88.3936 12.0237 88.3936 11.2415C88.3936 10.4593 88.5362 9.76989 88.8212 9.1733C89.1096 8.57339 89.5106 8.10606 90.0243 7.77131C90.5414 7.43324 91.1446 7.2642 91.834 7.2642C92.2317 7.2642 92.6245 7.33049 93.0123 7.46307C93.4 7.59564 93.753 7.81108 94.0712 8.10938C94.3894 8.40436 94.6429 8.79545 94.8319 9.28267C95.0208 9.76989 95.1152 10.3698 95.1152 11.0824V11.5795H89.2289V10.5653H93.9221C93.9221 10.1345 93.8359 9.75 93.6635 9.41193C93.4945 9.07386 93.2525 8.80705 92.9377 8.61151C92.6261 8.41596 92.2582 8.31818 91.834 8.31818C91.3667 8.31818 90.9623 8.43419 90.6209 8.66619C90.2828 8.89489 90.0227 9.19318 89.8404 9.56108C89.6581 9.92898 89.5669 10.3234 89.5669 10.7443V11.4205C89.5669 11.9972 89.6664 12.486 89.8652 12.8871C90.0674 13.2848 90.3475 13.5881 90.7054 13.7969C91.0634 14.0024 91.4793 14.1051 91.9533 14.1051C92.2615 14.1051 92.54 14.062 92.7885 13.9759C93.0404 13.8864 93.2575 13.7538 93.4398 13.5781C93.6221 13.3991 93.763 13.1771 93.8624 12.9119L94.9959 13.2301C94.8766 13.6146 94.6761 13.9527 94.3944 14.2443C94.1126 14.5327 93.7646 14.758 93.3503 14.9205C92.936 15.0795 92.4703 15.1591 91.9533 15.1591ZM91.2374 6.32955L92.4505 4.02273H93.8226L92.2715 6.32955H91.2374ZM100.221 7.36364V8.35795H96.2637V7.36364H100.221ZM97.4171 5.53409H98.5904V12.8125C98.5904 13.1439 98.6384 13.3925 98.7346 13.5582C98.834 13.7206 98.9599 13.83 99.1124 13.8864C99.2682 13.9394 99.4322 13.9659 99.6046 13.9659C99.7338 13.9659 99.8399 13.9593 99.9228 13.946C100.006 13.9295 100.072 13.9162 100.122 13.9062L100.36 14.9602C100.281 14.9901 100.17 15.0199 100.027 15.0497C99.8846 15.0829 99.704 15.0994 99.4853 15.0994C99.1538 15.0994 98.829 15.0282 98.5108 14.8857C98.196 14.7431 97.9341 14.526 97.7253 14.2344C97.5198 13.9427 97.4171 13.5748 97.4171 13.1307V5.53409ZM104.233 15.179C103.749 15.179 103.31 15.0878 102.916 14.9055C102.521 14.7199 102.208 14.4531 101.976 14.1051C101.744 13.7538 101.628 13.3295 101.628 12.8324C101.628 12.3949 101.714 12.0402 101.887 11.7685C102.059 11.4934 102.289 11.2779 102.578 11.1222C102.866 10.9664 103.184 10.8504 103.532 10.7741C103.883 10.6946 104.236 10.6316 104.591 10.5852C105.055 10.5256 105.431 10.4808 105.72 10.451C106.011 10.4179 106.223 10.3632 106.356 10.2869C106.492 10.2107 106.56 10.0781 106.56 9.8892V9.84943C106.56 9.3589 106.426 8.97775 106.157 8.70597C105.892 8.43419 105.489 8.2983 104.949 8.2983C104.389 8.2983 103.95 8.42093 103.632 8.66619C103.313 8.91146 103.09 9.1733 102.96 9.4517L101.847 9.05398C102.046 8.58996 102.311 8.22869 102.642 7.97017C102.977 7.70833 103.342 7.52604 103.736 7.4233C104.134 7.31723 104.525 7.2642 104.909 7.2642C105.155 7.2642 105.436 7.29403 105.754 7.35369C106.076 7.41004 106.386 7.5277 106.684 7.70668C106.986 7.88565 107.236 8.15578 107.435 8.51705C107.634 8.87831 107.733 9.36222 107.733 9.96875V15H106.56V13.9659H106.5C106.421 14.1316 106.288 14.3089 106.102 14.4979C105.917 14.6868 105.67 14.8475 105.362 14.9801C105.053 15.1127 104.677 15.179 104.233 15.179ZM104.412 14.125C104.876 14.125 105.267 14.0339 105.585 13.8516C105.907 13.6693 106.149 13.4339 106.311 13.1456C106.477 12.8572 106.56 12.554 106.56 12.2358V11.1619C106.51 11.2216 106.401 11.2763 106.232 11.326C106.066 11.3724 105.874 11.4138 105.655 11.4503C105.44 11.4834 105.229 11.5133 105.024 11.5398C104.821 11.563 104.657 11.5829 104.531 11.5994C104.227 11.6392 103.941 11.7038 103.676 11.7933C103.414 11.8795 103.202 12.0104 103.04 12.1861C102.881 12.3584 102.801 12.5937 102.801 12.892C102.801 13.2997 102.952 13.608 103.254 13.8168C103.559 14.0223 103.945 14.125 104.412 14.125ZM109.875 15V7.36364H111.048V15H109.875ZM110.471 6.09091C110.243 6.09091 110.045 6.01302 109.88 5.85724C109.717 5.70147 109.636 5.5142 109.636 5.29545C109.636 5.0767 109.717 4.88944 109.88 4.73366C110.045 4.57789 110.243 4.5 110.471 4.5C110.7 4.5 110.895 4.57789 111.058 4.73366C111.224 4.88944 111.306 5.0767 111.306 5.29545C111.306 5.5142 111.224 5.70147 111.058 5.85724C110.895 6.01302 110.7 6.09091 110.471 6.09091ZM114.37 4.81818V15H113.197V4.81818H114.37ZM121.928 9.07386L120.874 9.37216C120.808 9.1965 120.71 9.0258 120.581 8.86009C120.455 8.69105 120.283 8.55185 120.064 8.44247C119.845 8.3331 119.565 8.27841 119.224 8.27841C118.756 8.27841 118.367 8.38613 118.055 8.60156C117.747 8.81368 117.593 9.08381 117.593 9.41193C117.593 9.7036 117.699 9.93395 117.911 10.103C118.123 10.272 118.455 10.4129 118.906 10.5256L120.039 10.804C120.722 10.9697 121.231 11.2232 121.565 11.5646C121.9 11.9027 122.067 12.3385 122.067 12.8722C122.067 13.3097 121.942 13.7008 121.69 14.0455C121.441 14.3902 121.093 14.6619 120.646 14.8608C120.198 15.0597 119.678 15.1591 119.085 15.1591C118.306 15.1591 117.661 14.9901 117.151 14.652C116.64 14.3139 116.317 13.8201 116.181 13.1705L117.295 12.892C117.401 13.303 117.601 13.6113 117.896 13.8168C118.195 14.0223 118.584 14.125 119.065 14.125C119.612 14.125 120.046 14.009 120.367 13.777C120.692 13.5417 120.854 13.2599 120.854 12.9318C120.854 12.6667 120.762 12.4446 120.576 12.2656C120.39 12.0833 120.105 11.9474 119.721 11.858L118.448 11.5597C117.749 11.3939 117.235 11.1371 116.907 10.7891C116.582 10.4377 116.42 9.99858 116.42 9.47159C116.42 9.04072 116.541 8.65956 116.783 8.32812C117.028 7.99669 117.361 7.73651 117.782 7.54758C118.206 7.35866 118.687 7.2642 119.224 7.2642C119.979 7.2642 120.573 7.42992 121.004 7.76136C121.438 8.0928 121.746 8.5303 121.928 9.07386Z" fill="white"/>
</svg>
