<svg width="123" height="20" viewBox="0 0 123 20" fill="none" xmlns="http://www.w3.org/2000/svg">
<path d="M1.65063 15H0.358016L4.09665 4.81818H5.36938L9.10802 15H7.8154L4.77279 6.42898H4.69324L1.65063 15ZM2.1279 11.0227H7.33813V12.1165H2.1279V11.0227ZM13.9354 7.36364V8.35795H9.81895V7.36364H13.9354ZM11.0519 15V6.30966C11.0519 5.87216 11.1547 5.50758 11.3601 5.21591C11.5656 4.92424 11.8324 4.70549 12.1606 4.55966C12.4887 4.41383 12.8351 4.34091 13.1996 4.34091C13.488 4.34091 13.7233 4.36411 13.9056 4.41051C14.0879 4.45691 14.2238 4.5 14.3133 4.53977L13.9752 5.55398C13.9155 5.53409 13.8327 5.50923 13.7266 5.4794C13.6239 5.44957 13.488 5.43466 13.319 5.43466C12.9312 5.43466 12.6511 5.53243 12.4788 5.72798C12.3097 5.92353 12.2252 6.21023 12.2252 6.58807V15H11.0519ZM18.9804 7.36364V8.35795H14.8639V7.36364H18.9804ZM16.0968 15V6.30966C16.0968 5.87216 16.1996 5.50758 16.4051 5.21591C16.6106 4.92424 16.8774 4.70549 17.2055 4.55966C17.5336 4.41383 17.88 4.34091 18.2446 4.34091C18.5329 4.34091 18.7682 4.36411 18.9505 4.41051C19.1328 4.45691 19.2687 4.5 19.3582 4.53977L19.0201 5.55398C18.9605 5.53409 18.8776 5.50923 18.7715 5.4794C18.6688 5.44957 18.5329 5.43466 18.3639 5.43466C17.9761 5.43466 17.696 5.53243 17.5237 5.72798C17.3546 5.92353 17.2701 6.21023 17.2701 6.58807V15H16.0968ZM20.6247 15V7.36364H21.798V15H20.6247ZM21.2213 6.09091C20.9926 6.09091 20.7954 6.01302 20.6297 5.85724C20.4673 5.70147 20.3861 5.5142 20.3861 5.29545C20.3861 5.0767 20.4673 4.88944 20.6297 4.73366C20.7954 4.57789 20.9926 4.5 21.2213 4.5C21.45 4.5 21.6455 4.57789 21.8079 4.73366C21.9737 4.88944 22.0565 5.0767 22.0565 5.29545C22.0565 5.5142 21.9737 5.70147 21.8079 5.85724C21.6455 6.01302 21.45 6.09091 21.2213 6.09091ZM27.0492 15.1591C26.3333 15.1591 25.7169 14.9901 25.1998 14.652C24.6828 14.3139 24.285 13.8482 24.0066 13.255C23.7282 12.6617 23.589 11.9839 23.589 11.2216C23.589 10.446 23.7315 9.7616 24.0166 9.16832C24.3049 8.57173 24.706 8.10606 25.2197 7.77131C25.7367 7.43324 26.34 7.2642 27.0294 7.2642C27.5663 7.2642 28.0502 7.36364 28.4811 7.5625C28.9119 7.76136 29.2649 8.03977 29.54 8.39773C29.8151 8.75568 29.9858 9.1733 30.0521 9.65057H28.8788C28.7893 9.30256 28.5904 8.99432 28.2822 8.72585C27.9773 8.45407 27.5663 8.31818 27.0492 8.31818C26.5919 8.31818 26.1908 8.4375 25.8461 8.67614C25.5047 8.91146 25.2379 9.24455 25.0457 9.67543C24.8568 10.103 24.7623 10.6051 24.7623 11.1818C24.7623 11.7718 24.8551 12.2855 25.0407 12.723C25.2296 13.1605 25.4948 13.5002 25.8362 13.7422C26.1809 13.9841 26.5852 14.1051 27.0492 14.1051C27.3542 14.1051 27.6309 14.0521 27.8795 13.946C28.1281 13.84 28.3385 13.6875 28.5109 13.4886C28.6832 13.2898 28.8059 13.0511 28.8788 12.7727H30.0521C29.9858 13.2235 29.8217 13.6295 29.5599 13.9908C29.3014 14.3487 28.9583 14.6338 28.5308 14.8459C28.1065 15.0547 27.6127 15.1591 27.0492 15.1591ZM32.9406 10.4062V15H31.7673V4.81818H32.9406V8.55682H33.04C33.219 8.16241 33.4875 7.84919 33.8454 7.61719C34.2067 7.38187 34.6873 7.2642 35.2872 7.2642C35.8075 7.2642 36.2633 7.36861 36.6544 7.57741C37.0455 7.78291 37.3487 8.09943 37.5642 8.52699C37.7829 8.95123 37.8923 9.49148 37.8923 10.1477V15H36.719V10.2273C36.719 9.62074 36.5616 9.15175 36.2467 8.82031C35.9351 8.48556 35.5026 8.31818 34.9491 8.31818C34.5646 8.31818 34.2199 8.39938 33.915 8.56179C33.6134 8.72419 33.3748 8.96117 33.1991 9.27273C33.0268 9.58428 32.9406 9.96212 32.9406 10.4062ZM43.2405 15.1591C42.5047 15.1591 41.87 14.9967 41.3364 14.6719C40.8061 14.3438 40.3967 13.8864 40.1084 13.2997C39.8233 12.7098 39.6808 12.0237 39.6808 11.2415C39.6808 10.4593 39.8233 9.76989 40.1084 9.1733C40.3967 8.57339 40.7978 8.10606 41.3115 7.77131C41.8285 7.43324 42.4318 7.2642 43.1212 7.2642C43.5189 7.2642 43.9116 7.33049 44.2994 7.46307C44.6872 7.59564 45.0402 7.81108 45.3584 8.10938C45.6766 8.40436 45.9301 8.79545 46.119 9.28267C46.3079 9.76989 46.4024 10.3698 46.4024 11.0824V11.5795H40.516V10.5653H45.2092C45.2092 10.1345 45.123 9.75 44.9507 9.41193C44.7817 9.07386 44.5397 8.80705 44.2248 8.61151C43.9133 8.41596 43.5454 8.31818 43.1212 8.31818C42.6538 8.31818 42.2495 8.43419 41.9081 8.66619C41.57 8.89489 41.3098 9.19318 41.1275 9.56108C40.9453 9.92898 40.8541 10.3234 40.8541 10.7443V11.4205C40.8541 11.9972 40.9535 12.486 41.1524 12.8871C41.3546 13.2848 41.6346 13.5881 41.9926 13.7969C42.3506 14.0024 42.7665 14.1051 43.2405 14.1051C43.5487 14.1051 43.8271 14.062 44.0757 13.9759C44.3276 13.8864 44.5447 13.7538 44.727 13.5781C44.9093 13.3991 45.0501 13.1771 45.1496 12.9119L46.2831 13.2301C46.1638 13.6146 45.9632 13.9527 45.6815 14.2443C45.3998 14.5327 45.0518 14.758 44.6375 14.9205C44.2232 15.0795 43.7575 15.1591 43.2405 15.1591ZM48.1872 15V7.36364H49.3207V8.51705H49.4003C49.5395 8.1392 49.7914 7.83262 50.156 7.5973C50.5205 7.36198 50.9315 7.24432 51.3889 7.24432C51.4751 7.24432 51.5828 7.24597 51.7121 7.24929C51.8413 7.2526 51.9391 7.25758 52.0054 7.2642V8.45739C51.9656 8.44744 51.8745 8.43253 51.732 8.41264C51.5927 8.38944 51.4453 8.37784 51.2895 8.37784C50.9183 8.37784 50.5868 8.45573 50.2952 8.61151C50.0068 8.76397 49.7781 8.97609 49.6091 9.24787C49.4434 9.51634 49.3605 9.82292 49.3605 10.1676V15H48.1872ZM58.507 4.81818V15H57.3337V4.81818H58.507ZM63.8577 15.1591C63.1219 15.1591 62.4872 14.9967 61.9535 14.6719C61.4232 14.3438 61.0139 13.8864 60.7256 13.2997C60.4405 12.7098 60.298 12.0237 60.298 11.2415C60.298 10.4593 60.4405 9.76989 60.7256 9.1733C61.0139 8.57339 61.415 8.10606 61.9287 7.77131C62.4457 7.43324 63.0489 7.2642 63.7383 7.2642C64.1361 7.2642 64.5288 7.33049 64.9166 7.46307C65.3044 7.59564 65.6574 7.81108 65.9756 8.10938C66.2937 8.40436 66.5473 8.79545 66.7362 9.28267C66.9251 9.76989 67.0196 10.3698 67.0196 11.0824V11.5795H61.1332V10.5653H65.8264C65.8264 10.1345 65.7402 9.75 65.5679 9.41193C65.3989 9.07386 65.1569 8.80705 64.842 8.61151C64.5305 8.41596 64.1626 8.31818 63.7383 8.31818C63.271 8.31818 62.8667 8.43419 62.5253 8.66619C62.1872 8.89489 61.927 9.19318 61.7447 9.56108C61.5624 9.92898 61.4713 10.3234 61.4713 10.7443V11.4205C61.4713 11.9972 61.5707 12.486 61.7696 12.8871C61.9718 13.2848 62.2518 13.5881 62.6098 13.7969C62.9677 14.0024 63.3837 14.1051 63.8577 14.1051C64.1659 14.1051 64.4443 14.062 64.6929 13.9759C64.9448 13.8864 65.1619 13.7538 65.3442 13.5781C65.5265 13.3991 65.6673 13.1771 65.7668 12.9119L66.9003 13.2301C66.781 13.6146 66.5804 13.9527 66.2987 14.2443C66.017 14.5327 65.669 14.758 65.2547 14.9205C64.8404 15.0795 64.3747 15.1591 63.8577 15.1591ZM74.2135 9.07386L73.1595 9.37216C73.0932 9.1965 72.9954 9.0258 72.8662 8.86009C72.7402 8.69105 72.5679 8.55185 72.3491 8.44247C72.1304 8.3331 71.8503 8.27841 71.5089 8.27841C71.0416 8.27841 70.6522 8.38613 70.3406 8.60156C70.0324 8.81368 69.8783 9.08381 69.8783 9.41193C69.8783 9.7036 69.9843 9.93395 70.1964 10.103C70.4086 10.272 70.74 10.4129 71.1908 10.5256L72.3243 10.804C73.007 10.9697 73.5158 11.2232 73.8506 11.5646C74.1853 11.9027 74.3527 12.3385 74.3527 12.8722C74.3527 13.3097 74.2267 13.7008 73.9748 14.0455C73.7263 14.3902 73.3783 14.6619 72.9308 14.8608C72.4834 15.0597 71.963 15.1591 71.3697 15.1591C70.5909 15.1591 69.9462 14.9901 69.4358 14.652C68.9254 14.3139 68.6022 13.8201 68.4663 13.1705L69.58 12.892C69.686 13.303 69.8865 13.6113 70.1815 13.8168C70.4798 14.0223 70.8693 14.125 71.3498 14.125C71.8967 14.125 72.3309 14.009 72.6524 13.777C72.9772 13.5417 73.1396 13.2599 73.1396 12.9318C73.1396 12.6667 73.0468 12.4446 72.8612 12.2656C72.6756 12.0833 72.3906 11.9474 72.0061 11.858L70.7334 11.5597C70.034 11.3939 69.5203 11.1371 69.1922 10.7891C68.8674 10.4377 68.705 9.99858 68.705 9.47159C68.705 9.04072 68.8259 8.65956 69.0679 8.32812C69.3132 7.99669 69.6462 7.73651 70.0672 7.54758C70.4914 7.35866 70.972 7.2642 71.5089 7.2642C72.2646 7.2642 72.8579 7.42992 73.2888 7.76136C73.723 8.0928 74.0312 8.5303 74.2135 9.07386ZM82.9399 15.1591C82.3035 15.1591 81.7417 14.9983 81.2545 14.6768C80.7673 14.352 80.3861 13.8946 80.111 13.3047C79.8359 12.7114 79.6984 12.0104 79.6984 11.2017C79.6984 10.3996 79.8359 9.7036 80.111 9.11364C80.3861 8.52367 80.7689 8.06794 81.2595 7.74645C81.75 7.42495 82.3168 7.2642 82.9598 7.2642C83.4569 7.2642 83.8497 7.34706 84.138 7.51278C84.4297 7.67519 84.6518 7.8608 84.8042 8.0696C84.96 8.27509 85.081 8.44413 85.1671 8.5767H85.2666V4.81818H86.4399V15H85.3063V13.8267H85.1671C85.081 13.9659 84.9583 14.1416 84.7992 14.3537C84.6402 14.5625 84.4131 14.7498 84.1181 14.9155C83.8232 15.0779 83.4304 15.1591 82.9399 15.1591ZM83.099 14.1051C83.5696 14.1051 83.9673 13.9825 84.2921 13.7372C84.617 13.4886 84.8639 13.1456 85.0329 12.7081C85.2019 12.2673 85.2865 11.7585 85.2865 11.1818C85.2865 10.6117 85.2036 10.1129 85.0379 9.68537C84.8722 9.2545 84.6269 8.91974 84.3021 8.68111C83.9773 8.43916 83.5762 8.31818 83.099 8.31818C82.6018 8.31818 82.1875 8.44579 81.8561 8.70099C81.5279 8.95289 81.281 9.29593 81.1153 9.73011C80.9529 10.161 80.8717 10.6449 80.8717 11.1818C80.8717 11.7254 80.9545 12.2192 81.1203 12.6634C81.2893 13.1042 81.5379 13.4555 81.866 13.7173C82.1974 13.9759 82.6084 14.1051 83.099 14.1051ZM91.9534 15.1591C91.2176 15.1591 90.5829 14.9967 90.0492 14.6719C89.5189 14.3438 89.1096 13.8864 88.8213 13.2997C88.5362 12.7098 88.3937 12.0237 88.3937 11.2415C88.3937 10.4593 88.5362 9.76989 88.8213 9.1733C89.1096 8.57339 89.5107 8.10606 90.0244 7.77131C90.5414 7.43324 91.1447 7.2642 91.834 7.2642C92.2318 7.2642 92.6245 7.33049 93.0123 7.46307C93.4001 7.59564 93.7531 7.81108 94.0713 8.10938C94.3894 8.40436 94.643 8.79545 94.8319 9.28267C95.0208 9.76989 95.1153 10.3698 95.1153 11.0824V11.5795H89.2289V10.5653H93.9221C93.9221 10.1345 93.8359 9.75 93.6636 9.41193C93.4946 9.07386 93.2526 8.80705 92.9377 8.61151C92.6262 8.41596 92.2583 8.31818 91.834 8.31818C91.3667 8.31818 90.9624 8.43419 90.621 8.66619C90.2829 8.89489 90.0227 9.19318 89.8404 9.56108C89.6581 9.92898 89.567 10.3234 89.567 10.7443V11.4205C89.567 11.9972 89.6664 12.486 89.8653 12.8871C90.0675 13.2848 90.3475 13.5881 90.7055 13.7969C91.0634 14.0024 91.4794 14.1051 91.9534 14.1051C92.2616 14.1051 92.54 14.062 92.7886 13.9759C93.0405 13.8864 93.2576 13.7538 93.4399 13.5781C93.6222 13.3991 93.763 13.1771 93.8625 12.9119L94.996 13.2301C94.8767 13.6146 94.6761 13.9527 94.3944 14.2443C94.1127 14.5327 93.7647 14.758 93.3504 14.9205C92.9361 15.0795 92.4704 15.1591 91.9534 15.1591ZM91.2375 6.32955L92.4505 4.02273H93.8227L92.2715 6.32955H91.2375ZM100.221 7.36364V8.35795H96.2637V7.36364H100.221ZM97.4171 5.53409H98.5904V12.8125C98.5904 13.1439 98.6385 13.3925 98.7346 13.5582C98.834 13.7206 98.96 13.83 99.1125 13.8864C99.2682 13.9394 99.4323 13.9659 99.6046 13.9659C99.7339 13.9659 99.84 13.9593 99.9228 13.946C100.006 13.9295 100.072 13.9162 100.122 13.9062L100.36 14.9602C100.281 14.9901 100.17 15.0199 100.027 15.0497C99.8847 15.0829 99.7041 15.0994 99.4853 15.0994C99.1539 15.0994 98.8291 15.0282 98.5109 14.8857C98.196 14.7431 97.9342 14.526 97.7254 14.2344C97.5199 13.9427 97.4171 13.5748 97.4171 13.1307V5.53409ZM104.233 15.179C103.749 15.179 103.31 15.0878 102.916 14.9055C102.521 14.7199 102.208 14.4531 101.976 14.1051C101.744 13.7538 101.628 13.3295 101.628 12.8324C101.628 12.3949 101.714 12.0402 101.887 11.7685C102.059 11.4934 102.289 11.2779 102.578 11.1222C102.866 10.9664 103.184 10.8504 103.532 10.7741C103.884 10.6946 104.237 10.6316 104.591 10.5852C105.055 10.5256 105.431 10.4808 105.72 10.451C106.011 10.4179 106.223 10.3632 106.356 10.2869C106.492 10.2107 106.56 10.0781 106.56 9.8892V9.84943C106.56 9.3589 106.426 8.97775 106.157 8.70597C105.892 8.43419 105.489 8.2983 104.949 8.2983C104.389 8.2983 103.95 8.42093 103.632 8.66619C103.313 8.91146 103.09 9.1733 102.96 9.4517L101.847 9.05398C102.046 8.58996 102.311 8.22869 102.642 7.97017C102.977 7.70833 103.342 7.52604 103.736 7.4233C104.134 7.31723 104.525 7.2642 104.909 7.2642C105.155 7.2642 105.436 7.29403 105.755 7.35369C106.076 7.41004 106.386 7.5277 106.684 7.70668C106.986 7.88565 107.236 8.15578 107.435 8.51705C107.634 8.87831 107.733 9.36222 107.733 9.96875V15H106.56V13.9659H106.5C106.421 14.1316 106.288 14.3089 106.103 14.4979C105.917 14.6868 105.67 14.8475 105.362 14.9801C105.054 15.1127 104.677 15.179 104.233 15.179ZM104.412 14.125C104.876 14.125 105.267 14.0339 105.585 13.8516C105.907 13.6693 106.149 13.4339 106.311 13.1456C106.477 12.8572 106.56 12.554 106.56 12.2358V11.1619C106.51 11.2216 106.401 11.2763 106.232 11.326C106.066 11.3724 105.874 11.4138 105.655 11.4503C105.44 11.4834 105.229 11.5133 105.024 11.5398C104.821 11.563 104.657 11.5829 104.531 11.5994C104.227 11.6392 103.942 11.7038 103.676 11.7933C103.415 11.8795 103.202 12.0104 103.04 12.1861C102.881 12.3584 102.801 12.5937 102.801 12.892C102.801 13.2997 102.952 13.608 103.254 13.8168C103.559 14.0223 103.945 14.125 104.412 14.125ZM109.875 15V7.36364H111.048V15H109.875ZM110.471 6.09091C110.243 6.09091 110.045 6.01302 109.88 5.85724C109.717 5.70147 109.636 5.5142 109.636 5.29545C109.636 5.0767 109.717 4.88944 109.88 4.73366C110.045 4.57789 110.243 4.5 110.471 4.5C110.7 4.5 110.896 4.57789 111.058 4.73366C111.224 4.88944 111.307 5.0767 111.307 5.29545C111.307 5.5142 111.224 5.70147 111.058 5.85724C110.896 6.01302 110.7 6.09091 110.471 6.09091ZM114.37 4.81818V15H113.197V4.81818H114.37ZM121.928 9.07386L120.874 9.37216C120.808 9.1965 120.71 9.0258 120.581 8.86009C120.455 8.69105 120.283 8.55185 120.064 8.44247C119.845 8.3331 119.565 8.27841 119.224 8.27841C118.756 8.27841 118.367 8.38613 118.055 8.60156C117.747 8.81368 117.593 9.08381 117.593 9.41193C117.593 9.7036 117.699 9.93395 117.911 10.103C118.123 10.272 118.455 10.4129 118.906 10.5256L120.039 10.804C120.722 10.9697 121.231 11.2232 121.565 11.5646C121.9 11.9027 122.068 12.3385 122.068 12.8722C122.068 13.3097 121.942 13.7008 121.69 14.0455C121.441 14.3902 121.093 14.6619 120.646 14.8608C120.198 15.0597 119.678 15.1591 119.085 15.1591C118.306 15.1591 117.661 14.9901 117.151 14.652C116.64 14.3139 116.317 13.8201 116.181 13.1705L117.295 12.892C117.401 13.303 117.601 13.6113 117.896 13.8168C118.195 14.0223 118.584 14.125 119.065 14.125C119.612 14.125 120.046 14.009 120.367 13.777C120.692 13.5417 120.854 13.2599 120.854 12.9318C120.854 12.6667 120.762 12.4446 120.576 12.2656C120.39 12.0833 120.105 11.9474 119.721 11.858L118.448 11.5597C117.749 11.3939 117.235 11.1371 116.907 10.7891C116.582 10.4377 116.42 9.99858 116.42 9.47159C116.42 9.04072 116.541 8.65956 116.783 8.32812C117.028 7.99669 117.361 7.73651 117.782 7.54758C118.206 7.35866 118.687 7.2642 119.224 7.2642C119.979 7.2642 120.573 7.42992 121.004 7.76136C121.438 8.0928 121.746 8.5303 121.928 9.07386Z" fill="white"/>
</svg>
