<svg width="25" height="16" viewBox="0 0 25 16" fill="none" xmlns="http://www.w3.org/2000/svg">
<path opacity="0.2" fill-rule="evenodd" clip-rule="evenodd" d="M16.5107 1.52539H1.52313C0.822488 1.52539 0 2.33281 0 3.04883V14.4746C0 15.1906 0.822488 15.998 1.52313 15.998H20.5622C21.2628 15.998 22.0853 15.1906 22.0853 14.4746V8.73887C21.4438 9.3161 20.6514 9.69913 19.8006 9.84336V9.9043C19.8006 10.407 19.5265 10.666 19.0391 10.666H2.28469C1.79729 10.666 1.52313 10.407 1.52313 9.9043V9.14258C1.52313 8.63984 1.79729 8.38086 2.28469 8.38086H15.6349C15.1953 7.89357 14.8661 7.31702 14.67 6.69067C14.4739 6.06433 14.4154 5.40299 14.4986 4.75194C14.5817 4.10088 14.8046 3.4755 15.1519 2.9186C15.4992 2.36171 15.9627 1.88646 16.5107 1.52539Z" fill="#565656"/>
<path opacity="0.3" fill-rule="evenodd" clip-rule="evenodd" d="M14.7286 3.81055H0V6.0957H14.5306C14.4027 5.32948 14.4708 4.54333 14.7286 3.81055Z" fill="#565656"/>
<path fill-rule="evenodd" clip-rule="evenodd" d="M19.0391 10.666C17.6252 10.666 16.2693 10.1042 15.2695 9.1043C14.2698 8.10435 13.7081 6.74813 13.7081 5.33398C13.7081 3.91984 14.2698 2.56362 15.2695 1.56367C16.2693 0.563719 17.6252 0.00195313 19.0391 0.00195312C20.4529 0.00195313 21.8089 0.563719 22.8086 1.56367C23.8084 2.56362 24.37 3.91984 24.37 5.33398C24.37 6.74813 23.8084 8.10435 22.8086 9.1043C21.8089 10.1042 20.4529 10.666 19.0391 10.666ZM16.9219 3.125H16.3203L14.8505 3.87148V4.6332L16.0157 4.02383V7.54297H16.9295V3.125H16.9219ZM18.6735 3.73438C19.1076 3.73438 19.4122 3.97812 19.4122 4.32852C19.4122 4.70937 19.0543 4.97598 18.5364 4.97598H18.308V5.62344H18.5821C19.1305 5.62344 19.5036 5.89766 19.5036 6.29375C19.5036 6.67461 19.1381 6.93359 18.6202 6.93359C18.2394 6.93359 17.8586 6.81172 17.4626 6.57559V7.3373C17.8891 7.52012 18.3156 7.61914 18.7344 7.61914C19.7321 7.61914 20.4175 7.10879 20.4175 6.36992C20.4175 5.85195 20.0976 5.43301 19.5645 5.26543C20.0215 5.11309 20.3185 4.70937 20.3185 4.25234C20.3185 3.53633 19.6864 3.04883 18.7725 3.04883C18.3606 3.0534 17.9538 3.1415 17.5769 3.30781V4.0543C17.9424 3.84863 18.3156 3.73438 18.6735 3.73438ZM21.9635 5.39492C22.5194 5.39492 22.9078 5.72246 22.9078 6.14902C22.9078 6.59844 22.5194 6.91074 21.9635 6.91074C21.6284 6.91074 21.2781 6.8041 20.9201 6.5832V7.36777C21.2933 7.53535 21.6741 7.61914 22.0472 7.61914C22.2452 7.61914 22.428 7.58867 22.6032 7.54297C22.9992 6.89551 23.2277 6.14902 23.2277 5.34922L23.2124 5.0293C22.9293 4.86166 22.6046 4.77718 22.2757 4.78555C22.1386 4.78555 21.9939 4.79316 21.8416 4.81602V3.82578H22.9383C22.8432 3.58197 22.7259 3.34739 22.5879 3.125H21.0496V5.52441C21.3542 5.44824 21.6588 5.39492 21.9635 5.39492Z" fill="#565656"/>
</svg>
