<svg width="238" height="16" viewBox="0 0 238 16" fill="none" xmlns="http://www.w3.org/2000/svg">
<path d="M4.72727 15H0.291193V1.90909H4.81676C6.11648 1.90909 7.23296 2.17116 8.16619 2.69531C9.10369 3.2152 9.82386 3.96307 10.3267 4.93892C10.8295 5.91477 11.081 7.08239 11.081 8.44176C11.081 9.8054 10.8274 10.9773 10.3203 11.9574C9.81747 12.9375 9.09091 13.6896 8.14062 14.2138C7.1946 14.7379 6.05682 15 4.72727 15ZM2.66264 12.9482H4.61222C5.52415 12.9482 6.2848 12.782 6.89418 12.4496C7.50355 12.1129 7.96165 11.6122 8.26847 10.9474C8.57528 10.2784 8.72869 9.44318 8.72869 8.44176C8.72869 7.44034 8.57528 6.60937 8.26847 5.94886C7.96165 5.28409 7.50781 4.78764 6.90696 4.45952C6.31037 4.12713 5.56889 3.96094 4.68253 3.96094H2.66264V12.9482ZM17.5785 15.1918C16.5941 15.1918 15.744 14.9872 15.0281 14.5781C14.3164 14.1648 13.7688 13.581 13.3853 12.8267C13.0018 12.0682 12.81 11.1754 12.81 10.1484C12.81 9.13849 13.0018 8.25213 13.3853 7.48935C13.7731 6.7223 14.3143 6.12571 15.0089 5.69957C15.7035 5.26918 16.5195 5.05398 17.457 5.05398C18.0621 5.05398 18.6332 5.15199 19.1701 5.34801C19.7113 5.53977 20.1886 5.83807 20.6019 6.2429C21.0195 6.64773 21.3477 7.16335 21.5863 7.78977C21.8249 8.41193 21.9442 9.15341 21.9442 10.0142V10.7237H13.8967V9.16406H19.7262C19.7219 8.72088 19.6261 8.3267 19.4386 7.98153C19.2511 7.6321 18.989 7.35724 18.6523 7.15696C18.32 6.95668 17.9322 6.85653 17.489 6.85653C17.016 6.85653 16.6005 6.97159 16.2425 7.2017C15.8846 7.42756 15.6055 7.72585 15.4052 8.09659C15.2092 8.46307 15.109 8.86577 15.1048 9.30469V10.6662C15.1048 11.2372 15.2092 11.7273 15.418 12.1364C15.6268 12.5412 15.9187 12.8523 16.2937 13.0696C16.6687 13.2827 17.1076 13.3892 17.6104 13.3892C17.9471 13.3892 18.2518 13.3423 18.5245 13.2486C18.7972 13.1506 19.0337 13.0078 19.234 12.8203C19.4343 12.6328 19.5856 12.4006 19.6879 12.1236L21.8484 12.3665C21.712 12.9375 21.4521 13.4361 21.0685 13.8622C20.6893 14.2841 20.2035 14.6122 19.6112 14.8466C19.0188 15.0767 18.3413 15.1918 17.5785 15.1918ZM16.5046 3.89062L17.9364 0.96946H20.1992L18.2369 3.89062H16.5046ZM28.8045 5.18182V6.97159H23.1603V5.18182H28.8045ZM24.5538 2.82955H26.8677V12.0469C26.8677 12.358 26.9146 12.5966 27.0083 12.7628C27.1064 12.9247 27.2342 13.0355 27.3919 13.0952C27.5495 13.1548 27.7243 13.1847 27.916 13.1847C28.0609 13.1847 28.193 13.174 28.3123 13.1527C28.4359 13.1314 28.5297 13.1122 28.5936 13.0952L28.9835 14.9041C28.8599 14.9467 28.6831 14.9936 28.4529 15.0447C28.2271 15.0959 27.9501 15.1257 27.622 15.1342C27.0424 15.1513 26.5204 15.0639 26.0559 14.8722C25.5914 14.6761 25.2228 14.3736 24.9501 13.9645C24.6816 13.5554 24.5495 13.044 24.5538 12.4304V2.82955ZM33.565 15.1982C32.9428 15.1982 32.3825 15.0874 31.8839 14.8658C31.3896 14.6399 30.9975 14.3075 30.7077 13.8686C30.4222 13.4297 30.2795 12.8885 30.2795 12.245C30.2795 11.6911 30.3817 11.233 30.5863 10.8707C30.7908 10.5085 31.07 10.2188 31.4237 10.0014C31.7773 9.78409 32.1758 9.62003 32.619 9.50923C33.0664 9.39418 33.5288 9.31108 34.006 9.25994C34.5813 9.20028 35.0479 9.14702 35.4059 9.10014C35.7638 9.04901 36.0238 8.9723 36.1857 8.87003C36.3519 8.76349 36.435 8.59943 36.435 8.37784V8.33949C36.435 7.85795 36.2923 7.48509 36.0067 7.22088C35.7212 6.95668 35.31 6.82457 34.7731 6.82457C34.2063 6.82457 33.7567 6.94815 33.4244 7.19531C33.0962 7.44247 32.8746 7.73437 32.7596 8.07102L30.5991 7.7642C30.7695 7.16761 31.0508 6.66903 31.4428 6.26847C31.8349 5.86364 32.3143 5.56108 32.881 5.3608C33.4478 5.15625 34.0742 5.05398 34.7603 5.05398C35.2333 5.05398 35.7042 5.10938 36.1729 5.22017C36.6417 5.33097 37.07 5.5142 37.4577 5.76989C37.8455 6.02131 38.1566 6.36435 38.391 6.79901C38.6296 7.23366 38.7489 7.77699 38.7489 8.42898V15H36.5245V13.6513H36.4478C36.3072 13.924 36.109 14.1797 35.8533 14.4183C35.6019 14.6527 35.2844 14.8423 34.9009 14.9872C34.5217 15.1278 34.0763 15.1982 33.565 15.1982ZM34.1658 13.4979C34.6303 13.4979 35.033 13.4062 35.3739 13.223C35.7148 13.0355 35.9769 12.7884 36.1602 12.4815C36.3477 12.1747 36.4414 11.8402 36.4414 11.478V10.321C36.369 10.3807 36.2454 10.4361 36.0707 10.4872C35.9002 10.5384 35.7085 10.5831 35.4954 10.6214C35.2823 10.6598 35.0714 10.6939 34.8626 10.7237C34.6538 10.7536 34.4727 10.7791 34.3192 10.8004C33.9741 10.8473 33.6651 10.924 33.3924 11.0305C33.1197 11.1371 32.9045 11.2862 32.7468 11.478C32.5891 11.6655 32.5103 11.9084 32.5103 12.2067C32.5103 12.6328 32.6658 12.9545 32.9769 13.1719C33.288 13.3892 33.6843 13.4979 34.1658 13.4979ZM41.0756 15V5.18182H43.3896V15H41.0756ZM42.239 3.78835C41.8725 3.78835 41.5572 3.6669 41.293 3.42401C41.0288 3.17685 40.8967 2.88068 40.8967 2.53551C40.8967 2.18608 41.0288 1.88991 41.293 1.64702C41.5572 1.39986 41.8725 1.27628 42.239 1.27628C42.6097 1.27628 42.9251 1.39986 43.185 1.64702C43.4492 1.88991 43.5813 2.18608 43.5813 2.53551C43.5813 2.88068 43.4492 3.17685 43.185 3.42401C42.9251 3.6669 42.6097 3.78835 42.239 3.78835ZM48.0829 1.90909V15H45.769V1.90909H48.0829ZM58.2223 7.77699L56.1129 8.0071C56.0533 7.79403 55.9489 7.59375 55.7997 7.40625C55.6548 7.21875 55.4588 7.06747 55.2116 6.95241C54.9645 6.83736 54.6619 6.77983 54.304 6.77983C53.8224 6.77983 53.4176 6.88423 53.0895 7.09304C52.7656 7.30185 52.6058 7.57244 52.6101 7.90483C52.6058 8.19034 52.7102 8.42259 52.9233 8.60156C53.1406 8.78054 53.4986 8.92756 53.9972 9.04261L55.6719 9.40057C56.6009 9.60085 57.2912 9.91832 57.7429 10.353C58.1989 10.7876 58.429 11.3565 58.4332 12.0597C58.429 12.6776 58.2479 13.223 57.8899 13.696C57.5362 14.1648 57.044 14.5312 56.4134 14.7955C55.7827 15.0597 55.0582 15.1918 54.2401 15.1918C53.0384 15.1918 52.071 14.9403 51.3381 14.4375C50.6051 13.9304 50.1683 13.2251 50.0277 12.3217L52.2841 12.1044C52.3864 12.5476 52.6037 12.8821 52.9361 13.108C53.2685 13.3338 53.701 13.4467 54.2337 13.4467C54.7834 13.4467 55.2244 13.3338 55.5568 13.108C55.8935 12.8821 56.0618 12.603 56.0618 12.2706C56.0618 11.9893 55.9531 11.7571 55.7358 11.5739C55.5227 11.3906 55.1903 11.25 54.7386 11.152L53.0639 10.8004C52.1222 10.6044 51.4254 10.2741 50.9737 9.80966C50.522 9.34091 50.2983 8.74858 50.3026 8.03267C50.2983 7.42756 50.4624 6.90341 50.7947 6.46023C51.1314 6.01278 51.598 5.66761 52.1946 5.42472C52.7955 5.17756 53.4879 5.05398 54.272 5.05398C55.4226 5.05398 56.3281 5.29901 56.9886 5.78906C57.6534 6.27912 58.0646 6.94176 58.2223 7.77699ZM68.4496 15.1726C67.6783 15.1726 66.9879 14.9744 66.3786 14.5781C65.7692 14.1818 65.2876 13.6065 64.9339 12.8523C64.5803 12.098 64.4034 11.1818 64.4034 10.1037C64.4034 9.01278 64.5824 8.09233 64.9403 7.34233C65.3026 6.58807 65.7905 6.01918 66.4041 5.63565C67.0178 5.24787 67.7017 5.05398 68.456 5.05398C69.0313 5.05398 69.5043 5.15199 69.875 5.34801C70.2457 5.53977 70.5398 5.77202 70.7571 6.04474C70.9744 6.31321 71.1428 6.56676 71.2621 6.8054H71.358V1.90909H73.6783V15H71.4027V13.4531H71.2621C71.1428 13.6918 70.9702 13.9453 70.7443 14.2138C70.5185 14.478 70.2202 14.7038 69.8494 14.8913C69.4787 15.0788 69.0121 15.1726 68.4496 15.1726ZM69.0952 13.2741C69.5852 13.2741 70.0028 13.142 70.348 12.8778C70.6932 12.6094 70.9553 12.2365 71.1342 11.7592C71.3132 11.282 71.4027 10.7259 71.4027 10.0909C71.4027 9.45597 71.3132 8.90412 71.1342 8.43537C70.9595 7.96662 70.6996 7.60227 70.3544 7.34233C70.0135 7.08239 69.5938 6.95241 69.0952 6.95241C68.5795 6.95241 68.1491 7.08665 67.804 7.35511C67.4588 7.62358 67.1989 7.99432 67.0241 8.46733C66.8494 8.94034 66.7621 9.48153 66.7621 10.0909C66.7621 10.7045 66.8494 11.2521 67.0241 11.7337C67.2031 12.2109 67.4652 12.5881 67.8104 12.8651C68.1598 13.1378 68.5881 13.2741 69.0952 13.2741ZM80.4906 15.1918C79.5062 15.1918 78.6561 14.9872 77.9402 14.5781C77.2285 14.1648 76.6809 13.581 76.2974 12.8267C75.9139 12.0682 75.7221 11.1754 75.7221 10.1484C75.7221 9.13849 75.9139 8.25213 76.2974 7.48935C76.6852 6.7223 77.2264 6.12571 77.921 5.69957C78.6156 5.26918 79.4316 5.05398 80.3691 5.05398C80.9743 5.05398 81.5453 5.15199 82.0822 5.34801C82.6234 5.53977 83.1007 5.83807 83.514 6.2429C83.9316 6.64773 84.2598 7.16335 84.4984 7.78977C84.737 8.41193 84.8564 9.15341 84.8564 10.0142V10.7237H76.8088V9.16406H82.6383C82.6341 8.72088 82.5382 8.3267 82.3507 7.98153C82.1632 7.6321 81.9011 7.35724 81.5645 7.15696C81.2321 6.95668 80.8443 6.85653 80.4011 6.85653C79.9281 6.85653 79.5126 6.97159 79.1547 7.2017C78.7967 7.42756 78.5176 7.72585 78.3173 8.09659C78.1213 8.46307 78.0211 8.86577 78.0169 9.30469V10.6662C78.0169 11.2372 78.1213 11.7273 78.3301 12.1364C78.5389 12.5412 78.8308 12.8523 79.2058 13.0696C79.5808 13.2827 80.0197 13.3892 80.5226 13.3892C80.8592 13.3892 81.1639 13.3423 81.4366 13.2486C81.7093 13.1506 81.9458 13.0078 82.1461 12.8203C82.3464 12.6328 82.4977 12.4006 82.6 12.1236L84.7605 12.3665C84.6241 12.9375 84.3642 13.4361 83.9806 13.8622C83.6014 14.2841 83.1156 14.6122 82.5233 14.8466C81.9309 15.0767 81.2534 15.1918 80.4906 15.1918ZM100.049 5.18182L96.5522 15H93.9954L90.4989 5.18182H92.9663L95.2227 12.4751H95.3249L97.5877 5.18182H100.049ZM105.599 15.1918C104.64 15.1918 103.809 14.9808 103.106 14.5589C102.403 14.1371 101.857 13.5469 101.469 12.7884C101.086 12.0298 100.894 11.1435 100.894 10.1293C100.894 9.11506 101.086 8.22656 101.469 7.46378C101.857 6.70099 102.403 6.10866 103.106 5.68679C103.809 5.26491 104.64 5.05398 105.599 5.05398C106.557 5.05398 107.388 5.26491 108.091 5.68679C108.795 6.10866 109.338 6.70099 109.721 7.46378C110.109 8.22656 110.303 9.11506 110.303 10.1293C110.303 11.1435 110.109 12.0298 109.721 12.7884C109.338 13.5469 108.795 14.1371 108.091 14.5589C107.388 14.9808 106.557 15.1918 105.599 15.1918ZM105.611 13.3381C106.131 13.3381 106.566 13.1953 106.915 12.9098C107.265 12.62 107.525 12.2322 107.695 11.7464C107.87 11.2607 107.957 10.7195 107.957 10.1229C107.957 9.52202 107.87 8.97869 107.695 8.4929C107.525 8.00284 107.265 7.61293 106.915 7.32315C106.566 7.03338 106.131 6.88849 105.611 6.88849C105.079 6.88849 104.635 7.03338 104.282 7.32315C103.932 7.61293 103.67 8.00284 103.496 8.4929C103.325 8.97869 103.24 9.52202 103.24 10.1229C103.24 10.7195 103.325 11.2607 103.496 11.7464C103.67 12.2322 103.932 12.62 104.282 12.9098C104.635 13.1953 105.079 13.3381 105.611 13.3381ZM117.17 5.18182V6.97159H111.526V5.18182H117.17ZM112.919 2.82955H115.233V12.0469C115.233 12.358 115.28 12.5966 115.374 12.7628C115.472 12.9247 115.599 13.0355 115.757 13.0952C115.915 13.1548 116.089 13.1847 116.281 13.1847C116.426 13.1847 116.558 13.174 116.678 13.1527C116.801 13.1314 116.895 13.1122 116.959 13.0952L117.349 14.9041C117.225 14.9467 117.048 14.9936 116.818 15.0447C116.592 15.0959 116.315 15.1257 115.987 15.1342C115.408 15.1513 114.886 15.0639 114.421 14.8722C113.957 14.6761 113.588 14.3736 113.315 13.9645C113.047 13.5554 112.915 13.044 112.919 12.4304V2.82955ZM119.105 15V5.18182H121.349V6.81818H121.451C121.63 6.25142 121.937 5.81463 122.371 5.50781C122.81 5.19673 123.311 5.04119 123.873 5.04119C124.001 5.04119 124.144 5.04758 124.302 5.06037C124.464 5.06889 124.598 5.08381 124.704 5.10511V7.23366C124.606 7.19957 124.451 7.16974 124.238 7.14418C124.029 7.11435 123.827 7.09943 123.631 7.09943C123.209 7.09943 122.829 7.19105 122.493 7.37429C122.16 7.55327 121.898 7.80256 121.706 8.12216C121.515 8.44176 121.419 8.81037 121.419 9.22798V15H119.105ZM130.184 15.1918C129.2 15.1918 128.349 14.9872 127.634 14.5781C126.922 14.1648 126.374 13.581 125.991 12.8267C125.607 12.0682 125.415 11.1754 125.415 10.1484C125.415 9.13849 125.607 8.25213 125.991 7.48935C126.379 6.7223 126.92 6.12571 127.614 5.69957C128.309 5.26918 129.125 5.05398 130.062 5.05398C130.668 5.05398 131.239 5.15199 131.776 5.34801C132.317 5.53977 132.794 5.83807 133.207 6.2429C133.625 6.64773 133.953 7.16335 134.192 7.78977C134.43 8.41193 134.55 9.15341 134.55 10.0142V10.7237H126.502V9.16406H132.332C132.327 8.72088 132.232 8.3267 132.044 7.98153C131.857 7.6321 131.594 7.35724 131.258 7.15696C130.925 6.95668 130.538 6.85653 130.094 6.85653C129.621 6.85653 129.206 6.97159 128.848 7.2017C128.49 7.42756 128.211 7.72585 128.011 8.09659C127.815 8.46307 127.714 8.86577 127.71 9.30469V10.6662C127.71 11.2372 127.815 11.7273 128.023 12.1364C128.232 12.5412 128.524 12.8523 128.899 13.0696C129.274 13.2827 129.713 13.3892 130.216 13.3892C130.553 13.3892 130.857 13.3423 131.13 13.2486C131.403 13.1506 131.639 13.0078 131.839 12.8203C132.04 12.6328 132.191 12.4006 132.293 12.1236L134.454 12.3665C134.317 12.9375 134.058 13.4361 133.674 13.8622C133.295 14.2841 132.809 14.6122 132.217 14.8466C131.624 15.0767 130.947 15.1918 130.184 15.1918ZM145.875 5.18182V6.97159H140.231V5.18182H145.875ZM141.624 2.82955H143.938V12.0469C143.938 12.358 143.985 12.5966 144.079 12.7628C144.177 12.9247 144.305 13.0355 144.462 13.0952C144.62 13.1548 144.795 13.1847 144.986 13.1847C145.131 13.1847 145.263 13.174 145.383 13.1527C145.506 13.1314 145.6 13.1122 145.664 13.0952L146.054 14.9041C145.93 14.9467 145.753 14.9936 145.523 15.0447C145.297 15.0959 145.02 15.1257 144.692 15.1342C144.113 15.1513 143.591 15.0639 143.126 14.8722C142.662 14.6761 142.293 14.3736 142.02 13.9645C141.752 13.5554 141.62 13.044 141.624 12.4304V2.82955ZM147.81 15V5.18182H150.054V6.81818H150.156C150.335 6.25142 150.642 5.81463 151.076 5.50781C151.515 5.19673 152.016 5.04119 152.578 5.04119C152.706 5.04119 152.849 5.04758 153.007 5.06037C153.169 5.06889 153.303 5.08381 153.409 5.10511V7.23366C153.311 7.19957 153.156 7.16974 152.943 7.14418C152.734 7.11435 152.532 7.09943 152.336 7.09943C151.914 7.09943 151.534 7.19105 151.198 7.37429C150.865 7.55327 150.603 7.80256 150.412 8.12216C150.22 8.44176 150.124 8.81037 150.124 9.22798V15H147.81ZM157.596 15.1982C156.974 15.1982 156.414 15.0874 155.915 14.8658C155.421 14.6399 155.029 14.3075 154.739 13.8686C154.453 13.4297 154.311 12.8885 154.311 12.245C154.311 11.6911 154.413 11.233 154.618 10.8707C154.822 10.5085 155.101 10.2188 155.455 10.0014C155.809 9.78409 156.207 9.62003 156.65 9.50923C157.098 9.39418 157.56 9.31108 158.037 9.25994C158.613 9.20028 159.079 9.14702 159.437 9.10014C159.795 9.04901 160.055 8.9723 160.217 8.87003C160.383 8.76349 160.466 8.59943 160.466 8.37784V8.33949C160.466 7.85795 160.324 7.48509 160.038 7.22088C159.752 6.95668 159.341 6.82457 158.804 6.82457C158.238 6.82457 157.788 6.94815 157.456 7.19531C157.127 7.44247 156.906 7.73437 156.791 8.07102L154.63 7.7642C154.801 7.16761 155.082 6.66903 155.474 6.26847C155.866 5.86364 156.346 5.56108 156.912 5.3608C157.479 5.15625 158.105 5.05398 158.792 5.05398C159.265 5.05398 159.735 5.10938 160.204 5.22017C160.673 5.33097 161.101 5.5142 161.489 5.76989C161.877 6.02131 162.188 6.36435 162.422 6.79901C162.661 7.23366 162.78 7.77699 162.78 8.42898V15H160.556V13.6513H160.479C160.338 13.924 160.14 14.1797 159.885 14.4183C159.633 14.6527 159.316 14.8423 158.932 14.9872C158.553 15.1278 158.108 15.1982 157.596 15.1982ZM158.197 13.4979C158.662 13.4979 159.064 13.4062 159.405 13.223C159.746 13.0355 160.008 12.7884 160.191 12.4815C160.379 12.1747 160.473 11.8402 160.473 11.478V10.321C160.4 10.3807 160.277 10.4361 160.102 10.4872C159.931 10.5384 159.74 10.5831 159.527 10.6214C159.314 10.6598 159.103 10.6939 158.894 10.7237C158.685 10.7536 158.504 10.7791 158.35 10.8004C158.005 10.8473 157.696 10.924 157.424 11.0305C157.151 11.1371 156.936 11.2862 156.778 11.478C156.62 11.6655 156.542 11.9084 156.542 12.2067C156.542 12.6328 156.697 12.9545 157.008 13.1719C157.319 13.3892 157.716 13.4979 158.197 13.4979ZM167.421 9.24716V15H165.107V5.18182H167.319V6.85014H167.434C167.659 6.30043 168.02 5.86364 168.514 5.53977C169.012 5.21591 169.628 5.05398 170.361 5.05398C171.039 5.05398 171.629 5.19886 172.132 5.48864C172.639 5.77841 173.031 6.19815 173.308 6.74787C173.589 7.29758 173.728 7.96449 173.723 8.74858V15H171.409V9.10653C171.409 8.45028 171.239 7.93679 170.898 7.56605C170.561 7.19531 170.095 7.00994 169.498 7.00994C169.093 7.00994 168.733 7.09943 168.418 7.27841C168.107 7.45312 167.862 7.70668 167.683 8.03906C167.508 8.37145 167.421 8.77415 167.421 9.24716ZM183.836 7.77699L181.726 8.0071C181.667 7.79403 181.562 7.59375 181.413 7.40625C181.268 7.21875 181.072 7.06747 180.825 6.95241C180.578 6.83736 180.275 6.77983 179.917 6.77983C179.436 6.77983 179.031 6.88423 178.703 7.09304C178.379 7.30185 178.219 7.57244 178.223 7.90483C178.219 8.19034 178.324 8.42259 178.537 8.60156C178.754 8.78054 179.112 8.92756 179.61 9.04261L181.285 9.40057C182.214 9.60085 182.904 9.91832 183.356 10.353C183.812 10.7876 184.042 11.3565 184.047 12.0597C184.042 12.6776 183.861 13.223 183.503 13.696C183.15 14.1648 182.657 14.5312 182.027 14.7955C181.396 15.0597 180.672 15.1918 179.853 15.1918C178.652 15.1918 177.684 14.9403 176.951 14.4375C176.218 13.9304 175.782 13.2251 175.641 12.3217L177.897 12.1044C178 12.5476 178.217 12.8821 178.549 13.108C178.882 13.3338 179.314 13.4467 179.847 13.4467C180.397 13.4467 180.838 13.3338 181.17 13.108C181.507 12.8821 181.675 12.603 181.675 12.2706C181.675 11.9893 181.566 11.7571 181.349 11.5739C181.136 11.3906 180.804 11.25 180.352 11.152L178.677 10.8004C177.735 10.6044 177.039 10.2741 176.587 9.80966C176.135 9.34091 175.912 8.74858 175.916 8.03267C175.912 7.42756 176.076 6.90341 176.408 6.46023C176.745 6.01278 177.211 5.66761 177.808 5.42472C178.409 5.17756 179.101 5.05398 179.885 5.05398C181.036 5.05398 181.941 5.29901 182.602 5.78906C183.267 6.27912 183.678 6.94176 183.836 7.77699ZM188.78 15.1982C188.158 15.1982 187.597 15.0874 187.099 14.8658C186.604 14.6399 186.212 14.3075 185.923 13.8686C185.637 13.4297 185.494 12.8885 185.494 12.245C185.494 11.6911 185.597 11.233 185.801 10.8707C186.006 10.5085 186.285 10.2188 186.638 10.0014C186.992 9.78409 187.391 9.62003 187.834 9.50923C188.281 9.39418 188.744 9.31108 189.221 9.25994C189.796 9.20028 190.263 9.14702 190.621 9.10014C190.979 9.04901 191.239 8.9723 191.401 8.87003C191.567 8.76349 191.65 8.59943 191.65 8.37784V8.33949C191.65 7.85795 191.507 7.48509 191.222 7.22088C190.936 6.95668 190.525 6.82457 189.988 6.82457C189.421 6.82457 188.972 6.94815 188.639 7.19531C188.311 7.44247 188.089 7.73437 187.974 8.07102L185.814 7.7642C185.984 7.16761 186.266 6.66903 186.658 6.26847C187.05 5.86364 187.529 5.56108 188.096 5.3608C188.663 5.15625 189.289 5.05398 189.975 5.05398C190.448 5.05398 190.919 5.10938 191.388 5.22017C191.857 5.33097 192.285 5.5142 192.673 5.76989C193.06 6.02131 193.371 6.36435 193.606 6.79901C193.844 7.23366 193.964 7.77699 193.964 8.42898V15H191.739V13.6513H191.663C191.522 13.924 191.324 14.1797 191.068 14.4183C190.817 14.6527 190.499 14.8423 190.116 14.9872C189.737 15.1278 189.291 15.1982 188.78 15.1982ZM189.381 13.4979C189.845 13.4979 190.248 13.4062 190.589 13.223C190.93 13.0355 191.192 12.7884 191.375 12.4815C191.562 12.1747 191.656 11.8402 191.656 11.478V10.321C191.584 10.3807 191.46 10.4361 191.286 10.4872C191.115 10.5384 190.923 10.5831 190.71 10.6214C190.497 10.6598 190.286 10.6939 190.077 10.7237C189.869 10.7536 189.688 10.7791 189.534 10.8004C189.189 10.8473 188.88 10.924 188.607 11.0305C188.335 11.1371 188.119 11.2862 187.962 11.478C187.804 11.6655 187.725 11.9084 187.725 12.2067C187.725 12.6328 187.881 12.9545 188.192 13.1719C188.503 13.3892 188.899 13.4979 189.381 13.4979ZM200.573 15.1918C199.593 15.1918 198.751 14.9766 198.048 14.5462C197.349 14.1158 196.81 13.5213 196.431 12.7628C196.056 12 195.869 11.1222 195.869 10.1293C195.869 9.1321 196.06 8.25213 196.444 7.48935C196.827 6.7223 197.369 6.12571 198.067 5.69957C198.771 5.26918 199.602 5.05398 200.56 5.05398C201.357 5.05398 202.063 5.20099 202.676 5.49503C203.294 5.7848 203.786 6.19602 204.153 6.72869C204.519 7.2571 204.728 7.875 204.779 8.58239H202.567C202.478 8.10937 202.265 7.7152 201.928 7.39986C201.596 7.08026 201.151 6.92045 200.592 6.92045C200.119 6.92045 199.704 7.0483 199.346 7.30398C198.988 7.5554 198.709 7.91761 198.509 8.39062C198.313 8.86364 198.214 9.4304 198.214 10.0909C198.214 10.7599 198.313 11.3352 198.509 11.8168C198.705 12.294 198.979 12.6626 199.333 12.9226C199.691 13.1783 200.111 13.3061 200.592 13.3061C200.933 13.3061 201.238 13.2422 201.506 13.1143C201.779 12.9822 202.007 12.7926 202.19 12.5455C202.374 12.2983 202.499 11.9979 202.567 11.6442H204.779C204.724 12.3388 204.519 12.9545 204.165 13.4915C203.812 14.0241 203.33 14.4418 202.721 14.7443C202.112 15.0426 201.396 15.1918 200.573 15.1918ZM211.582 5.18182V6.97159H205.938V5.18182H211.582ZM207.331 2.82955H209.645V12.0469C209.645 12.358 209.692 12.5966 209.786 12.7628C209.884 12.9247 210.012 13.0355 210.169 13.0952C210.327 13.1548 210.502 13.1847 210.693 13.1847C210.838 13.1847 210.97 13.174 211.09 13.1527C211.213 13.1314 211.307 13.1122 211.371 13.0952L211.761 14.9041C211.637 14.9467 211.46 14.9936 211.23 15.0447C211.004 15.0959 210.727 15.1257 210.399 15.1342C209.82 15.1513 209.298 15.0639 208.833 14.8722C208.369 14.6761 208 14.3736 207.727 13.9645C207.459 13.5554 207.327 13.044 207.331 12.4304V2.82955ZM213.517 15V5.18182H215.831V15H213.517ZM214.68 3.78835C214.314 3.78835 213.999 3.6669 213.734 3.42401C213.47 3.17685 213.338 2.88068 213.338 2.53551C213.338 2.18608 213.47 1.88991 213.734 1.64702C213.999 1.39986 214.314 1.27628 214.68 1.27628C215.051 1.27628 215.366 1.39986 215.626 1.64702C215.891 1.88991 216.023 2.18608 216.023 2.53551C216.023 2.88068 215.891 3.17685 215.626 3.42401C215.366 3.6669 215.051 3.78835 214.68 3.78835ZM222.493 15.1918C221.534 15.1918 220.703 14.9808 220 14.5589C219.297 14.1371 218.752 13.5469 218.364 12.7884C217.98 12.0298 217.789 11.1435 217.789 10.1293C217.789 9.11506 217.98 8.22656 218.364 7.46378C218.752 6.70099 219.297 6.10866 220 5.68679C220.703 5.26491 221.534 5.05398 222.493 5.05398C223.452 5.05398 224.283 5.26491 224.986 5.68679C225.689 6.10866 226.232 6.70099 226.616 7.46378C227.004 8.22656 227.198 9.11506 227.198 10.1293C227.198 11.1435 227.004 12.0298 226.616 12.7884C226.232 13.5469 225.689 14.1371 224.986 14.5589C224.283 14.9808 223.452 15.1918 222.493 15.1918ZM222.506 13.3381C223.026 13.3381 223.46 13.1953 223.81 12.9098C224.159 12.62 224.419 12.2322 224.59 11.7464C224.764 11.2607 224.852 10.7195 224.852 10.1229C224.852 9.52202 224.764 8.97869 224.59 8.4929C224.419 8.00284 224.159 7.61293 223.81 7.32315C223.46 7.03338 223.026 6.88849 222.506 6.88849C221.973 6.88849 221.53 7.03338 221.176 7.32315C220.827 7.61293 220.565 8.00284 220.39 8.4929C220.22 8.97869 220.134 9.52202 220.134 10.1229C220.134 10.7195 220.22 11.2607 220.39 11.7464C220.565 12.2322 220.827 12.62 221.176 12.9098C221.53 13.1953 221.973 13.3381 222.506 13.3381ZM231.475 9.24716V15H229.162V5.18182H231.373V6.85014H231.488C231.714 6.30043 232.074 5.86364 232.569 5.53977C233.067 5.21591 233.683 5.05398 234.416 5.05398C235.093 5.05398 235.684 5.19886 236.186 5.48864C236.694 5.77841 237.086 6.19815 237.363 6.74787C237.644 7.29758 237.782 7.96449 237.778 8.74858V15H235.464V9.10653C235.464 8.45028 235.294 7.93679 234.953 7.56605C234.616 7.19531 234.15 7.00994 233.553 7.00994C233.148 7.00994 232.788 7.09943 232.473 7.27841C232.162 7.45312 231.917 7.70668 231.738 8.03906C231.563 8.37145 231.475 8.77415 231.475 9.24716Z" fill="white"/>
</svg>
