<svg width="20" height="20" viewBox="0 0 20 20" fill="none" xmlns="http://www.w3.org/2000/svg">
<path d="M2.879 7.121C3.19313 7.43531 3.57316 7.67591 3.99163 7.82541C4.4101 7.97491 4.85656 8.02958 5.29874 7.98547C5.74092 7.94136 6.16777 7.79956 6.54846 7.57034C6.92915 7.34111 7.25416 7.03017 7.5 6.66C7.77365 7.07243 8.14519 7.41066 8.58144 7.64448C9.01768 7.87831 9.50504 8.00045 10 8C10.495 8.00045 10.9823 7.87831 11.4186 7.64448C11.8548 7.41066 12.2263 7.07243 12.5 6.66C12.732 7.00876 13.0344 7.30509 13.3878 7.52989C13.7413 7.75469 14.1379 7.90299 14.5521 7.96524C14.9663 8.02749 15.3889 8.00232 15.7928 7.89133C16.1967 7.78034 16.5729 7.58601 16.8971 7.32083C17.2214 7.05566 17.4865 6.72553 17.6754 6.35169C17.8644 5.97785 17.9729 5.5686 17.9941 5.15027C18.0153 4.73194 17.9486 4.31381 17.7984 3.9228C17.6482 3.53179 17.4178 3.17657 17.122 2.88L16.829 2.587C16.6434 2.40109 16.423 2.25356 16.1804 2.15284C15.9378 2.05212 15.6777 2.00019 15.415 2H4.585C4.05461 2.00011 3.54599 2.2109 3.171 2.586L2.879 2.878C2.60037 3.15658 2.37935 3.48732 2.22855 3.85133C2.07775 4.21534 2.00014 4.60549 2.00014 4.9995C2.00014 5.39351 2.07775 5.78366 2.22855 6.14767C2.37935 6.51168 2.60037 6.84242 2.879 7.121ZM3 9.032C3.70948 9.3831 4.49891 9.54116 5.28888 9.49025C6.07884 9.43934 6.84146 9.18127 7.5 8.742C8.23952 9.23742 9.10987 9.50131 10 9.5C10.8901 9.50131 11.7605 9.23742 12.5 8.742C13.1585 9.18127 13.9212 9.43934 14.7111 9.49025C15.5011 9.54116 16.2905 9.3831 17 9.032V16.5H17.25C17.4489 16.5 17.6397 16.579 17.7803 16.7197C17.921 16.8603 18 17.0511 18 17.25C18 17.4489 17.921 17.6397 17.7803 17.7803C17.6397 17.921 17.4489 18 17.25 18H12.75C12.5511 18 12.3603 17.921 12.2197 17.7803C12.079 17.6397 12 17.4489 12 17.25V13.75C12 13.5511 11.921 13.3603 11.7803 13.2197C11.6397 13.079 11.4489 13 11.25 13H8.75C8.55109 13 8.36032 13.079 8.21967 13.2197C8.07902 13.3603 8 13.5511 8 13.75V17.25C8 17.4489 7.92098 17.6397 7.78033 17.7803C7.63968 17.921 7.44891 18 7.25 18H2.75C2.55109 18 2.36032 17.921 2.21967 17.7803C2.07902 17.6397 2 17.4489 2 17.25C2 17.0511 2.07902 16.8603 2.21967 16.7197C2.36032 16.579 2.55109 16.5 2.75 16.5H3V9.032Z" fill="white" fill-opacity="0.8"/>
</svg>
