<svg width="26" height="19" viewBox="0 0 26 19" fill="none" xmlns="http://www.w3.org/2000/svg">
<rect width="26" height="18.3529" rx="4" fill="#252525"/>
<path fill-rule="evenodd" clip-rule="evenodd" d="M13.1369 12.8695C12.2314 13.6328 11.0569 14.0935 9.77346 14.0935C6.90973 14.0935 4.58823 11.7996 4.58823 8.96996C4.58823 6.14032 6.90973 3.84644 9.77346 3.84644C11.0569 3.84644 12.2314 4.30717 13.1369 5.07038C14.0423 4.30717 15.2168 3.84644 16.5003 3.84644C19.364 3.84644 21.6855 6.14032 21.6855 8.96996C21.6855 11.7996 19.364 14.0935 16.5003 14.0935C15.2168 14.0935 14.0423 13.6328 13.1369 12.8695Z" fill="#ED0006"/>
<path fill-rule="evenodd" clip-rule="evenodd" d="M13.1368 12.8695C14.2517 11.9298 14.9587 10.5315 14.9587 8.96996C14.9587 7.40847 14.2517 6.01012 13.1368 5.07038C14.0423 4.30717 15.2168 3.84644 16.5002 3.84644C19.364 3.84644 21.6855 6.14032 21.6855 8.96996C21.6855 11.7996 19.364 14.0935 16.5002 14.0935C15.2168 14.0935 14.0423 13.6328 13.1368 12.8695Z" fill="#F9A000"/>
<path fill-rule="evenodd" clip-rule="evenodd" d="M13.1369 12.8695C14.2518 11.9298 14.9587 10.5315 14.9587 8.96997C14.9587 7.40849 14.2518 6.01015 13.1369 5.0704C12.022 6.01015 11.3151 7.40849 11.3151 8.96997C11.3151 10.5315 12.022 11.9298 13.1369 12.8695Z" fill="#FF5E00"/>
</svg>
