<svg width="26" height="19" viewBox="0 0 26 19" fill="none" xmlns="http://www.w3.org/2000/svg">
<rect x="0.5" y="0.5" width="25" height="17.3529" rx="3.5" fill="white"/>
<rect x="0.5" y="0.5" width="25" height="17.3529" rx="3.5" stroke="#CCCCCC"/>
<path fill-rule="evenodd" clip-rule="evenodd" d="M8.22079 12.1269H6.64569L5.46456 7.48829C5.4085 7.27491 5.28946 7.08628 5.11437 6.99737C4.6774 6.77395 4.19588 6.59613 3.67059 6.50645V6.32787H6.20795C6.55814 6.32787 6.82079 6.59613 6.86456 6.90769L7.4774 10.2537L9.05172 6.32787H10.583L8.22079 12.1269ZM11.4585 12.1269H9.97098L11.1959 6.32787H12.6834L11.4585 12.1269ZM14.608 7.93437C14.6517 7.62204 14.9144 7.44345 15.2208 7.44345C15.7023 7.39861 16.2268 7.48829 16.6646 7.71095L16.9272 6.46239C16.4895 6.2838 16.008 6.19412 15.571 6.19412C14.1272 6.19412 13.0766 6.99737 13.0766 8.11219C13.0766 8.96028 13.8208 9.40558 14.3461 9.67385C14.9144 9.94134 15.1332 10.1199 15.0895 10.3874C15.0895 10.7887 14.6517 10.9672 14.2148 10.9672C13.6895 10.9672 13.1642 10.8335 12.6834 10.6101L12.4208 11.8594C12.9461 12.0821 13.5144 12.1717 14.0397 12.1717C15.6585 12.2158 16.6646 11.4133 16.6646 10.2088C16.6646 8.69201 14.608 8.60311 14.608 7.93437ZM21.8706 12.1269L20.6895 6.32787H19.4208C19.1581 6.32787 18.8955 6.50645 18.808 6.77395L16.6208 12.1269H18.1521L18.4578 11.2796H20.3393L20.5144 12.1269H21.8706ZM19.6397 7.88954L20.0766 10.0751H18.8517L19.6397 7.88954Z" fill="#1434CB"/>
</svg>
