<svg width="92" height="24" viewBox="0 0 92 24" fill="none" xmlns="http://www.w3.org/2000/svg">
<path d="M33.7727 9.27273C33.7045 8.69697 33.428 8.25 32.9432 7.93182C32.4583 7.61364 31.8636 7.45455 31.1591 7.45455C30.6439 7.45455 30.1932 7.53788 29.8068 7.70455C29.4242 7.87121 29.125 8.10038 28.9091 8.39205C28.697 8.68371 28.5909 9.01515 28.5909 9.38636C28.5909 9.69697 28.6648 9.96401 28.8125 10.1875C28.964 10.4072 29.1572 10.5909 29.392 10.7386C29.6269 10.8826 29.8731 11.0019 30.1307 11.0966C30.3883 11.1875 30.625 11.2614 30.8409 11.3182L32.0227 11.6364C32.3258 11.7159 32.6629 11.8258 33.0341 11.9659C33.4091 12.1061 33.767 12.2973 34.108 12.5398C34.4527 12.7784 34.7367 13.0852 34.9602 13.4602C35.1837 13.8352 35.2955 14.2955 35.2955 14.8409C35.2955 15.4697 35.1307 16.0379 34.8011 16.5455C34.4754 17.053 33.9981 17.4564 33.3693 17.7557C32.7443 18.0549 31.9848 18.2045 31.0909 18.2045C30.2576 18.2045 29.536 18.0701 28.9261 17.8011C28.3201 17.5322 27.8428 17.1572 27.4943 16.6761C27.1496 16.1951 26.9545 15.6364 26.9091 15H28.3636C28.4015 15.4394 28.5492 15.803 28.8068 16.0909C29.0682 16.375 29.3977 16.5871 29.7955 16.7273C30.197 16.8636 30.6288 16.9318 31.0909 16.9318C31.6288 16.9318 32.1117 16.8447 32.5398 16.6705C32.9678 16.4924 33.3068 16.2462 33.5568 15.9318C33.8068 15.6136 33.9318 15.2424 33.9318 14.8182C33.9318 14.4318 33.8239 14.1174 33.608 13.875C33.392 13.6326 33.108 13.4356 32.7557 13.2841C32.4034 13.1326 32.0227 13 31.6136 12.8864L30.1818 12.4773C29.2727 12.2159 28.553 11.8428 28.0227 11.358C27.4924 10.8731 27.2273 10.2386 27.2273 9.45455C27.2273 8.80303 27.4034 8.23485 27.7557 7.75C28.1117 7.26136 28.589 6.88258 29.1875 6.61364C29.7898 6.34091 30.4621 6.20455 31.2045 6.20455C31.9545 6.20455 32.6212 6.33901 33.2045 6.60795C33.7879 6.87311 34.25 7.23674 34.5909 7.69886C34.9356 8.16098 35.1174 8.68561 35.1364 9.27273H33.7727ZM37.4304 18V9.27273H38.7713V18H37.4304ZM38.1122 7.81818C37.8509 7.81818 37.6255 7.72917 37.4361 7.55114C37.2505 7.37311 37.1577 7.15909 37.1577 6.90909C37.1577 6.65909 37.2505 6.44508 37.4361 6.26705C37.6255 6.08902 37.8509 6 38.1122 6C38.3736 6 38.5971 6.08902 38.7827 6.26705C38.9721 6.44508 39.0668 6.65909 39.0668 6.90909C39.0668 7.15909 38.9721 7.37311 38.7827 7.55114C38.5971 7.72917 38.3736 7.81818 38.1122 7.81818ZM45.0227 9.27273V10.4091H40.5V9.27273H45.0227ZM41.8182 7.18182H43.1591V15.5C43.1591 15.8788 43.214 16.1629 43.3239 16.3523C43.4375 16.5379 43.5814 16.6629 43.7557 16.7273C43.9337 16.7879 44.1212 16.8182 44.3182 16.8182C44.4659 16.8182 44.5871 16.8106 44.6818 16.7955C44.7765 16.7765 44.8523 16.7614 44.9091 16.75L45.1818 17.9545C45.0909 17.9886 44.964 18.0227 44.8011 18.0568C44.6383 18.0947 44.4318 18.1136 44.1818 18.1136C43.803 18.1136 43.4318 18.0322 43.0682 17.8693C42.7083 17.7064 42.4091 17.4583 42.1705 17.125C41.9356 16.7917 41.8182 16.3712 41.8182 15.8636V7.18182ZM50.6051 18.1818C49.7642 18.1818 49.0388 17.9962 48.429 17.625C47.8229 17.25 47.3551 16.7273 47.0256 16.0568C46.6998 15.3826 46.5369 14.5985 46.5369 13.7045C46.5369 12.8106 46.6998 12.0227 47.0256 11.3409C47.3551 10.6553 47.8134 10.1212 48.4006 9.73864C48.9915 9.35227 49.6809 9.15909 50.4688 9.15909C50.9233 9.15909 51.3722 9.23485 51.8153 9.38636C52.2585 9.53788 52.6619 9.78409 53.0256 10.125C53.3892 10.4621 53.679 10.9091 53.8949 11.4659C54.1108 12.0227 54.2188 12.7083 54.2188 13.5227V14.0909H47.4915V12.9318H52.8551C52.8551 12.4394 52.7566 12 52.5597 11.6136C52.3665 11.2273 52.09 10.9223 51.7301 10.6989C51.3741 10.4754 50.9536 10.3636 50.4688 10.3636C49.9347 10.3636 49.4725 10.4962 49.0824 10.7614C48.696 11.0227 48.3987 11.3636 48.1903 11.7841C47.982 12.2045 47.8778 12.6553 47.8778 13.1364V13.9091C47.8778 14.5682 47.9915 15.1269 48.2188 15.5852C48.4498 16.0398 48.7699 16.3864 49.179 16.625C49.5881 16.8598 50.0634 16.9773 50.6051 16.9773C50.9574 16.9773 51.2756 16.928 51.5597 16.8295C51.8475 16.7273 52.0956 16.5758 52.304 16.375C52.5123 16.1705 52.6733 15.9167 52.7869 15.6136L54.0824 15.9773C53.946 16.4167 53.7169 16.803 53.3949 17.1364C53.0729 17.4659 52.6752 17.7235 52.2017 17.9091C51.7282 18.0909 51.196 18.1818 50.6051 18.1818ZM62.7358 18L60.0767 9.27273H61.4858L63.3722 15.9545H63.4631L65.3267 9.27273H66.7585L68.5994 15.9318H68.6903L70.5767 9.27273H71.9858L69.3267 18H68.0085L66.0994 11.2955H65.9631L64.054 18H62.7358ZM77.1207 18.1818C76.2798 18.1818 75.5545 17.9962 74.9446 17.625C74.3385 17.25 73.8707 16.7273 73.5412 16.0568C73.2154 15.3826 73.0526 14.5985 73.0526 13.7045C73.0526 12.8106 73.2154 12.0227 73.5412 11.3409C73.8707 10.6553 74.3291 10.1212 74.9162 9.73864C75.5071 9.35227 76.1965 9.15909 76.9844 9.15909C77.4389 9.15909 77.8878 9.23485 78.331 9.38636C78.7741 9.53788 79.1776 9.78409 79.5412 10.125C79.9048 10.4621 80.1946 10.9091 80.4105 11.4659C80.6264 12.0227 80.7344 12.7083 80.7344 13.5227V14.0909H74.0071V12.9318H79.3707C79.3707 12.4394 79.2723 12 79.0753 11.6136C78.8821 11.2273 78.6056 10.9223 78.2457 10.6989C77.8897 10.4754 77.4692 10.3636 76.9844 10.3636C76.4503 10.3636 75.9882 10.4962 75.598 10.7614C75.2116 11.0227 74.9143 11.3636 74.706 11.7841C74.4976 12.2045 74.3935 12.6553 74.3935 13.1364V13.9091C74.3935 14.5682 74.5071 15.1269 74.7344 15.5852C74.9654 16.0398 75.2855 16.3864 75.6946 16.625C76.1037 16.8598 76.5791 16.9773 77.1207 16.9773C77.473 16.9773 77.7912 16.928 78.0753 16.8295C78.3632 16.7273 78.6113 16.5758 78.8196 16.375C79.0279 16.1705 79.1889 15.9167 79.3026 15.6136L80.598 15.9773C80.4616 16.4167 80.2325 16.803 79.9105 17.1364C79.5885 17.4659 79.1908 17.7235 78.7173 17.9091C78.2438 18.0909 77.7116 18.1818 77.1207 18.1818ZM82.956 18V6.36364H84.2969V10.6591H84.4105C84.509 10.5076 84.6454 10.3144 84.8196 10.0795C84.9976 9.84091 85.2514 9.62879 85.581 9.44318C85.9143 9.25379 86.3651 9.15909 86.9332 9.15909C87.6681 9.15909 88.3158 9.3428 88.8764 9.71023C89.437 10.0777 89.8745 10.5985 90.1889 11.2727C90.5033 11.947 90.6605 12.7424 90.6605 13.6591C90.6605 14.5833 90.5033 15.3845 90.1889 16.0625C89.8745 16.7367 89.4389 17.2595 88.8821 17.6307C88.3253 17.9981 87.6832 18.1818 86.956 18.1818C86.3954 18.1818 85.9465 18.089 85.6094 17.9034C85.2723 17.714 85.0128 17.5 84.831 17.2614C84.6491 17.0189 84.509 16.8182 84.4105 16.6591H84.2514V18H82.956ZM84.2741 13.6364C84.2741 14.2955 84.3707 14.8769 84.5639 15.3807C84.7571 15.8807 85.0393 16.2727 85.4105 16.5568C85.7817 16.8371 86.2363 16.9773 86.7741 16.9773C87.3348 16.9773 87.8026 16.8295 88.1776 16.5341C88.5563 16.2348 88.8404 15.8333 89.0298 15.3295C89.223 14.822 89.3196 14.2576 89.3196 13.6364C89.3196 13.0227 89.2249 12.4697 89.0355 11.9773C88.8499 11.4811 88.5677 11.089 88.1889 10.8011C87.8139 10.5095 87.3423 10.3636 86.7741 10.3636C86.2287 10.3636 85.7704 10.5019 85.3991 10.7784C85.0279 11.0511 84.7476 11.4337 84.5582 11.9261C84.3688 12.4148 84.2741 12.9848 84.2741 13.6364Z" fill="white" fill-opacity="0.8"/>
<path fill-rule="evenodd" clip-rule="evenodd" d="M18 12C18 14.1217 17.1571 16.1566 15.6569 17.6569C14.1566 19.1571 12.1217 20 10 20C7.87827 20 5.84344 19.1571 4.34315 17.6569C2.84285 16.1566 2 14.1217 2 12C2 9.87827 2.84285 7.84344 4.34315 6.34315C5.84344 4.84285 7.87827 4 10 4C12.1217 4 14.1566 4.84285 15.6569 6.34315C17.1571 7.84344 18 9.87827 18 12ZM16.497 12.204C16.4594 13.3915 16.097 14.5461 15.4492 15.5421C14.8014 16.5381 13.893 17.3375 12.8227 17.8534C11.7524 18.3693 10.5612 18.582 9.37848 18.4684C8.19579 18.3547 7.06687 17.9191 6.11442 17.2088C5.16197 16.4985 4.42242 15.5407 3.97616 14.4395C3.5299 13.3384 3.394 12.136 3.58322 10.963C3.77244 9.79003 4.27955 8.69135 5.04943 7.78638C5.81931 6.88141 6.82251 6.20477 7.95 5.83L6.927 7.62C6.77282 7.89063 6.70968 8.20365 6.7469 8.51288C6.78412 8.82212 6.91973 9.11121 7.13372 9.33753C7.34771 9.56385 7.62877 9.71541 7.93544 9.76987C8.24211 9.82433 8.55817 9.7788 8.837 9.64L9.012 9.553C9.08153 9.51815 9.15823 9.50001 9.236 9.5H9.382C9.46726 9.5 9.55111 9.52181 9.62557 9.56335C9.70003 9.60489 9.76264 9.66478 9.80743 9.73733C9.85222 9.80988 9.87772 9.89268 9.88149 9.97786C9.88527 10.063 9.8672 10.1478 9.829 10.224L9.801 10.279C9.76782 10.3453 9.71687 10.4011 9.65383 10.4401C9.59079 10.4791 9.51814 10.4999 9.444 10.5H8.942C8.57005 10.5 8.20385 10.5919 7.8759 10.7674C7.54795 10.9428 7.26838 11.1966 7.062 11.506L7.018 11.572C6.83893 11.8407 6.72427 12.1471 6.68294 12.4674C6.64161 12.7876 6.67472 13.1131 6.7797 13.4184C6.88468 13.7238 7.0587 14.0008 7.28822 14.228C7.51773 14.4551 7.79656 14.6262 8.103 14.728C8.21804 14.7662 8.3182 14.8396 8.38941 14.9377C8.46062 15.0358 8.49929 15.1538 8.5 15.275V16.325C8.49988 16.5686 8.57547 16.8062 8.71631 17.005C8.85715 17.2037 9.05629 17.3538 9.28615 17.4344C9.51602 17.515 9.76526 17.5222 9.99939 17.4549C10.2335 17.3877 10.441 17.2493 10.593 17.059L12.204 15.045C12.396 14.805 12.5 14.509 12.5 14.203C12.5 13.887 12.628 13.579 12.853 13.353C13.0753 13.1308 13.2139 12.8386 13.2454 12.5258C13.277 12.2131 13.1994 11.8991 13.026 11.637L12.562 10.941C12.515 10.8686 12.4949 10.7821 12.5051 10.6965C12.5153 10.6108 12.5552 10.5315 12.6178 10.4722C12.6804 10.4128 12.7619 10.3774 12.8479 10.3718C12.934 10.3663 13.0193 10.3912 13.089 10.442L13.432 10.699C13.748 10.936 14.17 10.974 14.523 10.797C14.6331 10.7419 14.7578 10.7229 14.8793 10.7426C15.0008 10.7624 15.113 10.8199 15.2 10.907L16.497 12.204Z" fill="white" fill-opacity="0.8"/>
</svg>
