<svg width="113" height="24" viewBox="0 0 113 24" fill="none" xmlns="http://www.w3.org/2000/svg">
<path d="M36.7727 10H35.3636C35.2803 9.5947 35.1345 9.23864 34.9261 8.93182C34.7216 8.625 34.4716 8.36742 34.1761 8.15909C33.8845 7.94697 33.5606 7.78788 33.2045 7.68182C32.8485 7.57576 32.4773 7.52273 32.0909 7.52273C31.3864 7.52273 30.7481 7.70076 30.1761 8.05682C29.608 8.41288 29.1553 8.9375 28.8182 9.63068C28.4848 10.3239 28.3182 11.1742 28.3182 12.1818C28.3182 13.1894 28.4848 14.0398 28.8182 14.733C29.1553 15.4261 29.608 15.9508 30.1761 16.3068C30.7481 16.6629 31.3864 16.8409 32.0909 16.8409C32.4773 16.8409 32.8485 16.7879 33.2045 16.6818C33.5606 16.5758 33.8845 16.4186 34.1761 16.2102C34.4716 15.9981 34.7216 15.7386 34.9261 15.4318C35.1345 15.1212 35.2803 14.7652 35.3636 14.3636H36.7727C36.6667 14.9583 36.4735 15.4905 36.1932 15.9602C35.9129 16.4299 35.5644 16.8295 35.1477 17.1591C34.7311 17.4848 34.2633 17.733 33.7443 17.9034C33.2292 18.0739 32.678 18.1591 32.0909 18.1591C31.0985 18.1591 30.2159 17.9167 29.4432 17.4318C28.6705 16.947 28.0625 16.2576 27.6193 15.3636C27.1761 14.4697 26.9545 13.4091 26.9545 12.1818C26.9545 10.9545 27.1761 9.89394 27.6193 9C28.0625 8.10606 28.6705 7.41667 29.4432 6.93182C30.2159 6.44697 31.0985 6.20455 32.0909 6.20455C32.678 6.20455 33.2292 6.28977 33.7443 6.46023C34.2633 6.63068 34.7311 6.88068 35.1477 7.21023C35.5644 7.53598 35.9129 7.93371 36.1932 8.40341C36.4735 8.86932 36.6667 9.40151 36.7727 10ZM42.4134 18.1818C41.6255 18.1818 40.9342 17.9943 40.3395 17.6193C39.7486 17.2443 39.2865 16.7197 38.9531 16.0455C38.6236 15.3712 38.4588 14.5833 38.4588 13.6818C38.4588 12.7727 38.6236 11.9792 38.9531 11.3011C39.2865 10.6231 39.7486 10.0966 40.3395 9.72159C40.9342 9.34659 41.6255 9.15909 42.4134 9.15909C43.2012 9.15909 43.8906 9.34659 44.4815 9.72159C45.0762 10.0966 45.5384 10.6231 45.8679 11.3011C46.2012 11.9792 46.3679 12.7727 46.3679 13.6818C46.3679 14.5833 46.2012 15.3712 45.8679 16.0455C45.5384 16.7197 45.0762 17.2443 44.4815 17.6193C43.8906 17.9943 43.2012 18.1818 42.4134 18.1818ZM42.4134 16.9773C43.0118 16.9773 43.5043 16.8239 43.8906 16.517C44.277 16.2102 44.563 15.8068 44.7486 15.3068C44.9342 14.8068 45.027 14.2652 45.027 13.6818C45.027 13.0985 44.9342 12.5549 44.7486 12.0511C44.563 11.5473 44.277 11.1402 43.8906 10.8295C43.5043 10.5189 43.0118 10.3636 42.4134 10.3636C41.8149 10.3636 41.3224 10.5189 40.9361 10.8295C40.5497 11.1402 40.2637 11.5473 40.0781 12.0511C39.8925 12.5549 39.7997 13.0985 39.7997 13.6818C39.7997 14.2652 39.8925 14.8068 40.0781 15.3068C40.2637 15.8068 40.5497 16.2102 40.9361 16.517C41.3224 16.8239 41.8149 16.9773 42.4134 16.9773ZM48.4148 18V9.27273H49.7102V10.6364H49.8239C50.0057 10.1705 50.2992 9.80871 50.7045 9.55114C51.1098 9.28977 51.5966 9.15909 52.1648 9.15909C52.7405 9.15909 53.2197 9.28977 53.6023 9.55114C53.9886 9.80871 54.2898 10.1705 54.5057 10.6364H54.5966C54.8201 10.1856 55.1553 9.82765 55.6023 9.5625C56.0492 9.29356 56.5852 9.15909 57.2102 9.15909C57.9905 9.15909 58.6288 9.40341 59.125 9.89205C59.6212 10.3769 59.8693 11.1326 59.8693 12.1591V18H58.5284V12.1591C58.5284 11.5152 58.3523 11.0549 58 10.7784C57.6477 10.5019 57.233 10.3636 56.7557 10.3636C56.142 10.3636 55.6667 10.5492 55.3295 10.9205C54.9924 11.2879 54.8239 11.7538 54.8239 12.3182V18H53.4602V12.0227C53.4602 11.5265 53.2992 11.1269 52.9773 10.8239C52.6553 10.517 52.2405 10.3636 51.733 10.3636C51.3845 10.3636 51.0587 10.4564 50.7557 10.642C50.4564 10.8277 50.214 11.0852 50.0284 11.4148C49.8466 11.7405 49.7557 12.1174 49.7557 12.5455V18H48.4148ZM62.321 18V9.27273H63.6165V10.6364H63.7301C63.9119 10.1705 64.2055 9.80871 64.6108 9.55114C65.0161 9.28977 65.5028 9.15909 66.071 9.15909C66.6468 9.15909 67.1259 9.28977 67.5085 9.55114C67.8949 9.80871 68.196 10.1705 68.4119 10.6364H68.5028C68.7263 10.1856 69.0616 9.82765 69.5085 9.5625C69.9555 9.29356 70.4915 9.15909 71.1165 9.15909C71.8968 9.15909 72.535 9.40341 73.0312 9.89205C73.5275 10.3769 73.7756 11.1326 73.7756 12.1591V18H72.4347V12.1591C72.4347 11.5152 72.2585 11.0549 71.9062 10.7784C71.554 10.5019 71.1392 10.3636 70.6619 10.3636C70.0483 10.3636 69.5729 10.5492 69.2358 10.9205C68.8987 11.2879 68.7301 11.7538 68.7301 12.3182V18H67.3665V12.0227C67.3665 11.5265 67.2055 11.1269 66.8835 10.8239C66.5616 10.517 66.1468 10.3636 65.6392 10.3636C65.2907 10.3636 64.965 10.4564 64.6619 10.642C64.3627 10.8277 64.1203 11.0852 63.9347 11.4148C63.7528 11.7405 63.6619 12.1174 63.6619 12.5455V18H62.321ZM78.7955 18.2045C78.2424 18.2045 77.7405 18.1004 77.2898 17.892C76.839 17.6799 76.4811 17.375 76.2159 16.9773C75.9508 16.5758 75.8182 16.0909 75.8182 15.5227C75.8182 15.0227 75.9167 14.6174 76.1136 14.3068C76.3106 13.9924 76.5739 13.7462 76.9034 13.5682C77.233 13.3902 77.5966 13.2576 77.9943 13.1705C78.3958 13.0795 78.7992 13.0076 79.2045 12.9545C79.7348 12.8864 80.1648 12.8352 80.4943 12.8011C80.8277 12.7633 81.0701 12.7008 81.2216 12.6136C81.3769 12.5265 81.4545 12.375 81.4545 12.1591V12.1136C81.4545 11.553 81.3011 11.1174 80.9943 10.8068C80.6913 10.4962 80.2311 10.3409 79.6136 10.3409C78.9735 10.3409 78.4716 10.4811 78.108 10.7614C77.7443 11.0417 77.4886 11.3409 77.3409 11.6591L76.0682 11.2045C76.2955 10.6742 76.5985 10.2614 76.9773 9.96591C77.3598 9.66667 77.7765 9.45833 78.2273 9.34091C78.6818 9.2197 79.1288 9.15909 79.5682 9.15909C79.8485 9.15909 80.1705 9.19318 80.5341 9.26136C80.9015 9.32576 81.2557 9.46023 81.5966 9.66477C81.9413 9.86932 82.2273 10.178 82.4545 10.5909C82.6818 11.0038 82.7955 11.5568 82.7955 12.25V18H81.4545V16.8182H81.3864C81.2955 17.0076 81.1439 17.2102 80.9318 17.4261C80.7197 17.642 80.4375 17.8258 80.0852 17.9773C79.733 18.1288 79.303 18.2045 78.7955 18.2045ZM79 17C79.5303 17 79.9773 16.8958 80.3409 16.6875C80.7083 16.4792 80.9848 16.2102 81.1705 15.8807C81.3598 15.5511 81.4545 15.2045 81.4545 14.8409V13.6136C81.3977 13.6818 81.2727 13.7443 81.0795 13.8011C80.8902 13.8542 80.6705 13.9015 80.4205 13.9432C80.1742 13.9811 79.9337 14.0152 79.6989 14.0455C79.4678 14.072 79.2803 14.0947 79.1364 14.1136C78.7879 14.1591 78.4621 14.233 78.1591 14.3352C77.8598 14.4337 77.6174 14.5833 77.4318 14.7841C77.25 14.9811 77.1591 15.25 77.1591 15.5909C77.1591 16.0568 77.3314 16.4091 77.6761 16.6477C78.0246 16.8826 78.4659 17 79 17ZM86.5838 12.75V18H85.2429V9.27273H86.5384V10.6364H86.652C86.8565 10.1932 87.1671 9.83712 87.5838 9.56818C88.0005 9.29545 88.5384 9.15909 89.1974 9.15909C89.7884 9.15909 90.3054 9.2803 90.7486 9.52273C91.1918 9.76136 91.5365 10.125 91.7827 10.6136C92.0289 11.0985 92.152 11.7121 92.152 12.4545V18H90.8111V12.5455C90.8111 11.8598 90.633 11.3258 90.277 10.9432C89.9209 10.5568 89.4323 10.3636 88.8111 10.3636C88.383 10.3636 88.0005 10.4564 87.6634 10.642C87.33 10.8277 87.0668 11.0985 86.8736 11.4545C86.6804 11.8106 86.5838 12.2424 86.5838 12.75ZM97.8977 18.1818C97.1705 18.1818 96.5284 17.9981 95.9716 17.6307C95.4148 17.2595 94.9792 16.7367 94.6648 16.0625C94.3504 15.3845 94.1932 14.5833 94.1932 13.6591C94.1932 12.7424 94.3504 11.947 94.6648 11.2727C94.9792 10.5985 95.4167 10.0777 95.9773 9.71023C96.5379 9.3428 97.1856 9.15909 97.9205 9.15909C98.4886 9.15909 98.9375 9.25379 99.267 9.44318C99.6004 9.62879 99.8542 9.84091 100.028 10.0795C100.206 10.3144 100.345 10.5076 100.443 10.6591H100.557V6.36364H101.898V18H100.602V16.6591H100.443C100.345 16.8182 100.205 17.0189 100.023 17.2614C99.8409 17.5 99.5814 17.714 99.2443 17.9034C98.9072 18.089 98.4583 18.1818 97.8977 18.1818ZM98.0795 16.9773C98.6174 16.9773 99.072 16.8371 99.4432 16.5568C99.8144 16.2727 100.097 15.8807 100.29 15.3807C100.483 14.8769 100.58 14.2955 100.58 13.6364C100.58 12.9848 100.485 12.4148 100.295 11.9261C100.106 11.4337 99.8258 11.0511 99.4545 10.7784C99.0833 10.5019 98.625 10.3636 98.0795 10.3636C97.5114 10.3636 97.0379 10.5095 96.6591 10.8011C96.2841 11.089 96.0019 11.4811 95.8125 11.9773C95.6269 12.4697 95.5341 13.0227 95.5341 13.6364C95.5341 14.2576 95.6288 14.822 95.8182 15.3295C96.0114 15.8333 96.2955 16.2348 96.6705 16.5341C97.0492 16.8295 97.5189 16.9773 98.0795 16.9773ZM108.199 18.1818C107.358 18.1818 106.633 17.9962 106.023 17.625C105.417 17.25 104.949 16.7273 104.619 16.0568C104.294 15.3826 104.131 14.5985 104.131 13.7045C104.131 12.8106 104.294 12.0227 104.619 11.3409C104.949 10.6553 105.407 10.1212 105.994 9.73864C106.585 9.35227 107.275 9.15909 108.062 9.15909C108.517 9.15909 108.966 9.23485 109.409 9.38636C109.852 9.53788 110.256 9.78409 110.619 10.125C110.983 10.4621 111.273 10.9091 111.489 11.4659C111.705 12.0227 111.812 12.7083 111.812 13.5227V14.0909H105.085V12.9318H110.449C110.449 12.4394 110.35 12 110.153 11.6136C109.96 11.2273 109.684 10.9223 109.324 10.6989C108.968 10.4754 108.547 10.3636 108.062 10.3636C107.528 10.3636 107.066 10.4962 106.676 10.7614C106.29 11.0227 105.992 11.3636 105.784 11.7841C105.576 12.2045 105.472 12.6553 105.472 13.1364V13.9091C105.472 14.5682 105.585 15.1269 105.812 15.5852C106.044 16.0398 106.364 16.3864 106.773 16.625C107.182 16.8598 107.657 16.9773 108.199 16.9773C108.551 16.9773 108.869 16.928 109.153 16.8295C109.441 16.7273 109.689 16.5758 109.898 16.375C110.106 16.1705 110.267 15.9167 110.381 15.6136L111.676 15.9773C111.54 16.4167 111.311 16.803 110.989 17.1364C110.667 17.4659 110.269 17.7235 109.795 17.9091C109.322 18.0909 108.79 18.1818 108.199 18.1818Z" fill="white" fill-opacity="0.8"/>
<path d="M13.7006 19.7898L14.1608 19.2147C14.5651 18.7093 15.4237 18.75 15.7653 19.2907C16.1762 19.9412 17.191 19.8119 17.4724 19.2135C17.4871 19.1824 17.4504 19.2603 17.4818 18.991C17.513 18.7218 17.5 18.6603 17.4739 18.5373L15.8713 10.9701C15.4686 9.06829 15.2672 8.11738 14.5744 7.55869C13.8818 7 12.904 7 10.9487 7H9.05133C7.09598 7 6.11828 7 5.42555 7.55869C4.73281 8.11738 4.53143 9.06829 4.12866 10.9701L2.52608 18.5373C2.50003 18.6603 2.48701 18.7218 2.51828 18.991C2.54955 19.2603 2.51295 19.1824 2.52758 19.2135C2.80903 19.8119 3.8238 19.9412 4.23471 19.2907C4.57627 18.75 5.43489 18.7093 5.83924 19.2147L6.29945 19.7898C6.87928 20.5145 8.09016 20.5145 8.67 19.7898L8.74233 19.6993C9.35758 18.9304 10.6424 18.9304 11.2577 19.6993L11.33 19.7898C11.9098 20.5145 13.1208 20.5145 13.7006 19.7898Z" fill="white" fill-opacity="0.8" stroke="white" stroke-opacity="0.8" stroke-width="1.25" stroke-linejoin="round"/>
<path d="M2.06931 9.9165C1.58155 9.40983 1.67337 8.75728 1.67337 7.1263C1.67337 5.49534 1.67337 4.67985 2.16113 4.17318C2.64889 3.6665 3.43392 3.6665 5.00398 3.6665H14.9958C16.5658 3.6665 17.3509 3.6665 17.8387 4.17318C18.3264 4.67985 18.3264 5.49534 18.3264 7.1263C18.3264 8.75728 18.4177 9.40983 17.9299 9.9165" stroke="white" stroke-opacity="0.8" stroke-width="1.25" stroke-linecap="round"/>
<path d="M10 10.3335H7.5" stroke="white" stroke-opacity="0.8" stroke-width="1.25" stroke-linecap="round" stroke-linejoin="round"/>
<path d="M11.6665 13.6665H6.6665" stroke="white" stroke-opacity="0.8" stroke-width="1.25" stroke-linecap="round" stroke-linejoin="round"/>
</svg>
