<svg width="124" height="24" viewBox="0 0 124 24" fill="none" xmlns="http://www.w3.org/2000/svg">
<path d="M36.7727 10H35.3636C35.2803 9.5947 35.1345 9.23864 34.9261 8.93182C34.7216 8.625 34.4716 8.36742 34.1761 8.15909C33.8845 7.94697 33.5606 7.78788 33.2045 7.68182C32.8485 7.57576 32.4773 7.52273 32.0909 7.52273C31.3864 7.52273 30.7481 7.70076 30.1761 8.05682C29.608 8.41288 29.1553 8.9375 28.8182 9.63068C28.4848 10.3239 28.3182 11.1742 28.3182 12.1818C28.3182 13.1894 28.4848 14.0398 28.8182 14.733C29.1553 15.4261 29.608 15.9508 30.1761 16.3068C30.7481 16.6629 31.3864 16.8409 32.0909 16.8409C32.4773 16.8409 32.8485 16.7879 33.2045 16.6818C33.5606 16.5758 33.8845 16.4186 34.1761 16.2102C34.4716 15.9981 34.7216 15.7386 34.9261 15.4318C35.1345 15.1212 35.2803 14.7652 35.3636 14.3636H36.7727C36.6667 14.9583 36.4735 15.4905 36.1932 15.9602C35.9129 16.4299 35.5644 16.8295 35.1477 17.1591C34.7311 17.4848 34.2633 17.733 33.7443 17.9034C33.2292 18.0739 32.678 18.1591 32.0909 18.1591C31.0985 18.1591 30.2159 17.9167 29.4432 17.4318C28.6705 16.947 28.0625 16.2576 27.6193 15.3636C27.1761 14.4697 26.9545 13.4091 26.9545 12.1818C26.9545 10.9545 27.1761 9.89394 27.6193 9C28.0625 8.10606 28.6705 7.41667 29.4432 6.93182C30.2159 6.44697 31.0985 6.20455 32.0909 6.20455C32.678 6.20455 33.2292 6.28977 33.7443 6.46023C34.2633 6.63068 34.7311 6.88068 35.1477 7.21023C35.5644 7.53598 35.9129 7.93371 36.1932 8.40341C36.4735 8.86932 36.6667 9.40151 36.7727 10ZM42.4134 18.1818C41.6255 18.1818 40.9342 17.9943 40.3395 17.6193C39.7486 17.2443 39.2865 16.7197 38.9531 16.0455C38.6236 15.3712 38.4588 14.5833 38.4588 13.6818C38.4588 12.7727 38.6236 11.9792 38.9531 11.3011C39.2865 10.6231 39.7486 10.0966 40.3395 9.72159C40.9342 9.34659 41.6255 9.15909 42.4134 9.15909C43.2012 9.15909 43.8906 9.34659 44.4815 9.72159C45.0762 10.0966 45.5384 10.6231 45.8679 11.3011C46.2012 11.9792 46.3679 12.7727 46.3679 13.6818C46.3679 14.5833 46.2012 15.3712 45.8679 16.0455C45.5384 16.7197 45.0762 17.2443 44.4815 17.6193C43.8906 17.9943 43.2012 18.1818 42.4134 18.1818ZM42.4134 16.9773C43.0118 16.9773 43.5043 16.8239 43.8906 16.517C44.277 16.2102 44.563 15.8068 44.7486 15.3068C44.9342 14.8068 45.027 14.2652 45.027 13.6818C45.027 13.0985 44.9342 12.5549 44.7486 12.0511C44.563 11.5473 44.277 11.1402 43.8906 10.8295C43.5043 10.5189 43.0118 10.3636 42.4134 10.3636C41.8149 10.3636 41.3224 10.5189 40.9361 10.8295C40.5497 11.1402 40.2637 11.5473 40.0781 12.0511C39.8925 12.5549 39.7997 13.0985 39.7997 13.6818C39.7997 14.2652 39.8925 14.8068 40.0781 15.3068C40.2637 15.8068 40.5497 16.2102 40.9361 16.517C41.3224 16.8239 41.8149 16.9773 42.4134 16.9773ZM48.4148 18V9.27273H49.7102V10.6364H49.8239C50.0057 10.1705 50.2992 9.80871 50.7045 9.55114C51.1098 9.28977 51.5966 9.15909 52.1648 9.15909C52.7405 9.15909 53.2197 9.28977 53.6023 9.55114C53.9886 9.80871 54.2898 10.1705 54.5057 10.6364H54.5966C54.8201 10.1856 55.1553 9.82765 55.6023 9.5625C56.0492 9.29356 56.5852 9.15909 57.2102 9.15909C57.9905 9.15909 58.6288 9.40341 59.125 9.89205C59.6212 10.3769 59.8693 11.1326 59.8693 12.1591V18H58.5284V12.1591C58.5284 11.5152 58.3523 11.0549 58 10.7784C57.6477 10.5019 57.233 10.3636 56.7557 10.3636C56.142 10.3636 55.6667 10.5492 55.3295 10.9205C54.9924 11.2879 54.8239 11.7538 54.8239 12.3182V18H53.4602V12.0227C53.4602 11.5265 53.2992 11.1269 52.9773 10.8239C52.6553 10.517 52.2405 10.3636 51.733 10.3636C51.3845 10.3636 51.0587 10.4564 50.7557 10.642C50.4564 10.8277 50.214 11.0852 50.0284 11.4148C49.8466 11.7405 49.7557 12.1174 49.7557 12.5455V18H48.4148ZM62.321 18V9.27273H63.6165V10.6364H63.7301C63.9119 10.1705 64.2055 9.80871 64.6108 9.55114C65.0161 9.28977 65.5028 9.15909 66.071 9.15909C66.6468 9.15909 67.1259 9.28977 67.5085 9.55114C67.8949 9.80871 68.196 10.1705 68.4119 10.6364H68.5028C68.7263 10.1856 69.0616 9.82765 69.5085 9.5625C69.9555 9.29356 70.4915 9.15909 71.1165 9.15909C71.8968 9.15909 72.535 9.40341 73.0312 9.89205C73.5275 10.3769 73.7756 11.1326 73.7756 12.1591V18H72.4347V12.1591C72.4347 11.5152 72.2585 11.0549 71.9062 10.7784C71.554 10.5019 71.1392 10.3636 70.6619 10.3636C70.0483 10.3636 69.5729 10.5492 69.2358 10.9205C68.8987 11.2879 68.7301 11.7538 68.7301 12.3182V18H67.3665V12.0227C67.3665 11.5265 67.2055 11.1269 66.8835 10.8239C66.5616 10.517 66.1468 10.3636 65.6392 10.3636C65.2907 10.3636 64.965 10.4564 64.6619 10.642C64.3627 10.8277 64.1203 11.0852 63.9347 11.4148C63.7528 11.7405 63.6619 12.1174 63.6619 12.5455V18H62.321ZM79.8864 18.1818C79.0455 18.1818 78.3201 17.9962 77.7102 17.625C77.1042 17.25 76.6364 16.7273 76.3068 16.0568C75.9811 15.3826 75.8182 14.5985 75.8182 13.7045C75.8182 12.8106 75.9811 12.0227 76.3068 11.3409C76.6364 10.6553 77.0947 10.1212 77.6818 9.73864C78.2727 9.35227 78.9621 9.15909 79.75 9.15909C80.2045 9.15909 80.6534 9.23485 81.0966 9.38636C81.5398 9.53788 81.9432 9.78409 82.3068 10.125C82.6705 10.4621 82.9602 10.9091 83.1761 11.4659C83.392 12.0227 83.5 12.7083 83.5 13.5227V14.0909H76.7727V12.9318H82.1364C82.1364 12.4394 82.0379 12 81.8409 11.6136C81.6477 11.2273 81.3712 10.9223 81.0114 10.6989C80.6553 10.4754 80.2348 10.3636 79.75 10.3636C79.2159 10.3636 78.7538 10.4962 78.3636 10.7614C77.9773 11.0227 77.6799 11.3636 77.4716 11.7841C77.2633 12.2045 77.1591 12.6553 77.1591 13.1364V13.9091C77.1591 14.5682 77.2727 15.1269 77.5 15.5852C77.7311 16.0398 78.0511 16.3864 78.4602 16.625C78.8693 16.8598 79.3447 16.9773 79.8864 16.9773C80.2386 16.9773 80.5568 16.928 80.8409 16.8295C81.1288 16.7273 81.3769 16.5758 81.5852 16.375C81.7936 16.1705 81.9545 15.9167 82.0682 15.6136L83.3636 15.9773C83.2273 16.4167 82.9981 16.803 82.6761 17.1364C82.3542 17.4659 81.9564 17.7235 81.483 17.9091C81.0095 18.0909 80.4773 18.1818 79.8864 18.1818ZM85.5398 18V9.27273H86.8352V10.5909H86.9261C87.0852 10.1591 87.3731 9.80871 87.7898 9.53977C88.2064 9.27083 88.6761 9.13636 89.1989 9.13636C89.2973 9.13636 89.4205 9.13826 89.5682 9.14205C89.7159 9.14583 89.8277 9.15152 89.9034 9.15909V10.5227C89.858 10.5114 89.7538 10.4943 89.5909 10.4716C89.4318 10.4451 89.2633 10.4318 89.0852 10.4318C88.661 10.4318 88.2822 10.5208 87.9489 10.6989C87.6193 10.8731 87.358 11.1155 87.1648 11.4261C86.9754 11.733 86.8807 12.0833 86.8807 12.4773V18H85.5398ZM94.7727 18.1818C93.9545 18.1818 93.25 17.9886 92.6591 17.6023C92.0682 17.2159 91.6136 16.6837 91.2955 16.0057C90.9773 15.3277 90.8182 14.553 90.8182 13.6818C90.8182 12.7955 90.9811 12.0133 91.3068 11.3352C91.6364 10.6534 92.0947 10.1212 92.6818 9.73864C93.2727 9.35227 93.9621 9.15909 94.75 9.15909C95.3636 9.15909 95.9167 9.27273 96.4091 9.5C96.9015 9.72727 97.3049 10.0455 97.6193 10.4545C97.9337 10.8636 98.1288 11.3409 98.2045 11.8864H96.8636C96.7614 11.4886 96.5341 11.1364 96.1818 10.8295C95.8333 10.5189 95.3636 10.3636 94.7727 10.3636C94.25 10.3636 93.7917 10.5 93.3977 10.7727C93.0076 11.0417 92.7027 11.4223 92.483 11.9148C92.267 12.4034 92.1591 12.9773 92.1591 13.6364C92.1591 14.3106 92.2652 14.8977 92.4773 15.3977C92.6932 15.8977 92.9962 16.286 93.3864 16.5625C93.7803 16.839 94.2424 16.9773 94.7727 16.9773C95.1212 16.9773 95.4375 16.9167 95.7216 16.7955C96.0057 16.6742 96.2462 16.5 96.4432 16.2727C96.6402 16.0455 96.7803 15.7727 96.8636 15.4545H98.2045C98.1288 15.9697 97.9413 16.4337 97.642 16.8466C97.3466 17.2557 96.9545 17.5814 96.4659 17.8239C95.9811 18.0625 95.4167 18.1818 94.7727 18.1818ZM94.1364 17.9545H95.25L95.1591 18.4091C95.4545 18.4545 95.7254 18.5777 95.9716 18.7784C96.2178 18.983 96.3409 19.3068 96.3409 19.75C96.3409 20.2386 96.1383 20.6364 95.733 20.9432C95.3314 21.2538 94.7386 21.4091 93.9545 21.4091L93.9091 20.5227C94.2614 20.5227 94.553 20.4659 94.7841 20.3523C95.0189 20.2424 95.1364 20.0568 95.1364 19.7955C95.1364 19.5341 95.0398 19.3561 94.8466 19.2614C94.6534 19.1667 94.3409 19.1023 93.9091 19.0682L94.1364 17.9545ZM102.733 18.2045C102.18 18.2045 101.678 18.1004 101.227 17.892C100.777 17.6799 100.419 17.375 100.153 16.9773C99.8883 16.5758 99.7557 16.0909 99.7557 15.5227C99.7557 15.0227 99.8542 14.6174 100.051 14.3068C100.248 13.9924 100.511 13.7462 100.841 13.5682C101.17 13.3902 101.534 13.2576 101.932 13.1705C102.333 13.0795 102.737 13.0076 103.142 12.9545C103.672 12.8864 104.102 12.8352 104.432 12.8011C104.765 12.7633 105.008 12.7008 105.159 12.6136C105.314 12.5265 105.392 12.375 105.392 12.1591V12.1136C105.392 11.553 105.239 11.1174 104.932 10.8068C104.629 10.4962 104.169 10.3409 103.551 10.3409C102.911 10.3409 102.409 10.4811 102.045 10.7614C101.682 11.0417 101.426 11.3409 101.278 11.6591L100.006 11.2045C100.233 10.6742 100.536 10.2614 100.915 9.96591C101.297 9.66667 101.714 9.45833 102.165 9.34091C102.619 9.2197 103.066 9.15909 103.506 9.15909C103.786 9.15909 104.108 9.19318 104.472 9.26136C104.839 9.32576 105.193 9.46023 105.534 9.66477C105.879 9.86932 106.165 10.178 106.392 10.5909C106.619 11.0038 106.733 11.5568 106.733 12.25V18H105.392V16.8182H105.324C105.233 17.0076 105.081 17.2102 104.869 17.4261C104.657 17.642 104.375 17.8258 104.023 17.9773C103.67 18.1288 103.241 18.2045 102.733 18.2045ZM102.938 17C103.468 17 103.915 16.8958 104.278 16.6875C104.646 16.4792 104.922 16.2102 105.108 15.8807C105.297 15.5511 105.392 15.2045 105.392 14.8409V13.6136C105.335 13.6818 105.21 13.7443 105.017 13.8011C104.828 13.8542 104.608 13.9015 104.358 13.9432C104.112 13.9811 103.871 14.0152 103.636 14.0455C103.405 14.072 103.218 14.0947 103.074 14.1136C102.725 14.1591 102.4 14.233 102.097 14.3352C101.797 14.4337 101.555 14.5833 101.369 14.7841C101.188 14.9811 101.097 15.25 101.097 15.5909C101.097 16.0568 101.269 16.4091 101.614 16.6477C101.962 16.8826 102.403 17 102.938 17ZM110.521 12.75V18H109.18V9.27273H110.476V10.6364H110.589C110.794 10.1932 111.105 9.83712 111.521 9.56818C111.938 9.29545 112.476 9.15909 113.135 9.15909C113.726 9.15909 114.243 9.2803 114.686 9.52273C115.129 9.76136 115.474 10.125 115.72 10.6136C115.966 11.0985 116.089 11.7121 116.089 12.4545V18H114.749V12.5455C114.749 11.8598 114.571 11.3258 114.214 10.9432C113.858 10.5568 113.37 10.3636 112.749 10.3636C112.321 10.3636 111.938 10.4564 111.601 10.642C111.268 10.8277 111.004 11.0985 110.811 11.4545C110.618 11.8106 110.521 12.2424 110.521 12.75ZM122.335 9.27273V10.4091H117.812V9.27273H122.335ZM119.131 7.18182H120.472V15.5C120.472 15.8788 120.527 16.1629 120.636 16.3523C120.75 16.5379 120.894 16.6629 121.068 16.7273C121.246 16.7879 121.434 16.8182 121.631 16.8182C121.778 16.8182 121.9 16.8106 121.994 16.7955C122.089 16.7765 122.165 16.7614 122.222 16.75L122.494 17.9545C122.403 17.9886 122.277 18.0227 122.114 18.0568C121.951 18.0947 121.744 18.1136 121.494 18.1136C121.116 18.1136 120.744 18.0322 120.381 17.8693C120.021 17.7064 119.722 17.4583 119.483 17.125C119.248 16.7917 119.131 16.3712 119.131 15.8636V7.18182Z" fill="white" fill-opacity="0.8"/>
<path d="M2.879 9.121C3.19313 9.43531 3.57316 9.67591 3.99163 9.82541C4.4101 9.97491 4.85656 10.0296 5.29874 9.98547C5.74092 9.94136 6.16777 9.79956 6.54846 9.57034C6.92915 9.34111 7.25416 9.03017 7.5 8.66C7.77365 9.07243 8.14519 9.41066 8.58144 9.64448C9.01768 9.87831 9.50504 10.0005 10 10C10.495 10.0005 10.9823 9.87831 11.4186 9.64448C11.8548 9.41066 12.2263 9.07243 12.5 8.66C12.732 9.00876 13.0344 9.30509 13.3878 9.52989C13.7413 9.75469 14.1379 9.90299 14.5521 9.96524C14.9663 10.0275 15.3889 10.0023 15.7928 9.89133C16.1967 9.78034 16.5729 9.58601 16.8971 9.32083C17.2214 9.05566 17.4865 8.72553 17.6754 8.35169C17.8644 7.97785 17.9729 7.5686 17.9941 7.15027C18.0153 6.73194 17.9486 6.31381 17.7984 5.9228C17.6482 5.53179 17.4178 5.17657 17.122 4.88L16.829 4.587C16.6434 4.40109 16.423 4.25356 16.1804 4.15284C15.9378 4.05212 15.6777 4.00019 15.415 4H4.585C4.05461 4.00011 3.54599 4.2109 3.171 4.586L2.879 4.878C2.60037 5.15658 2.37935 5.48732 2.22855 5.85133C2.07775 6.21534 2.00014 6.60549 2.00014 6.9995C2.00014 7.39351 2.07775 7.78366 2.22855 8.14767C2.37935 8.51168 2.60037 8.84242 2.879 9.121ZM3 11.032C3.70948 11.3831 4.49891 11.5412 5.28888 11.4902C6.07884 11.4393 6.84146 11.1813 7.5 10.742C8.23952 11.2374 9.10987 11.5013 10 11.5C10.8901 11.5013 11.7605 11.2374 12.5 10.742C13.1585 11.1813 13.9212 11.4393 14.7111 11.4902C15.5011 11.5412 16.2905 11.3831 17 11.032V18.5H17.25C17.4489 18.5 17.6397 18.579 17.7803 18.7197C17.921 18.8603 18 19.0511 18 19.25C18 19.4489 17.921 19.6397 17.7803 19.7803C17.6397 19.921 17.4489 20 17.25 20H12.75C12.5511 20 12.3603 19.921 12.2197 19.7803C12.079 19.6397 12 19.4489 12 19.25V15.75C12 15.5511 11.921 15.3603 11.7803 15.2197C11.6397 15.079 11.4489 15 11.25 15H8.75C8.55109 15 8.36032 15.079 8.21967 15.2197C8.07902 15.3603 8 15.5511 8 15.75V19.25C8 19.4489 7.92098 19.6397 7.78033 19.7803C7.63968 19.921 7.44891 20 7.25 20H2.75C2.55109 20 2.36032 19.921 2.21967 19.7803C2.07902 19.6397 2 19.4489 2 19.25C2 19.0511 2.07902 18.8603 2.21967 18.7197C2.36032 18.579 2.55109 18.5 2.75 18.5H3V11.032Z" fill="white" fill-opacity="0.8"/>
</svg>
