<svg width="124" height="24" viewBox="0 0 124 24" fill="none" xmlns="http://www.w3.org/2000/svg">
<path d="M31 18H27.4091V6.36364H31.1591C32.2879 6.36364 33.2538 6.59659 34.0568 7.0625C34.8598 7.52462 35.4754 8.18939 35.9034 9.05682C36.3314 9.92045 36.5455 10.9545 36.5455 12.1591C36.5455 13.3712 36.3295 14.4148 35.8977 15.2898C35.4659 16.161 34.8371 16.8314 34.0114 17.3011C33.1856 17.767 32.1818 18 31 18ZM28.8182 16.75H30.9091C31.8712 16.75 32.6686 16.5644 33.3011 16.1932C33.9337 15.822 34.4053 15.2936 34.7159 14.608C35.0265 13.9223 35.1818 13.1061 35.1818 12.1591C35.1818 11.2197 35.0284 10.411 34.7216 9.73295C34.4148 9.05114 33.9564 8.52841 33.3466 8.16477C32.7367 7.79735 31.9773 7.61364 31.0682 7.61364H28.8182V16.75ZM41.2955 18.2045C40.7424 18.2045 40.2405 18.1004 39.7898 17.892C39.339 17.6799 38.9811 17.375 38.7159 16.9773C38.4508 16.5758 38.3182 16.0909 38.3182 15.5227C38.3182 15.0227 38.4167 14.6174 38.6136 14.3068C38.8106 13.9924 39.0739 13.7462 39.4034 13.5682C39.733 13.3902 40.0966 13.2576 40.4943 13.1705C40.8958 13.0795 41.2992 13.0076 41.7045 12.9545C42.2348 12.8864 42.6648 12.8352 42.9943 12.8011C43.3277 12.7633 43.5701 12.7008 43.7216 12.6136C43.8769 12.5265 43.9545 12.375 43.9545 12.1591V12.1136C43.9545 11.553 43.8011 11.1174 43.4943 10.8068C43.1913 10.4962 42.7311 10.3409 42.1136 10.3409C41.4735 10.3409 40.9716 10.4811 40.608 10.7614C40.2443 11.0417 39.9886 11.3409 39.8409 11.6591L38.5682 11.2045C38.7955 10.6742 39.0985 10.2614 39.4773 9.96591C39.8598 9.66667 40.2765 9.45833 40.7273 9.34091C41.1818 9.2197 41.6288 9.15909 42.0682 9.15909C42.3485 9.15909 42.6705 9.19318 43.0341 9.26136C43.4015 9.32576 43.7557 9.46023 44.0966 9.66477C44.4413 9.86932 44.7273 10.178 44.9545 10.5909C45.1818 11.0038 45.2955 11.5568 45.2955 12.25V18H43.9545V16.8182H43.8864C43.7955 17.0076 43.6439 17.2102 43.4318 17.4261C43.2197 17.642 42.9375 17.8258 42.5852 17.9773C42.233 18.1288 41.803 18.2045 41.2955 18.2045ZM41.5 17C42.0303 17 42.4773 16.8958 42.8409 16.6875C43.2083 16.4792 43.4848 16.2102 43.6705 15.8807C43.8598 15.5511 43.9545 15.2045 43.9545 14.8409V13.6136C43.8977 13.6818 43.7727 13.7443 43.5795 13.8011C43.3902 13.8542 43.1705 13.9015 42.9205 13.9432C42.6742 13.9811 42.4337 14.0152 42.1989 14.0455C41.9678 14.072 41.7803 14.0947 41.6364 14.1136C41.2879 14.1591 40.9621 14.233 40.6591 14.3352C40.3598 14.4337 40.1174 14.5833 39.9318 14.7841C39.75 14.9811 39.6591 15.25 39.6591 15.5909C39.6591 16.0568 39.8314 16.4091 40.1761 16.6477C40.5246 16.8826 40.9659 17 41.5 17ZM51.5384 9.27273V10.4091H47.0156V9.27273H51.5384ZM48.3338 7.18182H49.6747V15.5C49.6747 15.8788 49.7296 16.1629 49.8395 16.3523C49.9531 16.5379 50.0971 16.6629 50.2713 16.7273C50.4493 16.7879 50.6368 16.8182 50.8338 16.8182C50.9815 16.8182 51.1027 16.8106 51.1974 16.7955C51.2921 16.7765 51.3679 16.7614 51.4247 16.75L51.6974 17.9545C51.6065 17.9886 51.4796 18.0227 51.3168 18.0568C51.1539 18.0947 50.9474 18.1136 50.6974 18.1136C50.3187 18.1136 49.9474 18.0322 49.5838 17.8693C49.224 17.7064 48.9247 17.4583 48.6861 17.125C48.4512 16.7917 48.3338 16.3712 48.3338 15.8636V7.18182ZM57.1207 18.1818C56.2798 18.1818 55.5545 17.9962 54.9446 17.625C54.3385 17.25 53.8707 16.7273 53.5412 16.0568C53.2154 15.3826 53.0526 14.5985 53.0526 13.7045C53.0526 12.8106 53.2154 12.0227 53.5412 11.3409C53.8707 10.6553 54.3291 10.1212 54.9162 9.73864C55.5071 9.35227 56.1965 9.15909 56.9844 9.15909C57.4389 9.15909 57.8878 9.23485 58.331 9.38636C58.7741 9.53788 59.1776 9.78409 59.5412 10.125C59.9048 10.4621 60.1946 10.9091 60.4105 11.4659C60.6264 12.0227 60.7344 12.7083 60.7344 13.5227V14.0909H54.0071V12.9318H59.3707C59.3707 12.4394 59.2723 12 59.0753 11.6136C58.8821 11.2273 58.6056 10.9223 58.2457 10.6989C57.8897 10.4754 57.4692 10.3636 56.9844 10.3636C56.4503 10.3636 55.9882 10.4962 55.598 10.7614C55.2116 11.0227 54.9143 11.3636 54.706 11.7841C54.4976 12.2045 54.3935 12.6553 54.3935 13.1364V13.9091C54.3935 14.5682 54.5071 15.1269 54.7344 15.5852C54.9654 16.0398 55.2855 16.3864 55.6946 16.625C56.1037 16.8598 56.5791 16.9773 57.1207 16.9773C57.473 16.9773 57.7912 16.928 58.0753 16.8295C58.3632 16.7273 58.6113 16.5758 58.8196 16.375C59.0279 16.1705 59.1889 15.9167 59.3026 15.6136L60.598 15.9773C60.4616 16.4167 60.2325 16.803 59.9105 17.1364C59.5885 17.4659 59.1908 17.7235 58.7173 17.9091C58.2438 18.0909 57.7116 18.1818 57.1207 18.1818Z" fill="white" fill-opacity="0.8"/>
<path d="M10.625 12.625C10.625 12.7908 10.5592 12.9497 10.4419 13.0669C10.3247 13.1842 10.1658 13.25 10 13.25C9.83424 13.25 9.67527 13.1842 9.55806 13.0669C9.44085 12.9497 9.375 12.7908 9.375 12.625C9.375 12.4592 9.44085 12.3003 9.55806 12.1831C9.67527 12.0658 9.83424 12 10 12C10.1658 12 10.3247 12.0658 10.4419 12.1831C10.5592 12.3003 10.625 12.4592 10.625 12.625ZM6.25 15.125C6.41576 15.125 6.57473 15.0592 6.69194 14.9419C6.80915 14.8247 6.875 14.6658 6.875 14.5C6.875 14.3342 6.80915 14.1753 6.69194 14.0581C6.57473 13.9408 6.41576 13.875 6.25 13.875C6.08424 13.875 5.92527 13.9408 5.80806 14.0581C5.69085 14.1753 5.625 14.3342 5.625 14.5C5.625 14.6658 5.69085 14.8247 5.80806 14.9419C5.92527 15.0592 6.08424 15.125 6.25 15.125ZM6.875 16.375C6.875 16.5408 6.80915 16.6997 6.69194 16.8169C6.57473 16.9342 6.41576 17 6.25 17C6.08424 17 5.92527 16.9342 5.80806 16.8169C5.69085 16.6997 5.625 16.5408 5.625 16.375C5.625 16.2092 5.69085 16.0503 5.80806 15.9331C5.92527 15.8158 6.08424 15.75 6.25 15.75C6.41576 15.75 6.57473 15.8158 6.69194 15.9331C6.80915 16.0503 6.875 16.2092 6.875 16.375ZM8.125 15.125C8.29076 15.125 8.44973 15.0592 8.56694 14.9419C8.68415 14.8247 8.75 14.6658 8.75 14.5C8.75 14.3342 8.68415 14.1753 8.56694 14.0581C8.44973 13.9408 8.29076 13.875 8.125 13.875C7.95924 13.875 7.80027 13.9408 7.68306 14.0581C7.56585 14.1753 7.5 14.3342 7.5 14.5C7.5 14.6658 7.56585 14.8247 7.68306 14.9419C7.80027 15.0592 7.95924 15.125 8.125 15.125ZM8.75 16.375C8.75 16.5408 8.68415 16.6997 8.56694 16.8169C8.44973 16.9342 8.29076 17 8.125 17C7.95924 17 7.80027 16.9342 7.68306 16.8169C7.56585 16.6997 7.5 16.5408 7.5 16.375C7.5 16.2092 7.56585 16.0503 7.68306 15.9331C7.80027 15.8158 7.95924 15.75 8.125 15.75C8.29076 15.75 8.44973 15.8158 8.56694 15.9331C8.68415 16.0503 8.75 16.2092 8.75 16.375ZM10 15.125C10.1658 15.125 10.3247 15.0592 10.4419 14.9419C10.5592 14.8247 10.625 14.6658 10.625 14.5C10.625 14.3342 10.5592 14.1753 10.4419 14.0581C10.3247 13.9408 10.1658 13.875 10 13.875C9.83424 13.875 9.67527 13.9408 9.55806 14.0581C9.44085 14.1753 9.375 14.3342 9.375 14.5C9.375 14.6658 9.44085 14.8247 9.55806 14.9419C9.67527 15.0592 9.83424 15.125 10 15.125ZM10.625 16.375C10.625 16.5408 10.5592 16.6997 10.4419 16.8169C10.3247 16.9342 10.1658 17 10 17C9.83424 17 9.67527 16.9342 9.55806 16.8169C9.44085 16.6997 9.375 16.5408 9.375 16.375C9.375 16.2092 9.44085 16.0503 9.55806 15.9331C9.67527 15.8158 9.83424 15.75 10 15.75C10.1658 15.75 10.3247 15.8158 10.4419 15.9331C10.5592 16.0503 10.625 16.2092 10.625 16.375ZM11.875 15.125C12.0408 15.125 12.1997 15.0592 12.3169 14.9419C12.4342 14.8247 12.5 14.6658 12.5 14.5C12.5 14.3342 12.4342 14.1753 12.3169 14.0581C12.1997 13.9408 12.0408 13.875 11.875 13.875C11.7092 13.875 11.5503 13.9408 11.4331 14.0581C11.3158 14.1753 11.25 14.3342 11.25 14.5C11.25 14.6658 11.3158 14.8247 11.4331 14.9419C11.5503 15.0592 11.7092 15.125 11.875 15.125ZM12.5 16.375C12.5 16.5408 12.4342 16.6997 12.3169 16.8169C12.1997 16.9342 12.0408 17 11.875 17C11.7092 17 11.5503 16.9342 11.4331 16.8169C11.3158 16.6997 11.25 16.5408 11.25 16.375C11.25 16.2092 11.3158 16.0503 11.4331 15.9331C11.5503 15.8158 11.7092 15.75 11.875 15.75C12.0408 15.75 12.1997 15.8158 12.3169 15.9331C12.4342 16.0503 12.5 16.2092 12.5 16.375ZM13.75 15.125C13.9158 15.125 14.0747 15.0592 14.1919 14.9419C14.3092 14.8247 14.375 14.6658 14.375 14.5C14.375 14.3342 14.3092 14.1753 14.1919 14.0581C14.0747 13.9408 13.9158 13.875 13.75 13.875C13.5842 13.875 13.4253 13.9408 13.3081 14.0581C13.1908 14.1753 13.125 14.3342 13.125 14.5C13.125 14.6658 13.1908 14.8247 13.3081 14.9419C13.4253 15.0592 13.5842 15.125 13.75 15.125ZM12.5 12.625C12.5 12.7908 12.4342 12.9497 12.3169 13.0669C12.1997 13.1842 12.0408 13.25 11.875 13.25C11.7092 13.25 11.5503 13.1842 11.4331 13.0669C11.3158 12.9497 11.25 12.7908 11.25 12.625C11.25 12.4592 11.3158 12.3003 11.4331 12.1831C11.5503 12.0658 11.7092 12 11.875 12C12.0408 12 12.1997 12.0658 12.3169 12.1831C12.4342 12.3003 12.5 12.4592 12.5 12.625ZM13.75 13.25C13.9158 13.25 14.0747 13.1842 14.1919 13.0669C14.3092 12.9497 14.375 12.7908 14.375 12.625C14.375 12.4592 14.3092 12.3003 14.1919 12.1831C14.0747 12.0658 13.9158 12 13.75 12C13.5842 12 13.4253 12.0658 13.3081 12.1831C13.1908 12.3003 13.125 12.4592 13.125 12.625C13.125 12.7908 13.1908 12.9497 13.3081 13.0669C13.4253 13.1842 13.5842 13.25 13.75 13.25Z" fill="white" fill-opacity="0.8"/>
<path fill-rule="evenodd" clip-rule="evenodd" d="M5.625 3.875C5.79076 3.875 5.94973 3.94085 6.06694 4.05806C6.18415 4.17527 6.25 4.33424 6.25 4.5V5.75H13.75V4.5C13.75 4.33424 13.8158 4.17527 13.9331 4.05806C14.0503 3.94085 14.2092 3.875 14.375 3.875C14.5408 3.875 14.6997 3.94085 14.8169 4.05806C14.9342 4.17527 15 4.33424 15 4.5V5.75H15.625C16.288 5.75 16.9239 6.01339 17.3928 6.48223C17.8616 6.95107 18.125 7.58696 18.125 8.25V17.625C18.125 18.288 17.8616 18.9239 17.3928 19.3928C16.9239 19.8616 16.288 20.125 15.625 20.125H4.375C3.71196 20.125 3.07607 19.8616 2.60723 19.3928C2.13839 18.9239 1.875 18.288 1.875 17.625V8.25C1.875 7.58696 2.13839 6.95107 2.60723 6.48223C3.07607 6.01339 3.71196 5.75 4.375 5.75H5V4.5C5 4.33424 5.06585 4.17527 5.18306 4.05806C5.30027 3.94085 5.45924 3.875 5.625 3.875ZM16.875 11.375C16.875 11.0435 16.7433 10.7255 16.5089 10.4911C16.2745 10.2567 15.9565 10.125 15.625 10.125H4.375C4.04348 10.125 3.72554 10.2567 3.49112 10.4911C3.2567 10.7255 3.125 11.0435 3.125 11.375V17.625C3.125 17.9565 3.2567 18.2745 3.49112 18.5089C3.72554 18.7433 4.04348 18.875 4.375 18.875H15.625C15.9565 18.875 16.2745 18.7433 16.5089 18.5089C16.7433 18.2745 16.875 17.9565 16.875 17.625V11.375Z" fill="white" fill-opacity="0.8"/>
</svg>
