<svg width="16" height="16" viewBox="0 0 16 16" fill="none" xmlns="http://www.w3.org/2000/svg">
<path d="M8.75 11.25C8.95988 11.0926 9.11492 10.8731 9.19314 10.6227C9.27137 10.3723 9.26882 10.1036 9.18585 9.85472C9.10289 9.60583 8.94372 9.38935 8.73089 9.23595C8.51806 9.08255 8.26235 9 8 9C7.73765 9 7.48194 9.08255 7.26911 9.23595C7.05628 9.38935 6.89711 9.60583 6.81415 9.85472C6.73118 10.1036 6.72863 10.3723 6.80686 10.6227C6.88508 10.8731 7.04012 11.0926 7.25 11.25V12.25C7.25 12.4489 7.32902 12.6397 7.46967 12.7803C7.61032 12.921 7.80109 13 8 13C8.19891 13 8.38968 12.921 8.53033 12.7803C8.67098 12.6397 8.75 12.4489 8.75 12.25V11.25Z" fill="#667085"/>
<path fill-rule="evenodd" clip-rule="evenodd" d="M3.5 4V6H2.5C2.23478 6 1.98043 6.10536 1.79289 6.29289C1.60536 6.48043 1.5 6.73478 1.5 7V13C1.5 13.7956 1.81607 14.5587 2.37868 15.1213C2.94129 15.6839 3.70435 16 4.5 16H11.5C12.2956 16 13.0587 15.6839 13.6213 15.1213C14.1839 14.5587 14.5 13.7956 14.5 13V7C14.5 6.73478 14.3946 6.48043 14.2071 6.29289C14.0196 6.10536 13.7652 6 13.5 6H12.5V4C12.5 2.93913 12.0786 1.92172 11.3284 1.17157C10.5783 0.421427 9.56087 0 8.5 0L7.5 0C6.43913 0 5.42172 0.421427 4.67157 1.17157C3.92143 1.92172 3.5 2.93913 3.5 4ZM11 6V4C11 3.33696 10.7366 2.70107 10.2678 2.23223C9.79893 1.76339 9.16304 1.5 8.5 1.5H7.5C6.83696 1.5 6.20107 1.76339 5.73223 2.23223C5.26339 2.70107 5 3.33696 5 4V6H11ZM3 13V7.5H13V13C13 13.3978 12.842 13.7794 12.5607 14.0607C12.2794 14.342 11.8978 14.5 11.5 14.5H4.5C4.10218 14.5 3.72064 14.342 3.43934 14.0607C3.15804 13.7794 3 13.3978 3 13Z" fill="#667085"/>
</svg>
