<svg width="91" height="24" viewBox="0 0 91 24" fill="none" xmlns="http://www.w3.org/2000/svg">
<path fill-rule="evenodd" clip-rule="evenodd" d="M9.37381 5.95952C9.76434 6.35004 9.76434 6.98321 9.37381 7.37373L5.74759 11H16.6667C17.219 11 17.6667 11.4477 17.6667 12C17.6667 12.5522 17.219 13 16.6667 13H5.74759L9.37381 16.6262C9.76434 17.0167 9.76434 17.6499 9.37381 18.0404C8.98329 18.4309 8.35013 18.4309 7.9596 18.0404L2.62627 12.7071C2.43873 12.5195 2.33337 12.2652 2.33337 12C2.33337 11.7347 2.43873 11.4804 2.62627 11.2929L7.9596 5.95952C8.35013 5.56899 8.98329 5.56899 9.37381 5.95952Z" fill="#91949C"/>
<g clip-path="url(#clip0_360_1147)">
<path d="M71.1588 3.69824H72.6354L73.4044 3.79117L74.1427 3.97703L74.7887 4.22483L75.2809 4.47264L75.7423 4.75142L76.1422 5.06118L76.5729 5.43289L76.819 5.6807L77.1574 6.11436L77.4342 6.579L77.4994 6.72901C77.5993 6.95907 77.6814 7.1965 77.7448 7.43919L77.8033 7.66316L77.8341 7.87999V8.1408C77.8341 8.17322 77.8393 8.20543 77.8495 8.23621C77.8597 8.26699 77.8649 8.2992 77.8649 8.33162V15.1283L77.8341 15.7169L77.7881 15.9602C77.7368 16.2312 77.6627 16.4973 77.5665 16.7557L77.5265 16.863L77.4554 16.9971C77.3389 17.2171 77.2057 17.4279 77.057 17.6276L77.0035 17.6993L76.7267 18.0401L76.4191 18.3498L76.0192 18.6596L75.7115 18.8764L75.1271 19.2172L74.3888 19.5269L73.7428 19.7128L73.0353 19.8367L72.7892 19.8677H71.6436C71.4028 19.8677 71.1623 19.8498 70.9241 19.8143L70.4513 19.7438L69.8668 19.5889L69.2823 19.372C69.2541 19.3578 69.2208 19.3783 69.2208 19.4099V22.2086C69.2208 23.1769 68.4413 23.9648 67.473 23.9752L66.3529 23.9872C66.3378 23.9874 66.3232 23.9814 66.3125 23.9706C66.3034 23.9615 66.2978 23.9495 66.2965 23.9366L66.2677 23.6467L66.2369 17.1728V9.15L66.2907 7.52663C66.2959 7.37007 66.3129 7.21411 66.3415 7.0601C66.3743 6.88425 66.4221 6.71155 66.4846 6.54392L66.4886 6.53313C66.5463 6.37808 66.6158 6.22768 66.6965 6.08323L66.8522 5.8046L67.129 5.43289L67.4059 5.09216L67.6754 4.82078C67.8031 4.6922 67.9421 4.57539 68.0907 4.47176C68.2082 4.38985 68.3314 4.31641 68.4594 4.252L68.4824 4.24041C68.6259 4.16816 68.7743 4.10625 68.9266 4.05513L69.2516 3.94605L69.8361 3.82215L70.6051 3.72922L71.1588 3.69824ZM72.2208 6.02143C71.9644 6.02143 71.7084 6.04166 71.4551 6.08192L71.2511 6.11436L71.0895 6.16086C70.9105 6.21235 70.7367 6.28042 70.5704 6.36417L70.5595 6.36963C70.4057 6.4471 70.2591 6.5383 70.1216 6.64212L70.0841 6.67045C70.0009 6.73331 69.9222 6.802 69.8487 6.87601C69.7381 6.98744 69.6396 7.11039 69.5551 7.24277L69.5322 7.27868C69.4479 7.41075 69.3772 7.55106 69.3213 7.69744L69.2776 7.81178C69.2603 7.85717 69.2468 7.90395 69.2374 7.95161C69.2264 8.00698 69.2208 8.0633 69.2208 8.11975V15.3597C69.2208 15.4941 69.2372 15.6279 69.2696 15.7584C69.2985 15.8749 69.3401 15.988 69.3935 16.0955L69.4198 16.1486C69.492 16.294 69.5801 16.431 69.6825 16.557L69.6978 16.5758C69.7693 16.6639 69.8478 16.7461 69.9323 16.8218C70.032 16.911 70.1398 16.9907 70.2542 17.0599L70.3119 17.0947C70.466 17.1878 70.6286 17.2662 70.7974 17.3289L70.8472 17.3474C71.0341 17.4167 71.2266 17.4696 71.4227 17.5055L71.4664 17.5135L71.8048 17.5445H72.0855C72.2673 17.5445 72.4487 17.5308 72.6284 17.5037L72.6913 17.4942C72.8792 17.4658 73.0639 17.4195 73.2429 17.3559C73.4118 17.2959 73.5748 17.2207 73.7301 17.1314L73.7509 17.1194C73.8684 17.0518 73.9807 16.9757 74.087 16.8916L74.1506 16.8413C74.2884 16.7323 74.412 16.6065 74.5186 16.4669L74.5319 16.4495C74.6208 16.3332 74.6961 16.2071 74.7563 16.0737C74.7983 15.9805 74.8329 15.8842 74.8596 15.7855L74.8663 15.7607C74.8966 15.649 74.9181 15.5353 74.9308 15.4203L74.9425 15.3142L74.9129 8.23915C74.9121 8.06277 74.8835 7.88761 74.8281 7.72016C74.7815 7.57953 74.7165 7.4457 74.6347 7.32217L74.5984 7.26737C74.5408 7.18028 74.4769 7.09747 74.4073 7.0196L74.3976 7.00873C74.2895 6.88777 74.1692 6.77824 74.0387 6.68186L73.9959 6.65022C73.848 6.54104 73.69 6.44624 73.5241 6.36711L73.4748 6.34358C73.2847 6.25291 73.0867 6.17981 72.8833 6.12519L72.7277 6.08339L72.2662 6.02143H72.2208Z" fill="#FF5F00"/>
<path fill-rule="evenodd" clip-rule="evenodd" d="M40.5508 0.0743108L39.5665 0.043335L39.105 0.0743108L38.0899 0.198214L37.1363 0.38407L36.3057 0.600901L35.4444 0.91066L34.6754 1.25139L33.9986 1.6231L33.5372 1.90189L32.9835 2.2736L32.4913 2.64531L32.0914 2.98604L31.8453 3.20287L31.3839 3.66751L30.9532 4.13215L30.6763 4.47289L30.338 4.90655L29.9688 5.43314L29.5689 6.08363L29.2305 6.73412L28.8614 7.57047L28.5538 8.46877L28.3384 9.27415L28.1846 10.0795L28.0616 11.1017L28.0308 11.8761L28.0616 12.7744L28.1231 13.4249L28.2769 14.3852L28.4615 15.1596L28.8306 16.2747L29.169 17.0801L29.5074 17.7306L29.8765 18.3501L30.2457 18.9076L30.6763 19.4652L31.0455 19.8989L31.2608 20.1467L31.4761 20.3635L31.9991 20.8591L32.3375 21.1379L32.8297 21.5406L33.4449 21.9743L34.0601 22.346L34.8599 22.7487L35.4752 23.0274L36.5826 23.3991L37.4439 23.616L38.4283 23.7709L39.1973 23.8328H40.5508L40.9815 23.8018L41.9351 23.6779L42.7965 23.4921L43.6578 23.2443L44.5499 22.9035L45.3189 22.5318L46.0264 22.1291L46.5494 21.7884L46.98 21.4786L47.3799 21.1689L47.7183 20.8901L48.5797 20.0228L48.8565 19.713L49.2564 19.2174L49.5948 18.7528L49.9639 18.1952L50.3331 17.5447L50.6407 16.8942L50.9175 16.2437L51.2559 15.2215L51.4405 14.4471L51.6251 13.332L51.6866 12.4647V11.4425L51.5943 10.3893L51.4405 9.46L51.2559 8.71658L51.0098 7.94218L50.733 7.22974L50.3331 6.39339L49.9024 5.64997L49.4717 4.99948L49.0718 4.47289L48.7027 4.03922L48.4874 3.79142L48.149 3.45068L47.9029 3.23385L47.5645 2.92409L47.0416 2.49043L46.4879 2.08774L45.8111 1.65408L44.9805 1.22042L44.2115 0.879684L43.4117 0.600901L42.6119 0.38407L41.6583 0.198214L40.5508 0.0743108ZM36.4288 4.41072H36.0596L35.6905 4.4417L35.1675 4.53463L34.7061 4.72048L34.3062 4.96829L33.9986 5.27805L33.7833 5.55683L33.5064 6.08342L33.3218 6.64099L33.168 7.41538L33.0757 8.15881L33.045 8.99515V11.0086L33.0757 11.9688V13.6725L33.045 15.624V17.4516L33.0757 19.4031L33.1373 19.527H35.6905L35.7213 8.8093L35.7828 8.37564L35.9366 7.88002L36.0904 7.63222L36.2442 7.47734L36.4903 7.35343H36.7979L37.1671 7.50831L37.4131 7.72514L37.5977 8.06588L37.7823 8.62344L38.4283 11.1944L39.105 13.7654L39.5665 15.4381L39.8741 16.3674L40.1817 17.0799L40.4893 17.6374L40.7662 18.0711L41.0738 18.4738L41.3199 18.7216L41.7506 19.0623L42.1812 19.2791L42.6734 19.434L43.2271 19.496H43.9654L44.4883 19.4031L44.9498 19.2482L45.4112 19.0004L45.7188 18.7526L46.0572 18.3499L46.3033 17.9162L46.4879 17.3896L46.6109 16.8321L46.6724 16.1816V4.53463L46.6417 4.50365H44.0577L44.0269 4.5656V13.1149L44.0577 15.8098L44.0269 16.2125L43.9039 16.4913L43.6885 16.7391L43.3809 16.894H43.0733L42.858 16.8321L42.5504 16.6462L42.3043 16.3364L42.1197 15.9028L41.7506 14.6018L41.1353 12.4025L40.397 9.80053L39.9356 8.06588L39.6588 7.16758L39.3819 6.42416L39.0743 5.86659L38.7667 5.43293L38.5206 5.18512L38.1207 4.87536L37.7823 4.68951L37.3824 4.53463L36.9517 4.4417L36.4288 4.41072Z" fill="#FF5F00"/>
<path d="M58.0543 3.79126H59.2232L60.2691 3.88419L60.9459 4.00809L61.7149 4.22492L62.2994 4.47273L62.3746 4.5131C62.6314 4.65106 62.8741 4.81391 63.0992 4.99932L63.1843 5.08501C63.3733 5.27536 63.5463 5.481 63.7015 5.69981L63.7759 5.80469L63.9003 6.04254C64.0223 6.27595 64.1251 6.51887 64.2079 6.7689L64.2374 6.85787L64.2989 7.16763L64.3297 7.47739V19.8512C64.3297 19.9156 64.2859 19.9717 64.2235 19.9874C64.2123 19.9902 64.2008 19.9916 64.1892 19.9916H61.46C61.4459 19.9916 61.4325 19.986 61.4226 19.9761C61.4128 19.9662 61.4073 19.9529 61.4073 19.9389V18.9126C61.4073 18.9092 61.4078 18.9058 61.4089 18.9026C61.4184 18.8739 61.3862 18.8494 61.361 18.8663L61.1612 19.0004L60.6382 19.3102L60.0538 19.558L59.5308 19.7129L58.9156 19.8368L58.6695 19.8677H57.4698L56.7623 19.7748L56.5281 19.7128C56.2949 19.651 56.0666 19.5719 55.845 19.4763L55.5318 19.3411L55.0396 19.0624L54.6089 18.7526L54.2706 18.4738L53.9793 18.1806C53.8046 18.0046 53.6435 17.8156 53.4976 17.6151L53.3785 17.4516L53.1939 17.1109L53.118 16.9452C53.0456 16.7874 52.9849 16.6246 52.9362 16.4579C52.8825 16.274 52.8437 16.0861 52.8201 15.8959L52.794 15.686V8.35575C52.794 8.16283 52.809 7.9702 52.8389 7.77961C52.8704 7.57847 52.9184 7.38026 52.9824 7.18697L53.0401 7.01275L53.2862 6.51714L53.5015 6.1764L53.7784 5.83567L54.118 5.49369C54.3014 5.30896 54.4994 5.13922 54.7099 4.9861L54.9473 4.81346L55.4088 4.53468L55.9009 4.28687L56.4854 4.07004L57.1006 3.91516L57.6851 3.82224L58.0543 3.79126ZM58.2356 6.14543C58.0129 6.14543 57.7911 6.17165 57.5745 6.22357C57.3619 6.27456 57.1558 6.34997 56.9605 6.44832L56.7623 6.54811L56.6073 6.64738C56.4853 6.72561 56.3691 6.81506 56.2622 6.91296C56.1454 7.0199 56.0379 7.13864 55.9433 7.26566L55.9269 7.28761C55.8482 7.39326 55.7792 7.50577 55.7206 7.62377L55.6909 7.6836C55.6465 7.77307 55.6109 7.86668 55.5848 7.96309C55.5496 8.09303 55.5318 8.22706 55.5318 8.36168V15.3912C55.5318 15.5253 55.5469 15.6591 55.5769 15.7899C55.6082 15.9266 55.6556 16.0593 55.718 16.1849L55.7402 16.2297C55.8062 16.3625 55.8859 16.4879 55.9781 16.604C56.0496 16.694 56.1283 16.7779 56.2134 16.8551L56.2311 16.8711C56.3389 16.9688 56.4553 17.0565 56.579 17.1331L56.793 17.2658L56.8625 17.3008C57.021 17.3806 57.1857 17.4474 57.355 17.5007L57.4014 17.5153C57.5289 17.5554 57.6591 17.5858 57.7911 17.6062C57.9253 17.627 58.0609 17.6375 58.1968 17.6375H58.3677C58.6708 17.6375 58.9732 17.6092 59.271 17.5529L59.3155 17.5445L59.5139 17.478C59.6889 17.4192 59.8588 17.346 60.0218 17.2591L60.1163 17.2087C60.2384 17.1436 60.3541 17.0672 60.4618 16.9804L60.4772 16.968C60.5639 16.8982 60.6445 16.8211 60.7182 16.7377C60.8082 16.6357 60.8874 16.5247 60.9546 16.4064L61.0114 16.3061C61.0701 16.2028 61.1172 16.0933 61.1519 15.9796C61.1989 15.826 61.2227 15.6663 61.2227 15.5057V8.31787C61.2227 8.15084 61.1979 7.98473 61.1491 7.82499C61.1162 7.71743 61.0727 7.61343 61.0191 7.51453L61.004 7.48666C60.9449 7.37746 60.8757 7.274 60.7974 7.17762L60.7431 7.11082C60.6733 7.02492 60.5968 6.94469 60.5144 6.87088C60.4126 6.77982 60.3022 6.69893 60.1848 6.62935L60.0985 6.57827C59.9255 6.4758 59.7431 6.39031 59.5536 6.32298L59.3155 6.23835C59.0292 6.17658 58.7371 6.14543 58.4443 6.14543H58.2356Z" fill="#FF5F00"/>
<path d="M84.694 3.69824H85.8014L86.5704 3.79117L87.2472 3.94605L87.924 4.19386L88.5392 4.50362L89.0006 4.81337L89.4313 5.15411L89.8312 5.52582L90.108 5.83558L90.4464 6.33119L90.6925 6.82681L90.8771 7.29144L90.9828 7.69056C90.9943 7.73406 91.0001 7.77887 91.0001 7.82387C91.0001 8.11147 90.767 8.34462 90.4794 8.34462H88.3647C88.2313 8.34462 88.1142 8.25609 88.0778 8.12779L88.0085 7.86638C87.9727 7.73124 87.9234 7.60007 87.8612 7.47486L87.8538 7.45994C87.7982 7.34788 87.7316 7.24158 87.6551 7.14256C87.5884 7.05612 87.5143 6.97558 87.4337 6.90183L87.3831 6.85545C87.2722 6.75393 87.153 6.66184 87.0268 6.58013L86.9966 6.56059C86.8563 6.46977 86.7086 6.39083 86.5552 6.32461C86.422 6.26712 86.2848 6.21938 86.1446 6.18175L85.8937 6.11436L85.4323 6.05241H85.3428C85.1361 6.05241 84.9297 6.06791 84.7254 6.09877C84.5202 6.12977 84.3176 6.17618 84.1193 6.2376L84.0172 6.26924L84.0095 6.27236C83.8101 6.35266 83.6196 6.45353 83.4412 6.57333L83.4016 6.59993C83.2994 6.66848 83.2026 6.7446 83.1119 6.82765L83.0645 6.87107C82.9617 6.96517 82.8696 7.07041 82.7901 7.18484C82.7265 7.27638 82.6711 7.37339 82.6246 7.47474L82.5918 7.54648C82.5373 7.66525 82.4952 7.78928 82.466 7.91663L82.4642 7.92466C82.4332 8.05965 82.4176 8.1977 82.4176 8.33619C82.4176 8.48581 82.4358 8.63487 82.4719 8.78009L82.4881 8.84553C82.523 8.98614 82.5732 9.12253 82.6376 9.25229C82.6959 9.36966 82.7656 9.48102 82.8457 9.58473L82.9406 9.70756C83.1041 9.8722 83.2863 10.0171 83.4835 10.1393L83.5865 10.2032L83.6268 10.2219C83.8662 10.3331 84.1142 10.4248 84.3684 10.4959L84.5402 10.5439L85.0016 10.6059H85.6476L86.6012 10.7298L87.2472 10.8846L87.924 11.1325L88.5392 11.4422L89.0929 11.8139L89.4005 12.0617L89.8312 12.4334L90.108 12.7432L90.2417 12.9268C90.378 13.1139 90.5008 13.3105 90.6091 13.5151L90.6925 13.6725L90.9078 14.261C90.9692 14.5286 91.0001 14.8023 91.0001 15.0768V15.2873C91.0001 15.716 90.938 16.1424 90.8156 16.5532L90.6002 17.0488L90.3849 17.4206L90.108 17.7923L89.8312 18.102L89.5851 18.3498L89.1544 18.6906L88.693 19.0003L88.1085 19.3101L87.4625 19.5579L86.755 19.7437L86.3262 19.8102C86.0792 19.8484 85.8297 19.8677 85.5797 19.8677H84.7926C84.5426 19.8677 84.2931 19.8484 84.0461 19.8102L83.6173 19.7437L82.8483 19.5269L82.4393 19.3553C82.2201 19.2633 82.0078 19.1554 81.8043 19.0325L81.4948 18.8454L81.0641 18.5047L80.6949 18.164L80.3566 17.7923L80.049 17.3586L79.8029 16.894L79.649 16.4913L79.526 15.9957L79.5022 15.8516C79.4976 15.8238 79.4952 15.7956 79.4952 15.7675C79.4952 15.4829 79.7259 15.2522 80.0105 15.2522H82.3312C82.3471 15.2522 82.3624 15.2586 82.3736 15.2699C82.3822 15.2786 82.388 15.2897 82.3901 15.3017L82.4552 15.6733C82.4711 15.764 82.4969 15.8528 82.5321 15.9379L82.5737 16.0383C82.6131 16.1336 82.6595 16.226 82.7123 16.3147L82.7214 16.33C82.7853 16.4373 82.8594 16.5381 82.9426 16.6312C83.0434 16.7441 83.1571 16.8447 83.2812 16.9313L83.3427 16.9742C83.4436 17.0445 83.5494 17.1076 83.6593 17.1629L83.6852 17.176C83.8447 17.2563 84.011 17.3222 84.1822 17.3729L84.1928 17.376C84.3625 17.4263 84.5363 17.462 84.7121 17.4828L84.9708 17.5135H85.206C85.3976 17.5135 85.589 17.4998 85.7786 17.4725L85.9241 17.4516C86.0676 17.4309 86.2089 17.3974 86.3463 17.3512C86.4546 17.3149 86.5601 17.2709 86.6621 17.2195L86.7719 17.1642C86.9244 17.0875 87.0696 16.9971 87.2058 16.8942L87.3065 16.8182C87.4305 16.7245 87.5422 16.6156 87.6389 16.4939C87.7057 16.4097 87.7651 16.3198 87.8164 16.2253L87.8312 16.1979C87.8929 16.084 87.9444 15.9648 87.9852 15.8417L88.0182 15.742C88.0374 15.684 88.052 15.6247 88.062 15.5645C88.0725 15.501 88.0778 15.4367 88.0778 15.3724V15.2862C88.0778 15.1197 88.0562 14.9539 88.0136 14.793L88.0119 14.7867C87.9739 14.6433 87.919 14.5048 87.8483 14.3744C87.7963 14.2783 87.736 14.187 87.668 14.1015L87.524 13.9203C87.3605 13.7556 87.1797 13.6089 86.9848 13.4827L86.8473 13.3937L86.7847 13.3643C86.5194 13.2396 86.2433 13.1391 85.9599 13.064L85.8014 13.022C85.658 13.0014 85.5134 12.991 85.3685 12.991H84.9093L84.6324 12.96L83.9249 12.8671L83.3405 12.7432L82.6022 12.4954L82.0485 12.2476L81.4948 11.9069L81.1256 11.6281L80.7565 11.2873L80.6806 11.2109C80.5058 11.035 80.3448 10.8459 80.1988 10.6455L80.0797 10.482L80.0331 10.3999C79.9003 10.1659 79.7872 9.92133 79.6947 9.66868L79.6183 9.45976L79.6098 9.42136C79.5337 9.07627 79.4952 8.72392 79.4952 8.37053V8.29686C79.4952 7.93753 79.5365 7.57939 79.6183 7.22949L79.8029 6.73388L80.049 6.26924L80.3566 5.83558L80.7257 5.43289L80.9718 5.18508L81.4948 4.7824L81.9869 4.47264L82.4791 4.22483L83.0328 4.008L83.7711 3.82215L84.3556 3.72922L84.694 3.69824Z" fill="#FF5F00"/>
</g>
<defs>
<clipPath id="clip0_360_1147">
<rect width="63" height="24" fill="white" transform="translate(28.0001)"/>
</clipPath>
</defs>
</svg>
