<svg width="84" height="32" viewBox="0 0 84 32" fill="none" xmlns="http://www.w3.org/2000/svg">
<g clip-path="url(#clip0_360_1316)">
<path d="M57.545 4.93103H59.5137L60.5391 5.05493L61.5235 5.30274L62.3848 5.63315L63.0411 5.96356L63.6563 6.33527L64.1895 6.74828L64.7637 7.2439L65.0919 7.57431L65.543 8.15252L65.9122 8.77204L66.0491 9.08725C66.1491 9.31731 66.2311 9.55474 66.2946 9.79743L66.4044 10.2176L66.4454 10.5067V10.8544C66.4454 10.8977 66.4523 10.9406 66.4659 10.9817C66.4795 11.0227 66.4864 11.0656 66.4864 11.1089V20.1712L66.4454 20.9559L66.3583 21.4161C66.3071 21.687 66.2329 21.9531 66.1367 22.2115L66.0352 22.484L65.8821 22.7731C65.7656 22.9931 65.6324 23.2038 65.4837 23.4035L65.338 23.5992L64.9688 24.0535L64.5587 24.4665L64.0255 24.8795L63.6153 25.1686L62.836 25.6229L61.8516 26.0359L60.9903 26.2837L60.0469 26.4489L59.7188 26.4902H58.0708C57.83 26.4902 57.5895 26.4724 57.3513 26.4369L56.6016 26.325L55.8223 26.1185L55.043 25.8294C55.0054 25.8105 54.961 25.8378 54.961 25.88V29.6115C54.961 30.9026 53.9217 31.9531 52.6306 31.967L51.1372 31.983C51.1169 31.9832 51.0975 31.9752 51.0833 31.9609C51.0711 31.9487 51.0636 31.9327 51.0619 31.9155L51.0235 31.529L50.9825 22.897V12.2L51.0541 10.0356C51.0611 9.82679 51.0837 9.61885 51.122 9.41351C51.1656 9.17904 51.2294 8.94877 51.3127 8.72526L51.318 8.71088C51.395 8.50415 51.4877 8.30361 51.5953 8.11102L51.8028 7.73951L52.1719 7.2439L52.5411 6.78958L52.9004 6.42774C53.0707 6.25631 53.256 6.10056 53.4542 5.96238C53.6109 5.85317 53.7751 5.75525 53.9457 5.66937L53.9764 5.65391C54.1677 5.55759 54.3657 5.47504 54.5687 5.40688L55.002 5.26144L55.7813 5.09623L56.8067 4.97233L57.545 4.93103ZM58.8326 8.02862C58.5761 8.02862 58.3201 8.04884 58.0669 8.08911L57.668 8.15252L57.4526 8.21451C57.2139 8.28317 56.9822 8.37393 56.7604 8.4856L56.7459 8.49288C56.5408 8.59617 56.3454 8.71777 56.1621 8.8562L56.1121 8.89397C56.0011 8.97778 55.8962 9.06937 55.7982 9.16805C55.6507 9.31663 55.5194 9.48056 55.4067 9.65706L55.3762 9.70494C55.2637 9.88104 55.1695 10.0681 55.095 10.2633L55.0368 10.4157C55.0136 10.4763 54.9957 10.5386 54.9831 10.6022C54.9684 10.676 54.961 10.7511 54.961 10.8264V20.4796C54.961 20.6588 54.9828 20.8373 55.026 21.0112C55.0646 21.1666 55.12 21.3173 55.1912 21.4608L55.2263 21.5315C55.3226 21.7254 55.44 21.908 55.5765 22.076L55.5969 22.1011C55.6924 22.2185 55.7969 22.3282 55.9097 22.4291C56.0426 22.5481 56.1863 22.6543 56.3389 22.7466L56.4157 22.793C56.6212 22.9171 56.838 23.0217 57.0631 23.1052L57.1295 23.1298C57.3787 23.2223 57.6354 23.2928 57.8968 23.3407L57.9551 23.3514L58.4063 23.3927H58.7806C59.0229 23.3927 59.2649 23.3745 59.5045 23.3383L59.5883 23.3256C59.8388 23.2878 60.0851 23.226 60.3238 23.1412C60.5489 23.0612 60.7664 22.961 60.9734 22.8418L61.0012 22.8259C61.1578 22.7358 61.3075 22.6343 61.4492 22.5221L61.534 22.455C61.7177 22.3097 61.8825 22.1421 62.0247 21.956L62.0425 21.9327C62.161 21.7776 62.2613 21.6095 62.3416 21.4316C62.3977 21.3074 62.4437 21.1789 62.4794 21.0474L62.4883 21.0143C62.5287 20.8654 62.5574 20.7137 62.5743 20.5604L62.5899 20.419L62.5504 10.9856C62.5494 10.7504 62.5112 10.5169 62.4373 10.2936C62.3753 10.1061 62.2886 9.92763 62.1795 9.76294L62.1312 9.68987C62.0543 9.57375 61.9691 9.46334 61.8763 9.3595L61.8634 9.34502C61.7192 9.18373 61.5589 9.03769 61.3848 8.90919L61.3277 8.867C61.1306 8.72142 60.92 8.59502 60.6988 8.48952L60.633 8.45815C60.3795 8.33725 60.1156 8.23978 59.8444 8.16696L59.6368 8.11122L59.0216 8.02862H58.8326Z" fill="white"/>
<path fill-rule="evenodd" clip-rule="evenodd" d="M16.7344 0.0990709L15.4219 0.0577698L14.8066 0.0990709L13.4531 0.264276L12.1816 0.512083L11.0742 0.801191L9.92578 1.2142L8.90039 1.66852L7.99805 2.16413L7.38281 2.53584L6.64453 3.03145L5.98828 3.52707L5.45508 3.98138L5.12695 4.27049L4.51172 4.89001L3.9375 5.50952L3.56836 5.96384L3.11719 6.54205L2.625 7.24417L2.0918 8.1115L1.64063 8.97882L1.14844 10.094L0.738281 11.2917L0.451172 12.3655L0.246094 13.4393L0.0820313 14.8023L0.0410156 15.8348L0.0820313 17.0326L0.164063 17.8999L0.369141 19.1802L0.615234 20.2127L1.10742 21.6996L1.55859 22.7734L2.00977 23.6407L2.50195 24.4668L2.99414 25.2102L3.56836 25.9536L4.06055 26.5318L4.34766 26.8622L4.63477 27.1513L5.33203 27.8122L5.7832 28.1839L6.43945 28.7208L7.25977 29.299L8.08008 29.7946L9.14649 30.3315L9.9668 30.7032L11.4434 31.1989L12.5918 31.488L13.9043 31.6945L14.9297 31.7771H16.7344L17.3086 31.7358L18.5801 31.5706L19.7285 31.3228L20.877 30.9923L22.0664 30.538L23.0918 30.0424L24.0352 29.5055L24.7324 29.0512L25.3066 28.6382L25.8398 28.2252L26.291 27.8535L27.4395 26.697L27.8086 26.284L28.3418 25.6232L28.793 25.0037L29.2852 24.2603L29.7773 23.3929L30.1875 22.5256L30.5566 21.6583L31.0078 20.2953L31.2539 19.2628L31.5 17.776L31.582 16.6195V15.2566L31.459 13.8524L31.2539 12.6133L31.0078 11.6221L30.6797 10.5896L30.3105 9.63964L29.7773 8.52451L29.2031 7.53328L28.6289 6.66596L28.0957 5.96384L27.6035 5.38562L27.3164 5.05521L26.8652 4.6009L26.5371 4.31179L26.0859 3.89878L25.3887 3.32056L24.6504 2.78365L23.748 2.20543L22.6406 1.62721L21.6152 1.1729L20.5488 0.801191L19.4824 0.512083L18.2109 0.264276L16.7344 0.0990709ZM11.2383 5.88096H10.7461L10.2539 5.92226L9.55664 6.04616L8.94141 6.29397L8.4082 6.62438L7.99805 7.03739L7.71094 7.4091L7.3418 8.11122L7.0957 8.85464L6.89062 9.88717L6.76758 10.8784L6.72656 11.9935V14.6781L6.76758 15.9584V18.23L6.72656 20.832V23.2688L6.76758 25.8707L6.84961 26.0359H10.2539L10.2949 11.7457L10.377 11.1675L10.582 10.5067L10.7871 10.1763L10.9922 9.96977L11.3203 9.80457H11.7305L12.2227 10.0111L12.5508 10.3002L12.7969 10.7545L13.043 11.4979L13.9043 14.9259L14.8066 18.3539L15.4219 20.5842L15.832 21.8232L16.2422 22.7731L16.6523 23.5166L17.0215 24.0948L17.4316 24.6317L17.7598 24.9621L18.334 25.4164L18.9082 25.7055L19.5645 25.912L20.3027 25.9946H21.2871L21.9844 25.8707L22.5996 25.6642L23.2148 25.3338L23.625 25.0034L24.0762 24.4665L24.4043 23.8883L24.6504 23.1861L24.8145 22.4427L24.8965 21.5754V6.04616L24.8555 6.00486H21.4102L21.3691 6.08746V17.4866L21.4102 21.0798L21.3691 21.6167L21.2051 21.9884L20.918 22.3188L20.5078 22.5253H20.0977L19.8105 22.4427L19.4004 22.1949L19.0723 21.7819L18.8262 21.2037L18.334 19.469L17.5137 16.5367L16.5293 13.0674L15.9141 10.7545L15.5449 9.55676L15.1758 8.56553L14.7656 7.82211L14.3555 7.2439L14.0273 6.91349L13.4941 6.50048L13.043 6.25267L12.5098 6.04616L11.9355 5.92226L11.2383 5.88096Z" fill="white"/>
<path d="M40.0723 5.05493H41.6309L43.0254 5.17884L43.9277 5.34404L44.9531 5.63315L45.7324 5.96356L45.9247 6.06681C46.206 6.21788 46.4718 6.39622 46.7182 6.59925L46.7988 6.66568L47.007 6.87527C47.196 7.06563 47.369 7.27126 47.5242 7.49007L47.7012 7.73951L47.928 8.17353C48.05 8.40695 48.1529 8.64986 48.2357 8.8999L48.3164 9.14375L48.3984 9.55676L48.4395 9.96977V26.4682C48.4395 26.554 48.3811 26.6288 48.2979 26.6498C48.283 26.6535 48.2676 26.6554 48.2522 26.6554H44.6132C44.5945 26.6554 44.5766 26.648 44.5634 26.6347C44.5503 26.6215 44.543 26.6037 44.543 26.5852V25.2167C44.543 25.2122 44.5437 25.2077 44.5451 25.2034C44.5578 25.1651 44.5148 25.1324 44.4813 25.1549L44.2148 25.3338L43.5176 25.7468L42.7383 26.0772L42.041 26.2837L41.2207 26.4489L40.8926 26.4902H39.293L38.3496 26.3663L37.9206 26.2527C37.6874 26.1909 37.4591 26.1118 37.2376 26.0162L36.709 25.7881L36.0527 25.4164L35.4785 25.0034L35.0273 24.6317L34.5515 24.1526C34.3768 23.9766 34.2158 23.7876 34.0698 23.5872L33.8379 23.2687L33.5918 22.8144L33.4906 22.5936C33.3941 22.3831 33.3131 22.166 33.2482 21.9438C33.1766 21.6986 33.1248 21.448 33.0933 21.1945L33.0586 20.9146V11.1345C33.0586 10.8815 33.0783 10.629 33.1175 10.3791L33.1195 10.366C33.1609 10.1023 33.2238 9.84242 33.3077 9.589L33.3867 9.35025L33.7148 8.68943L34.002 8.23512L34.3711 7.78081L34.9158 7.23232C35.0992 7.04759 35.2972 6.87786 35.5077 6.72473L35.9297 6.41787L36.5449 6.04616L37.2012 5.71575L37.9805 5.42664L38.8008 5.22014L39.5801 5.09623L40.0723 5.05493ZM40.3141 8.19382C40.0172 8.19382 39.7213 8.22879 39.4326 8.29801C39.1491 8.36599 38.8743 8.46655 38.6139 8.59768L38.3496 8.73074L38.1431 8.8631C37.9803 8.9674 37.8254 9.08666 37.6828 9.2172C37.5271 9.35979 37.3838 9.51811 37.2576 9.68746L37.2358 9.71673C37.1309 9.85761 37.0388 10.0076 36.9607 10.1649L36.9211 10.2447C36.8619 10.364 36.8145 10.4888 36.7797 10.6174C36.7328 10.7906 36.709 10.9693 36.709 11.1488V20.5215C36.709 20.7004 36.7292 20.8787 36.7691 21.0531C36.8109 21.2355 36.8741 21.4123 36.9573 21.5798L36.9869 21.6395C37.0748 21.8165 37.1811 21.9838 37.3041 22.1386C37.3994 22.2586 37.5043 22.3705 37.6178 22.4734L37.6414 22.4947C37.7851 22.625 37.9404 22.7419 38.1053 22.8441L38.3906 23.0209L38.4833 23.0676C38.6946 23.174 38.9142 23.2631 39.1399 23.3341L39.2018 23.3536C39.3717 23.4071 39.5454 23.4476 39.7214 23.4749C39.9004 23.5026 40.0812 23.5166 40.2623 23.5166H40.6414C40.9449 23.5166 41.2478 23.4882 41.546 23.4319L41.7539 23.3927L42.0184 23.3039C42.2518 23.2255 42.4783 23.1279 42.6956 23.0121L42.8217 22.9449C42.9845 22.8581 43.1387 22.7562 43.2824 22.6405L43.3029 22.6239C43.4185 22.5308 43.5259 22.4281 43.6242 22.3168C43.7442 22.1809 43.8498 22.0328 43.9393 21.8751L44.0151 21.7414C44.0934 21.6036 44.1562 21.4576 44.2025 21.3061C44.2651 21.1013 44.2969 20.8883 44.2969 20.6742V11.0904C44.2969 10.8677 44.2638 10.6462 44.1987 10.4332C44.1549 10.2898 44.0968 10.1512 44.0254 10.0193L44.0053 9.98214C43.9264 9.83654 43.8342 9.69859 43.7298 9.57008L43.6574 9.48101C43.5643 9.36649 43.4623 9.25951 43.3524 9.1611C43.2167 9.03968 43.0696 8.93182 42.9129 8.83905L42.798 8.77095C42.5673 8.63432 42.324 8.52033 42.0714 8.43056L41.7539 8.31772L41.6881 8.30352C41.3501 8.23059 41.0053 8.19382 40.6596 8.19382H40.3141Z" fill="white"/>
<path d="M75.5919 4.93103H77.0684L78.0938 5.05493L78.9962 5.26144L79.8985 5.59185L80.7188 6.00486L81.3341 6.41787L81.9083 6.87219L82.4415 7.3678L82.8106 7.78081L83.2618 8.44163L83.5899 9.10245L83.836 9.72197L83.9769 10.2541C83.9923 10.3121 84.0001 10.3719 84.0001 10.4319C84.0001 10.8153 83.6892 11.1262 83.3057 11.1262H80.4861C80.3083 11.1262 80.1521 11.0082 80.1036 10.8371L80.0113 10.4885C79.9636 10.3084 79.8978 10.1335 79.8149 9.96653L79.805 9.94663C79.7308 9.79722 79.6421 9.65548 79.5401 9.52345C79.4511 9.4082 79.3523 9.30082 79.2449 9.20248L79.1773 9.14064C79.0295 9.00528 78.8706 8.88249 78.7023 8.77355L78.662 8.74749C78.475 8.6264 78.2781 8.52115 78.0735 8.43286C77.8959 8.3562 77.7129 8.29254 77.5261 8.24237L77.1915 8.15252L76.5762 8.06992H76.4092C76.1654 8.06992 75.922 8.0882 75.681 8.12461L75.5863 8.1389C75.3443 8.17546 75.1053 8.2302 74.8715 8.30266L74.6895 8.35903L74.6792 8.36319C74.4134 8.47026 74.1594 8.60475 73.9215 8.76448L73.8687 8.79995C73.7325 8.89135 73.6034 8.99284 73.4824 9.10357L73.4192 9.16147C73.2821 9.28694 73.1594 9.42725 73.0534 9.57983C72.9685 9.70188 72.8947 9.83123 72.8328 9.96636L72.7889 10.062C72.7163 10.2204 72.6601 10.3858 72.6212 10.5556L72.6188 10.5663C72.5775 10.7462 72.5567 10.9303 72.5567 11.115C72.5567 11.3145 72.581 11.5132 72.6291 11.7068L72.6507 11.7941C72.6973 11.9816 72.7641 12.1634 72.85 12.3364C72.9277 12.4929 73.0207 12.6414 73.1275 12.7797L73.254 12.9435C73.472 13.163 73.7149 13.3562 73.9779 13.5191L74.1153 13.6043L74.2888 13.6849C74.5282 13.7962 74.7762 13.8878 75.0305 13.9589L75.3868 14.0586L76.002 14.1412H76.8634L78.1348 14.3064L78.9962 14.5129L79.8985 14.8433L80.7188 15.2563L81.4571 15.7519L81.8673 16.0823L82.4415 16.578L82.8106 16.991L83.0571 17.3294C83.1934 17.5166 83.3162 17.7132 83.4245 17.9177L83.5899 18.23L83.877 19.0147C83.9588 19.3715 84.0001 19.7364 84.0001 20.1025V20.5341C84.0001 21.0055 83.9317 21.4745 83.7971 21.9263L83.754 22.071L83.4669 22.7318L83.1798 23.2274L82.8106 23.7231L82.4415 24.1361L82.1134 24.4665L81.5391 24.9208L80.9239 25.3338L80.1446 25.7468L79.2833 26.0772L78.3399 26.325L77.6445 26.4328C77.3976 26.471 77.148 26.4902 76.898 26.4902H75.5982C75.3482 26.4902 75.0987 26.471 74.8517 26.4328L74.1563 26.325L73.1309 26.0359L72.4759 25.7611C72.2566 25.6691 72.0444 25.5612 71.8409 25.4382L71.3262 25.1273L70.752 24.673L70.2598 24.2187L69.8087 23.7231L69.3985 23.1448L69.0704 22.5253L68.8653 21.9884L68.7012 21.3276L68.6694 21.1355C68.6633 21.0984 68.6602 21.0609 68.6602 21.0233C68.6602 20.6439 68.9678 20.3364 69.3472 20.3364H72.4415C72.4627 20.3364 72.4831 20.3448 72.4981 20.3599C72.5095 20.3715 72.5172 20.3863 72.52 20.4023L72.6068 20.8978C72.628 21.0188 72.6624 21.137 72.7094 21.2505L72.7648 21.3844C72.8174 21.5116 72.8792 21.6348 72.9496 21.753L72.9618 21.7734C73.047 21.9164 73.1458 22.0509 73.2567 22.175C73.3911 22.3254 73.5427 22.4597 73.7082 22.5751L73.7902 22.6323C73.9247 22.7261 74.0658 22.8102 74.2123 22.8839L74.2469 22.9013C74.4595 23.0084 74.6813 23.0962 74.9095 23.1638L74.9236 23.168C75.15 23.2351 75.3816 23.2827 75.616 23.3105L75.961 23.3514H76.3093C76.5417 23.3514 76.7737 23.3347 77.0036 23.3017L77.2321 23.2688C77.4234 23.2413 77.6118 23.1965 77.795 23.135C77.9393 23.0866 78.08 23.0279 78.216 22.9594L78.3625 22.8857C78.5658 22.7833 78.7594 22.6628 78.941 22.5257L79.0753 22.4243C79.2406 22.2994 79.3895 22.1541 79.5184 21.9919C79.6076 21.8797 79.6868 21.7598 79.755 21.6338L79.7748 21.5972C79.8571 21.4453 79.9258 21.2864 79.9801 21.1224L80.0241 20.9894C80.0497 20.9121 80.0692 20.8329 80.0825 20.7526C80.0965 20.668 80.1036 20.5824 80.1036 20.4966V20.3816C80.1036 20.1596 80.0748 19.9386 80.018 19.7241L80.0158 19.7157C79.9651 19.5244 79.8919 19.3398 79.7977 19.1659C79.7283 19.0378 79.6479 18.9161 79.5573 18.8021L79.3653 18.5604C79.1472 18.3408 78.9061 18.1452 78.6463 17.977L78.463 17.8583L78.2466 17.7566C77.9812 17.6319 77.7052 17.5314 77.4218 17.4563L77.0684 17.3627C76.8773 17.3352 76.6844 17.3214 76.4913 17.3214H75.879L75.5098 17.2801L74.5665 17.1562L73.7872 16.991L72.8028 16.6606L72.0645 16.3302L71.3262 15.8758L70.8341 15.5041L70.3419 15.0498L70.1532 14.8598C69.9784 14.6839 69.8174 14.4948 69.6714 14.2944L69.4395 13.976L69.3109 13.7493C69.1781 13.5154 69.0649 13.2708 68.9725 13.0182L68.8243 12.613L68.7748 12.3888C68.6986 12.0437 68.6602 11.6914 68.6602 11.338V10.9036C68.6602 10.5301 68.7031 10.1578 68.7881 9.7941L68.8243 9.63936L69.0704 8.97855L69.3985 8.35903L69.8087 7.78081L70.3009 7.2439L70.629 6.91349L71.3262 6.37657L71.9825 5.96356L72.6387 5.63315L73.377 5.34404L74.3614 5.09623L75.1407 4.97233L75.5919 4.93103Z" fill="white"/>
</g>
<defs>
<clipPath id="clip0_360_1316">
<rect width="84" height="32" fill="white"/>
</clipPath>
</defs>
</svg>
