<svg width="63" height="24" viewBox="0 0 63 24" fill="none" xmlns="http://www.w3.org/2000/svg">
<g clip-path="url(#clip0_360_1317)">
<path d="M43.1587 3.69827H44.6353L45.4043 3.7912L46.1426 3.97706L46.7886 4.22486L47.2808 4.47267L47.7422 4.75145L48.1421 5.06121L48.5728 5.43292L48.8189 5.68073L49.1573 6.11439L49.4341 6.57903L49.4993 6.72904C49.5993 6.9591 49.6813 7.19653 49.7447 7.43922L49.8033 7.66319L49.834 7.88002V8.14083C49.834 8.17325 49.8392 8.20546 49.8494 8.23624C49.8596 8.26702 49.8648 8.29923 49.8648 8.33165V15.1284L49.834 15.7169L49.788 15.9603C49.7367 16.2312 49.6626 16.4973 49.5664 16.7557L49.5264 16.863L49.4554 16.9972C49.3388 17.2172 49.2056 17.4279 49.0569 17.6276L49.0035 17.6994L48.7266 18.0401L48.419 18.3499L48.0191 18.6596L47.7115 18.8765L47.127 19.2172L46.3887 19.527L45.7427 19.7128L45.0352 19.8367L44.7891 19.8677H43.6435C43.4027 19.8677 43.1622 19.8498 42.924 19.8143L42.4512 19.7438L41.8667 19.5889L41.2823 19.3721C41.254 19.3579 41.2207 19.3784 41.2207 19.41V22.2086C41.2207 23.177 40.4413 23.9649 39.473 23.9752L38.3529 23.9872C38.3377 23.9874 38.3231 23.9814 38.3124 23.9707C38.3033 23.9615 38.2977 23.9495 38.2964 23.9367L38.2676 23.6467L38.2369 17.1728V9.15003L38.2906 7.52666C38.2958 7.3701 38.3128 7.21414 38.3415 7.06013C38.3742 6.88428 38.4221 6.71158 38.4845 6.54395L38.4885 6.53316C38.5462 6.37811 38.6158 6.22771 38.6964 6.08327L38.8521 5.80463L39.129 5.43292L39.4058 5.09219L39.6753 4.82081C39.803 4.69223 39.942 4.57542 40.0907 4.47179C40.2082 4.38988 40.3313 4.31644 40.4593 4.25203L40.4823 4.24044C40.6258 4.16819 40.7742 4.10628 40.9265 4.05516L41.2515 3.94608L41.836 3.82218L42.605 3.72925L43.1587 3.69827ZM44.2207 6.02146C43.9643 6.02146 43.7083 6.04169 43.4551 6.08195L43.251 6.11439L43.0894 6.16089C42.9104 6.21238 42.7366 6.28045 42.5703 6.3642L42.5594 6.36966C42.4056 6.44713 42.259 6.53833 42.1215 6.64215L42.084 6.67048C42.0008 6.73334 41.9221 6.80203 41.8486 6.87604C41.738 6.98747 41.6396 7.11042 41.555 7.2428L41.5321 7.27871C41.4478 7.41078 41.3771 7.55109 41.3212 7.69747L41.2776 7.81181C41.2602 7.8572 41.2468 7.90398 41.2373 7.95164C41.2263 8.00701 41.2207 8.06333 41.2207 8.11978V15.3597C41.2207 15.4941 41.2371 15.628 41.2695 15.7584C41.2984 15.875 41.34 15.988 41.3934 16.0956L41.4197 16.1486C41.4919 16.294 41.58 16.431 41.6824 16.557L41.6977 16.5758C41.7693 16.6639 41.8477 16.7462 41.9323 16.8219C42.0319 16.9111 42.1397 16.9908 42.2542 17.0599L42.3118 17.0947C42.4659 17.1879 42.6285 17.2663 42.7973 17.3289L42.8471 17.3474C43.034 17.4167 43.2266 17.4696 43.4226 17.5055L43.4664 17.5135L43.8047 17.5445H44.0855C44.2672 17.5445 44.4487 17.5309 44.6284 17.5037L44.6912 17.4942C44.8791 17.4659 45.0638 17.4195 45.2429 17.3559C45.4117 17.2959 45.5748 17.2208 45.7301 17.1314L45.7509 17.1194C45.8683 17.0518 45.9806 16.9757 46.0869 16.8916L46.1505 16.8413C46.2883 16.7323 46.4119 16.6066 46.5185 16.467L46.5319 16.4495C46.6207 16.3332 46.696 16.2071 46.7562 16.0737C46.7983 15.9806 46.8328 15.8842 46.8595 15.7855L46.8663 15.7607C46.8965 15.6491 46.918 15.5353 46.9307 15.4203L46.9424 15.3142L46.9128 8.23918C46.912 8.0628 46.8834 7.88764 46.828 7.72019C46.7814 7.57956 46.7164 7.44573 46.6346 7.3222L46.5984 7.26741C46.5407 7.18031 46.4768 7.09751 46.4072 7.01963L46.3975 7.00876C46.2894 6.8878 46.1691 6.77827 46.0386 6.68189L45.9958 6.65025C45.8479 6.54107 45.69 6.44627 45.5241 6.36714L45.4747 6.34361C45.2847 6.25294 45.0867 6.17984 44.8833 6.12522L44.7276 6.08342L44.2662 6.02146H44.2207Z" fill="#FF5F00"/>
<path fill-rule="evenodd" clip-rule="evenodd" d="M12.5508 0.0743108L11.5664 0.043335L11.105 0.0743108L10.0898 0.198214L9.13623 0.38407L8.30567 0.600901L7.44434 0.91066L6.67529 1.25139L5.99854 1.6231L5.53711 1.90189L4.9834 2.2736L4.49121 2.64531L4.09131 2.98604L3.84522 3.20287L3.38379 3.66751L2.95313 4.13215L2.67627 4.47289L2.33789 4.90655L1.96875 5.43314L1.56885 6.08363L1.23047 6.73412L0.861328 7.57047L0.553711 8.46877L0.338379 9.27415L0.18457 10.0795L0.0615234 11.1017L0.0307617 11.8761L0.0615234 12.7744L0.123047 13.4249L0.276856 14.3852L0.461426 15.1596L0.830567 16.2747L1.16895 17.0801L1.50732 17.7306L1.87647 18.3501L2.24561 18.9076L2.67627 19.4652L3.04541 19.8989L3.26074 20.1467L3.47607 20.3635L3.99902 20.8591L4.3374 21.1379L4.82959 21.5406L5.44483 21.9743L6.06006 22.346L6.85986 22.7487L7.4751 23.0274L8.58252 23.3991L9.44385 23.616L10.4282 23.7709L11.1973 23.8328H12.5508L12.9814 23.8018L13.9351 23.6779L14.7964 23.4921L15.6577 23.2443L16.5498 22.9035L17.3189 22.5318L18.0264 22.1291L18.5493 21.7884L18.98 21.4786L19.3799 21.1689L19.7183 20.8901L20.5796 20.0228L20.8564 19.713L21.2564 19.2174L21.5947 18.7528L21.9639 18.1952L22.333 17.5447L22.6406 16.8942L22.9175 16.2437L23.2559 15.2215L23.4404 14.4471L23.625 13.332L23.6865 12.4647V11.4425L23.5942 10.3893L23.4404 9.46L23.2559 8.71658L23.0098 7.94218L22.7329 7.22974L22.333 6.39339L21.9023 5.64997L21.4717 4.99948L21.0718 4.47289L20.7026 4.03922L20.4873 3.79142L20.1489 3.45068L19.9028 3.23385L19.5645 2.92409L19.0415 2.49043L18.4878 2.08774L17.811 1.65408L16.9805 1.22042L16.2114 0.879684L15.4116 0.600901L14.6118 0.38407L13.6582 0.198214L12.5508 0.0743108ZM8.42871 4.41072H8.05957L7.69043 4.4417L7.16748 4.53463L6.70605 4.72048L6.30615 4.96829L5.99854 5.27805L5.7832 5.55683L5.50635 6.08342L5.32178 6.64099L5.16797 7.41538L5.07568 8.15881L5.04492 8.99515V11.0086L5.07568 11.9688V13.6725L5.04492 15.624V17.4516L5.07568 19.4031L5.13721 19.527H7.69043L7.72119 8.8093L7.78272 8.37564L7.93652 7.88002L8.09033 7.63222L8.24414 7.47734L8.49023 7.35343H8.79785L9.16699 7.50831L9.41309 7.72514L9.59766 8.06588L9.78223 8.62344L10.4282 11.1944L11.105 13.7654L11.5664 15.4381L11.874 16.3674L12.1816 17.0799L12.4893 17.6374L12.7661 18.0711L13.0737 18.4738L13.3198 18.7216L13.7505 19.0623L14.1812 19.2791L14.6733 19.434L15.2271 19.496H15.9653L16.4883 19.4031L16.9497 19.2482L17.4111 19.0004L17.7188 18.7526L18.0571 18.3499L18.3032 17.9162L18.4878 17.3896L18.6108 16.8321L18.6724 16.1816V4.53463L18.6416 4.50365H16.0576L16.0269 4.5656V13.1149L16.0576 15.8098L16.0269 16.2125L15.9038 16.4913L15.6885 16.7391L15.3809 16.894H15.0732L14.8579 16.8321L14.5503 16.6462L14.3042 16.3364L14.1196 15.9028L13.7505 14.6018L13.1353 12.4025L12.397 9.80053L11.9355 8.06588L11.6587 7.16758L11.3818 6.42416L11.0742 5.86659L10.7666 5.43293L10.5205 5.18512L10.1206 4.87536L9.78223 4.68951L9.38233 4.53463L8.95166 4.4417L8.42871 4.41072Z" fill="#FF5F00"/>
<path d="M30.0542 3.7912H31.2231L32.269 3.88413L32.9458 4.00803L33.7148 4.22486L34.2993 4.47267L34.3745 4.51304C34.6314 4.651 34.8741 4.81385 35.0991 4.99926L35.1842 5.08495C35.3733 5.2753 35.5463 5.48093 35.7015 5.69975L35.7759 5.80463L35.9002 6.04247C36.0222 6.27589 36.1251 6.5188 36.2079 6.76884L36.2373 6.85781L36.2988 7.16757L36.3296 7.47733V19.8511C36.3296 19.9155 36.2858 19.9716 36.2234 19.9873C36.2122 19.9902 36.2007 19.9916 36.1891 19.9916H33.4599C33.4459 19.9916 33.4324 19.986 33.4225 19.976C33.4127 19.9661 33.4072 19.9528 33.4072 19.9389V18.9125C33.4072 18.9092 33.4078 18.9058 33.4088 18.9026C33.4183 18.8738 33.3861 18.8493 33.361 18.8662L33.1611 19.0004L32.6382 19.3101L32.0537 19.5579L31.5308 19.7128L30.9155 19.8367L30.6694 19.8677H29.4697L28.7622 19.7747L28.5281 19.7127C28.2948 19.6509 28.0665 19.5719 27.845 19.4763L27.5317 19.3411L27.0396 19.0623L26.6089 18.7525L26.2705 18.4738L25.9793 18.1805C25.8045 18.0046 25.6435 17.8155 25.4975 17.6151L25.3784 17.4516L25.1938 17.1108L25.1179 16.9452C25.0456 16.7874 24.9848 16.6245 24.9362 16.4579C24.8825 16.2739 24.8436 16.086 24.82 15.8959L24.7939 15.6859V8.35569C24.7939 8.16277 24.809 7.97014 24.8388 7.77955C24.8704 7.57841 24.9184 7.3802 24.9824 7.18691L25.04 7.01269L25.2861 6.51708L25.5015 6.17634L25.7783 5.83561L26.1179 5.49362C26.3014 5.3089 26.4993 5.13916 26.7099 4.98604L26.9473 4.8134L27.4087 4.53462L27.9009 4.28681L28.4854 4.06998L29.1006 3.9151L29.6851 3.82217L30.0542 3.7912ZM30.2356 6.14537C30.0129 6.14537 29.791 6.17159 29.5745 6.22351C29.3618 6.27449 29.1557 6.34991 28.9604 6.44826L28.7622 6.54805L28.6073 6.64732C28.4852 6.72555 28.3691 6.81499 28.2621 6.9129C28.1453 7.01984 28.0378 7.13858 27.9432 7.2656L27.9269 7.28755C27.8482 7.3932 27.7791 7.50571 27.7205 7.6237L27.6908 7.68354C27.6464 7.77301 27.6109 7.86662 27.5848 7.96303C27.5496 8.09297 27.5317 8.227 27.5317 8.36162V15.3911C27.5317 15.5253 27.5469 15.659 27.5768 15.7898C27.6082 15.9266 27.6556 16.0592 27.718 16.1849L27.7402 16.2296C27.8061 16.3624 27.8859 16.4879 27.9781 16.604C28.0495 16.6939 28.1282 16.7779 28.2134 16.855L28.231 16.8711C28.3388 16.9687 28.4553 17.0564 28.5789 17.1331L28.793 17.2657L28.8625 17.3007C29.021 17.3805 29.1856 17.4473 29.3549 17.5006L29.4014 17.5152C29.5288 17.5553 29.6591 17.5857 29.7911 17.6062C29.9253 17.627 30.0609 17.6374 30.1967 17.6374H30.3676C30.6707 17.6374 30.9731 17.6091 31.271 17.5529L31.3154 17.5445L31.5138 17.4779C31.6889 17.4191 31.8588 17.3459 32.0217 17.2591L32.1163 17.2087C32.2384 17.1436 32.354 17.0671 32.4618 16.9803L32.4772 16.968C32.5638 16.8981 32.6445 16.8211 32.7181 16.7376C32.8081 16.6356 32.8874 16.5246 32.9545 16.4063L33.0114 16.3061C33.07 16.2027 33.1171 16.0932 33.1519 15.9796C33.1988 15.826 33.2227 15.6662 33.2227 15.5056V8.31781C33.2227 8.15078 33.1978 7.98467 33.149 7.82493C33.1162 7.71737 33.0726 7.61336 33.0191 7.51447L33.004 7.4866C32.9448 7.3774 32.8756 7.27394 32.7973 7.17756L32.743 7.11076C32.6732 7.02486 32.5968 6.94463 32.5143 6.87082C32.4126 6.77976 32.3022 6.69887 32.1847 6.62928L32.0985 6.57821C31.9255 6.47574 31.743 6.39025 31.5535 6.32292L31.3154 6.23829C31.0291 6.17652 30.7371 6.14537 30.4442 6.14537H30.2356Z" fill="#FF5F00"/>
<path d="M56.6939 3.69827H57.8013L58.5704 3.7912L59.2471 3.94608L59.9239 4.19389L60.5391 4.50365L61.0005 4.8134L61.4312 5.15414L61.8311 5.52585L62.108 5.83561L62.4463 6.33122L62.6924 6.82684L62.877 7.29148L62.9827 7.69059C62.9942 7.73409 63 7.7789 63 7.8239C63 8.1115 62.7669 8.34466 62.4793 8.34466H60.3646C60.2312 8.34466 60.1141 8.25612 60.0777 8.12782L60.0085 7.86641C59.9727 7.73127 59.9233 7.6001 59.8611 7.47489L59.8537 7.45997C59.7981 7.34791 59.7315 7.24161 59.6551 7.14259C59.5883 7.05615 59.5142 6.97561 59.4337 6.90186L59.383 6.85548C59.2721 6.75396 59.1529 6.66187 59.0267 6.58016L58.9965 6.56062C58.8562 6.4698 58.7086 6.39087 58.5551 6.32464C58.4219 6.26715 58.2847 6.21941 58.1446 6.18178L57.8936 6.11439L57.4322 6.05244H57.3427C57.136 6.05244 56.9297 6.06794 56.7253 6.09881C56.5201 6.1298 56.3175 6.17621 56.1192 6.23764L56.0171 6.26927L56.0094 6.27239C55.81 6.3527 55.6196 6.45356 55.4411 6.57336L55.4015 6.59996C55.2994 6.66851 55.2025 6.74463 55.1118 6.82768L55.0644 6.8711C54.9616 6.9652 54.8696 7.07044 54.79 7.18487C54.7264 7.27641 54.671 7.37342 54.6246 7.47477L54.5917 7.54651C54.5372 7.66528 54.4951 7.78931 54.4659 7.91666L54.4641 7.9247C54.4331 8.05968 54.4175 8.19773 54.4175 8.33622C54.4175 8.48584 54.4358 8.6349 54.4718 8.78012L54.4881 8.84556C54.523 8.98617 54.5731 9.12256 54.6375 9.25232C54.6958 9.36969 54.7655 9.48105 54.8456 9.58476L54.9405 9.70759C55.104 9.87223 55.2862 10.0171 55.4834 10.1394L55.5865 10.2032L55.6267 10.2219C55.8661 10.3332 56.1141 10.4248 56.3683 10.4959L56.5401 10.5439L57.0015 10.6059H57.6475L58.6011 10.7298L59.2471 10.8847L59.9239 11.1325L60.5391 11.4422L61.0928 11.814L61.4004 12.0618L61.8311 12.4335L62.108 12.7432L62.2417 12.9268C62.3779 13.1139 62.5007 13.3105 62.6091 13.5151L62.6924 13.6725L62.9078 14.261C62.9691 14.5287 63 14.8023 63 15.0769V15.2873C63 15.716 62.9379 16.1424 62.8155 16.5533L62.6001 17.0489L62.3848 17.4206L62.108 17.7923L61.8311 18.1021L61.585 18.3499L61.1543 18.6906L60.6929 19.0004L60.1084 19.3101L59.4624 19.5579L58.7549 19.7438L58.3262 19.8102C58.0792 19.8485 57.8296 19.8677 57.5797 19.8677H56.7925C56.5426 19.8677 56.293 19.8485 56.046 19.8102L55.6172 19.7438L54.8482 19.5269L54.4392 19.3554C54.22 19.2634 54.0077 19.1555 53.8042 19.0325L53.4947 18.8455L53.064 18.5047L52.6949 18.164L52.3565 17.7923L52.0489 17.3586L51.8028 16.894L51.649 16.4913L51.5259 15.9957L51.5021 15.8516C51.4975 15.8238 51.4952 15.7957 51.4952 15.7675C51.4952 15.4829 51.7258 15.2523 52.0104 15.2523H54.3311C54.347 15.2523 54.3623 15.2586 54.3735 15.2699C54.3821 15.2786 54.3879 15.2897 54.39 15.3017L54.4551 15.6733C54.471 15.7641 54.4968 15.8528 54.532 15.9379L54.5736 16.0383C54.613 16.1337 54.6594 16.2261 54.7122 16.3147L54.7214 16.3301C54.7853 16.4373 54.8593 16.5382 54.9425 16.6313C55.0434 16.7441 55.157 16.8448 55.2811 16.9313L55.3426 16.9742C55.4435 17.0445 55.5493 17.1076 55.6592 17.1629L55.6852 17.176C55.8446 17.2563 56.011 17.3222 56.1821 17.3729L56.1927 17.376C56.3625 17.4263 56.5362 17.462 56.712 17.4829L56.9707 17.5135H57.2059C57.3975 17.5135 57.5889 17.4998 57.7785 17.4725L57.924 17.4516C58.0675 17.431 58.2088 17.3974 58.3463 17.3513C58.4545 17.3149 58.56 17.2709 58.662 17.2196L58.7719 17.1643C58.9243 17.0875 59.0696 16.9971 59.2058 16.8942L59.3065 16.8182C59.4305 16.7246 59.5421 16.6156 59.6388 16.4939C59.7057 16.4097 59.7651 16.3199 59.8163 16.2253L59.8311 16.1979C59.8928 16.084 59.9444 15.9648 59.9851 15.8418L60.0181 15.742C60.0373 15.6841 60.0519 15.6247 60.0619 15.5645C60.0724 15.501 60.0777 15.4368 60.0777 15.3724V15.2862C60.0777 15.1197 60.0561 14.954 60.0135 14.793L60.0118 14.7867C59.9738 14.6433 59.9189 14.5049 59.8482 14.3744C59.7962 14.2784 59.7359 14.1871 59.668 14.1016L59.524 13.9203C59.3604 13.7556 59.1796 13.6089 58.9847 13.4827L58.8472 13.3937L58.7846 13.3643C58.5193 13.2396 58.2432 13.1391 57.9598 13.064L57.8013 13.022C57.6579 13.0014 57.5133 12.991 57.3684 12.991H56.9092L56.6324 12.9601L55.9249 12.8671L55.3404 12.7432L54.6021 12.4954L54.0484 12.2476L53.4947 11.9069L53.1255 11.6281L52.7564 11.2874L52.6805 11.2109C52.5058 11.035 52.3447 10.846 52.1987 10.6455L52.0796 10.482L52.033 10.3999C51.9003 10.1659 51.7871 9.92136 51.6947 9.66871L51.6182 9.45979L51.6097 9.42139C51.5336 9.0763 51.4952 8.72395 51.4952 8.37056V8.29689C51.4952 7.93756 51.5364 7.57942 51.6182 7.22952L51.8028 6.73391L52.0489 6.26927L52.3565 5.83561L52.7256 5.43292L52.9717 5.18512L53.4947 4.78243L53.9869 4.47267L54.4791 4.22486L55.0328 4.00803L55.771 3.82218L56.3555 3.72925L56.6939 3.69827Z" fill="#FF5F00"/>
</g>
<defs>
<clipPath id="clip0_360_1317">
<rect width="63" height="24" fill="white"/>
</clipPath>
</defs>
</svg>
