<svg width="120" height="32" viewBox="0 0 120 32" fill="none" xmlns="http://www.w3.org/2000/svg">
<path fill-rule="evenodd" clip-rule="evenodd" d="M12.4203 8.37303C12.8034 8.77085 12.7915 9.4039 12.3936 9.78699L6.98013 15H22.5C23.0523 15 23.5 15.4477 23.5 16C23.5 16.5523 23.0523 17 22.5 17H6.98013L12.3936 22.213C12.7915 22.5961 12.8034 23.2292 12.4203 23.627C12.0372 24.0248 11.4042 24.0367 11.0064 23.6537L3.80636 16.7203C3.6106 16.5318 3.5 16.2718 3.5 16C3.5 15.7282 3.6106 15.4682 3.80636 15.2797L11.0064 8.34635C11.4042 7.96326 12.0372 7.9752 12.4203 8.37303Z" fill="white" fill-opacity="0.7"/>
<g clip-path="url(#clip0_70_3059)">
<path d="M93.545 4.93103H95.5137L96.5391 5.05493L97.5235 5.30274L98.3848 5.63315L99.0411 5.96356L99.6563 6.33527L100.19 6.74828L100.764 7.2439L101.092 7.57431L101.543 8.15252L101.912 8.77204L102.049 9.08725C102.149 9.31731 102.231 9.55474 102.295 9.79743L102.404 10.2176L102.445 10.5067V10.8544C102.445 10.8977 102.452 10.9406 102.466 10.9817C102.479 11.0227 102.486 11.0656 102.486 11.1089V20.1712L102.445 20.9559L102.358 21.4161C102.307 21.687 102.233 21.9531 102.137 22.2115L102.035 22.484L101.882 22.7731C101.766 22.9931 101.632 23.2038 101.484 23.4035L101.338 23.5992L100.969 24.0535L100.559 24.4665L100.025 24.8795L99.6153 25.1686L98.836 25.6229L97.8516 26.0359L96.9903 26.2837L96.0469 26.4489L95.7188 26.4902H94.0708C93.8299 26.4902 93.5895 26.4724 93.3513 26.4369L92.6016 26.325L91.8223 26.1185L91.043 25.8294C91.0054 25.8105 90.961 25.8378 90.961 25.88V29.6115C90.961 30.9026 89.9217 31.9531 88.6306 31.967L87.1371 31.983C87.1169 31.9832 87.0975 31.9752 87.0833 31.9609C87.0711 31.9487 87.0636 31.9327 87.0619 31.9155L87.0235 31.529L86.9825 22.897V12.2L87.0541 10.0356C87.061 9.82679 87.0837 9.61885 87.1219 9.41351C87.1656 9.17904 87.2294 8.94877 87.3126 8.72526L87.318 8.71088C87.395 8.50415 87.4877 8.30361 87.5953 8.11102L87.8028 7.73951L88.1719 7.2439L88.5411 6.78958L88.9004 6.42774C89.0707 6.25631 89.256 6.10056 89.4542 5.96238C89.6109 5.85317 89.7751 5.75525 89.9457 5.66937L89.9764 5.65391C90.1677 5.55759 90.3657 5.47504 90.5687 5.40688L91.002 5.26144L91.7813 5.09623L92.8067 4.97233L93.545 4.93103ZM94.8326 8.02862C94.5761 8.02862 94.3201 8.04884 94.0669 8.08911L93.668 8.15252L93.4526 8.21451C93.2139 8.28317 92.9822 8.37393 92.7604 8.4856L92.7459 8.49288C92.5408 8.59617 92.3454 8.71777 92.1621 8.8562L92.1121 8.89397C92.0011 8.97778 91.8962 9.06937 91.7982 9.16805C91.6506 9.31663 91.5194 9.48056 91.4067 9.65706L91.3762 9.70494C91.2637 9.88104 91.1695 10.0681 91.095 10.2633L91.0368 10.4157C91.0136 10.4763 90.9957 10.5386 90.983 10.6022C90.9684 10.676 90.961 10.7511 90.961 10.8264V20.4796C90.961 20.6588 90.9828 20.8373 91.026 21.0112C91.0646 21.1666 91.12 21.3173 91.1912 21.4608L91.2263 21.5315C91.3226 21.7254 91.44 21.908 91.5765 22.076L91.5969 22.1011C91.6924 22.2185 91.7969 22.3282 91.9097 22.4291C92.0426 22.5481 92.1863 22.6543 92.3389 22.7466L92.4157 22.793C92.6212 22.9171 92.838 23.0217 93.0631 23.1052L93.1295 23.1298C93.3787 23.2223 93.6354 23.2928 93.8968 23.3407L93.9551 23.3514L94.4063 23.3927H94.7806C95.0229 23.3927 95.2649 23.3745 95.5045 23.3383L95.5883 23.3256C95.8388 23.2878 96.0851 23.226 96.3238 23.1412C96.5489 23.0612 96.7663 22.961 96.9734 22.8418L97.0012 22.8259C97.1578 22.7358 97.3075 22.6343 97.4492 22.5221L97.534 22.455C97.7177 22.3097 97.8825 22.1421 98.0247 21.956L98.0425 21.9327C98.1609 21.7776 98.2613 21.6095 98.3416 21.4316C98.3977 21.3074 98.4437 21.1789 98.4794 21.0474L98.4883 21.0143C98.5286 20.8654 98.5574 20.7137 98.5743 20.5604L98.5899 20.419L98.5504 10.9856C98.5494 10.7504 98.5112 10.5169 98.4373 10.2936C98.3753 10.1061 98.2886 9.92763 98.1795 9.76294L98.1312 9.68987C98.0543 9.57375 97.9691 9.46334 97.8763 9.3595L97.8633 9.34502C97.7192 9.18373 97.5588 9.03769 97.3848 8.90919L97.3277 8.867C97.1306 8.72142 96.92 8.59502 96.6988 8.48952L96.633 8.45815C96.3795 8.33725 96.1156 8.23978 95.8444 8.16696L95.6368 8.11122L95.0215 8.02862H94.8326Z" fill="white"/>
<path fill-rule="evenodd" clip-rule="evenodd" d="M52.7344 0.0990786L51.4219 0.0577774L50.8066 0.0990786L49.4531 0.264283L48.1816 0.51209L47.0742 0.801198L45.9258 1.21421L44.9004 1.66852L43.998 2.16414L43.3828 2.53585L42.6445 3.03146L41.9883 3.52708L41.4551 3.98139L41.127 4.2705L40.5117 4.89001L39.9375 5.50953L39.5684 5.96385L39.1172 6.54206L38.625 7.24418L38.0918 8.11151L37.6406 8.97883L37.1484 10.094L36.7383 11.2917L36.4512 12.3655L36.2461 13.4394L36.082 14.8023L36.041 15.8348L36.082 17.0326L36.1641 17.8999L36.3691 19.1802L36.6152 20.2127L37.1074 21.6996L37.5586 22.7734L38.0098 23.6407L38.502 24.4668L38.9941 25.2102L39.5684 25.9536L40.0605 26.5318L40.3477 26.8622L40.6348 27.1513L41.332 27.8122L41.7832 28.1839L42.4395 28.7208L43.2598 29.299L44.0801 29.7946L45.1465 30.3315L45.9668 30.7032L47.4434 31.1989L48.5918 31.488L49.9043 31.6945L50.9297 31.7771H52.7344L53.3086 31.7358L54.5801 31.5706L55.7285 31.3228L56.877 30.9924L58.0664 30.538L59.0918 30.0424L60.0352 29.5055L60.7324 29.0512L61.3066 28.6382L61.8398 28.2252L62.291 27.8535L63.4395 26.697L63.8086 26.284L64.3418 25.6232L64.793 25.0037L65.2852 24.2603L65.7773 23.3929L66.1875 22.5256L66.5566 21.6583L67.0078 20.2954L67.2539 19.2628L67.5 17.776L67.582 16.6195V15.2566L67.459 13.8524L67.2539 12.6133L67.0078 11.6221L66.6797 10.5896L66.3105 9.63965L65.7773 8.52452L65.2031 7.53329L64.6289 6.66597L64.0957 5.96385L63.6035 5.38563L63.3164 5.05522L62.8652 4.60091L62.5371 4.3118L62.0859 3.89879L61.3887 3.32057L60.6504 2.78365L59.748 2.20544L58.6406 1.62722L57.6152 1.17291L56.5488 0.801198L55.4824 0.51209L54.2109 0.264283L52.7344 0.0990786ZM47.2383 5.88097H46.7461L46.2539 5.92227L45.5566 6.04617L44.9414 6.29398L44.4082 6.62439L43.998 7.0374L43.7109 7.40911L43.3418 8.11123L43.0957 8.85465L42.8906 9.88718L42.7676 10.8784L42.7266 11.9935V14.6781L42.7676 15.9585V18.23L42.7266 20.832V23.2688L42.7676 25.8707L42.8496 26.0359H46.2539L46.2949 11.7457L46.377 11.1675L46.582 10.5067L46.7871 10.1763L46.9922 9.96978L47.3203 9.80458H47.7305L48.2227 10.0111L48.5508 10.3002L48.7969 10.7545L49.043 11.4979L49.9043 14.9259L50.8066 18.3539L51.4219 20.5842L51.832 21.8232L52.2422 22.7731L52.6523 23.5166L53.0215 24.0948L53.4316 24.6317L53.7598 24.9621L54.334 25.4164L54.9082 25.7055L55.5645 25.912L56.3027 25.9946H57.2871L57.9844 25.8707L58.5996 25.6642L59.2148 25.3338L59.625 25.0034L60.0762 24.4665L60.4043 23.8883L60.6504 23.1862L60.8145 22.4427L60.8965 21.5754V6.04617L60.8555 6.00487H57.4102L57.3691 6.08747V17.4866L57.4102 21.0798L57.3691 21.6167L57.2051 21.9884L56.918 22.3188L56.5078 22.5253H56.0977L55.8105 22.4427L55.4004 22.1949L55.0723 21.7819L54.8262 21.2037L54.334 19.4691L53.5137 16.5367L52.5293 13.0674L51.9141 10.7545L51.5449 9.55677L51.1758 8.56554L50.7656 7.82212L50.3555 7.2439L50.0273 6.91349L49.4941 6.50048L49.043 6.25268L48.5098 6.04617L47.9355 5.92227L47.2383 5.88097Z" fill="white"/>
<path d="M76.0723 5.05494H77.6309L79.0254 5.17884L79.9277 5.34405L80.9531 5.63316L81.7324 5.96357L81.9247 6.06682C82.206 6.21789 82.4718 6.39623 82.7182 6.59926L82.7988 6.66568L83.007 6.87528C83.196 7.06563 83.369 7.27127 83.5242 7.49008L83.7012 7.73952L83.928 8.17354C84.05 8.40695 84.1529 8.64987 84.2357 8.8999L84.3164 9.14376L84.3984 9.55677L84.4395 9.96978V26.4682C84.4395 26.554 84.3811 26.6288 84.2979 26.6498C84.283 26.6535 84.2676 26.6555 84.2522 26.6555H80.6132C80.5945 26.6555 80.5766 26.648 80.5634 26.6347C80.5503 26.6215 80.543 26.6037 80.543 26.5852V25.2167C80.543 25.2122 80.5437 25.2077 80.5451 25.2034C80.5578 25.1651 80.5148 25.1325 80.4813 25.1549L80.2148 25.3338L79.5176 25.7468L78.7383 26.0772L78.041 26.2837L77.2207 26.4489L76.8926 26.4902H75.293L74.3496 26.3663L73.9206 26.2527C73.6874 26.1909 73.4591 26.1118 73.2376 26.0162L72.709 25.7881L72.0527 25.4164L71.4785 25.0034L71.0273 24.6317L70.5515 24.1526C70.3768 23.9766 70.2158 23.7876 70.0698 23.5872L69.8379 23.2688L69.5918 22.8144L69.4906 22.5936C69.3941 22.3832 69.3131 22.166 69.2482 21.9438C69.1766 21.6986 69.1248 21.448 69.0933 21.1945L69.0586 20.9146V11.1345C69.0586 10.8815 69.0783 10.629 69.1175 10.3791L69.1195 10.366C69.1609 10.1023 69.2238 9.84243 69.3077 9.58901L69.3867 9.35026L69.7148 8.68944L70.002 8.23513L70.3711 7.78082L70.9158 7.23233C71.0992 7.0476 71.2972 6.87786 71.5077 6.72474L71.9297 6.41788L72.5449 6.04617L73.2012 5.71576L73.9805 5.42665L74.8008 5.22014L75.5801 5.09624L76.0723 5.05494ZM76.3141 8.19383C76.0172 8.19383 75.7213 8.2288 75.4326 8.29802C75.1491 8.366 74.8743 8.46656 74.6139 8.59768L74.3496 8.73074L74.1431 8.86311C73.9803 8.96741 73.8254 9.08667 73.6828 9.21721C73.5271 9.35979 73.3838 9.51811 73.2576 9.68747L73.2358 9.71674C73.1309 9.85761 73.0388 10.0076 72.9607 10.1649L72.9211 10.2447C72.8619 10.364 72.8145 10.4888 72.7797 10.6174C72.7328 10.7906 72.709 10.9693 72.709 11.1488V20.5215C72.709 20.7004 72.7292 20.8787 72.7691 21.0531C72.8109 21.2355 72.8741 21.4123 72.9573 21.5798L72.9869 21.6395C73.0748 21.8166 73.1811 21.9838 73.3041 22.1386C73.3994 22.2586 73.5043 22.3705 73.6178 22.4734L73.6414 22.4947C73.7851 22.625 73.9404 22.7419 74.1053 22.8441L74.3906 23.0209L74.4833 23.0676C74.6946 23.174 74.9142 23.2631 75.1399 23.3342L75.2018 23.3537C75.3717 23.4071 75.5454 23.4477 75.7214 23.4749C75.9004 23.5026 76.0812 23.5166 76.2623 23.5166H76.6414C76.9449 23.5166 77.2478 23.4882 77.546 23.4319L77.7539 23.3927L78.0184 23.3039C78.2518 23.2255 78.4783 23.1279 78.6956 23.0121L78.8217 22.9449C78.9845 22.8581 79.1387 22.7562 79.2824 22.6405L79.3029 22.6239C79.4185 22.5308 79.5259 22.4281 79.6242 22.3168C79.7442 22.1809 79.8498 22.0328 79.9393 21.8751L80.0151 21.7415C80.0934 21.6036 80.1562 21.4576 80.2025 21.3061C80.2651 21.1013 80.2969 20.8883 80.2969 20.6742V11.0904C80.2969 10.8677 80.2638 10.6462 80.1987 10.4332C80.1549 10.2898 80.0968 10.1512 80.0254 10.0193L80.0053 9.98214C79.9264 9.83655 79.8342 9.6986 79.7298 9.57009L79.6574 9.48102C79.5643 9.36649 79.4623 9.25952 79.3524 9.1611C79.2167 9.03969 79.0696 8.93183 78.9129 8.83905L78.798 8.77095C78.5673 8.63433 78.324 8.52034 78.0714 8.43056L77.7539 8.31773L77.6881 8.30353C77.3501 8.2306 77.0053 8.19383 76.6596 8.19383H76.3141Z" fill="white"/>
<path d="M111.592 4.93103H113.068L114.094 5.05493L114.996 5.26144L115.898 5.59185L116.719 6.00486L117.334 6.41787L117.908 6.87219L118.441 7.3678L118.811 7.78081L119.262 8.44163L119.59 9.10245L119.836 9.72197L119.977 10.2541C119.992 10.3121 120 10.3719 120 10.4319C120 10.8153 119.689 11.1262 119.306 11.1262H116.486C116.308 11.1262 116.152 11.0082 116.104 10.8371L116.011 10.4885C115.964 10.3084 115.898 10.1335 115.815 9.96653L115.805 9.94663C115.731 9.79722 115.642 9.65548 115.54 9.52345C115.451 9.4082 115.352 9.30082 115.245 9.20248L115.177 9.14064C115.029 9.00528 114.871 8.88249 114.702 8.77355L114.662 8.74749C114.475 8.6264 114.278 8.52115 114.073 8.43286C113.896 8.3562 113.713 8.29254 113.526 8.24237L113.191 8.15252L112.576 8.06992H112.409C112.165 8.06992 111.922 8.0882 111.681 8.12461L111.586 8.1389C111.344 8.17546 111.105 8.2302 110.871 8.30266L110.69 8.35903L110.679 8.36319C110.413 8.47026 110.159 8.60475 109.921 8.76448L109.869 8.79995C109.732 8.89135 109.603 8.99284 109.482 9.10357L109.419 9.16147C109.282 9.28694 109.159 9.42725 109.053 9.57983C108.969 9.70188 108.895 9.83123 108.833 9.96636L108.789 10.062C108.716 10.2204 108.66 10.3858 108.621 10.5556L108.619 10.5663C108.578 10.7462 108.557 10.9303 108.557 11.115C108.557 11.3145 108.581 11.5132 108.629 11.7068L108.651 11.7941C108.697 11.9816 108.764 12.1634 108.85 12.3364C108.928 12.4929 109.021 12.6414 109.127 12.7797L109.254 12.9435C109.472 13.163 109.715 13.3562 109.978 13.5191L110.115 13.6043L110.289 13.6849C110.528 13.7962 110.776 13.8878 111.03 13.9589L111.387 14.0586L112.002 14.1412H112.863L114.135 14.3064L114.996 14.5129L115.898 14.8433L116.719 15.2563L117.457 15.7519L117.867 16.0823L118.441 16.578L118.811 16.991L119.057 17.3294C119.193 17.5166 119.316 17.7132 119.425 17.9177L119.59 18.23L119.877 19.0147C119.959 19.3715 120 19.7364 120 20.1025V20.5341C120 21.0055 119.932 21.4745 119.797 21.9263L119.754 22.071L119.467 22.7318L119.18 23.2274L118.811 23.7231L118.441 24.1361L118.113 24.4665L117.539 24.9208L116.924 25.3338L116.145 25.7468L115.283 26.0772L114.34 26.325L113.645 26.4328C113.398 26.471 113.148 26.4902 112.898 26.4902H111.598C111.348 26.4902 111.099 26.471 110.852 26.4328L110.156 26.325L109.131 26.0359L108.476 25.7611C108.257 25.6691 108.044 25.5612 107.841 25.4382L107.326 25.1273L106.752 24.673L106.26 24.2187L105.809 23.7231L105.398 23.1448L105.07 22.5253L104.865 21.9884L104.701 21.3276L104.669 21.1355C104.663 21.0984 104.66 21.0609 104.66 21.0233C104.66 20.6439 104.968 20.3364 105.347 20.3364H108.441C108.463 20.3364 108.483 20.3448 108.498 20.3599C108.51 20.3715 108.517 20.3863 108.52 20.4023L108.607 20.8978C108.628 21.0188 108.662 21.137 108.709 21.2505L108.765 21.3844C108.817 21.5116 108.879 21.6348 108.95 21.753L108.962 21.7734C109.047 21.9164 109.146 22.0509 109.257 22.175C109.391 22.3254 109.543 22.4597 109.708 22.5751L109.79 22.6323C109.925 22.7261 110.066 22.8102 110.212 22.8839L110.247 22.9013C110.46 23.0084 110.681 23.0962 110.91 23.1638L110.924 23.168C111.15 23.2351 111.382 23.2827 111.616 23.3105L111.961 23.3514H112.309C112.542 23.3514 112.774 23.3347 113.004 23.3017L113.232 23.2688C113.423 23.2413 113.612 23.1965 113.795 23.135C113.939 23.0866 114.08 23.0279 114.216 22.9594L114.362 22.8857C114.566 22.7833 114.759 22.6628 114.941 22.5257L115.075 22.4243C115.241 22.2994 115.389 22.1541 115.518 21.9919C115.608 21.8797 115.687 21.7598 115.755 21.6338L115.775 21.5972C115.857 21.4453 115.926 21.2864 115.98 21.1224L116.024 20.9894C116.05 20.9121 116.069 20.8329 116.083 20.7526C116.097 20.668 116.104 20.5824 116.104 20.4966V20.3816C116.104 20.1596 116.075 19.9386 116.018 19.7241L116.016 19.7157C115.965 19.5244 115.892 19.3398 115.798 19.1659C115.728 19.0378 115.648 18.9161 115.557 18.8021L115.365 18.5604C115.147 18.3408 114.906 18.1452 114.646 17.977L114.463 17.8583L114.247 17.7566C113.981 17.6319 113.705 17.5314 113.422 17.4563L113.068 17.3627C112.877 17.3352 112.684 17.3214 112.491 17.3214H111.879L111.51 17.2801L110.566 17.1562L109.787 16.991L108.803 16.6606L108.065 16.3302L107.326 15.8758L106.834 15.5041L106.342 15.0498L106.153 14.8598C105.978 14.6839 105.817 14.4948 105.671 14.2944L105.44 13.976L105.311 13.7493C105.178 13.5154 105.065 13.2708 104.972 13.0182L104.824 12.613L104.775 12.3888C104.699 12.0437 104.66 11.6914 104.66 11.338V10.9036C104.66 10.5301 104.703 10.1578 104.788 9.7941L104.824 9.63936L105.07 8.97855L105.398 8.35903L105.809 7.78081L106.301 7.2439L106.629 6.91349L107.326 6.37657L107.982 5.96356L108.639 5.63315L109.377 5.34404L110.361 5.09623L111.141 4.97233L111.592 4.93103Z" fill="white"/>
</g>
<defs>
<clipPath id="clip0_70_3059">
<rect width="84" height="32" fill="white" transform="translate(36)"/>
</clipPath>
</defs>
</svg>
