<svg width="45" height="19" viewBox="0 0 45 19" fill="none" xmlns="http://www.w3.org/2000/svg">
<g clip-path="url(#clip0_11_5177)">
<path d="M30.8276 3.27386H31.8823L32.4316 3.34356L32.959 3.48295L33.4204 3.66881L33.772 3.85466L34.1016 4.06375L34.3872 4.29607L34.6948 4.57485L34.8706 4.76071L35.1123 5.08595L35.3101 5.43443L35.3814 5.60678C35.4363 5.73951 35.4813 5.87613 35.516 6.01551L35.5737 6.24755L35.5957 6.41017V6.60595C35.5957 6.63017 35.5994 6.65424 35.6067 6.67734C35.614 6.70044 35.6177 6.72451 35.6177 6.74873V11.8464L35.5957 12.2878L35.5497 12.543C35.5218 12.6979 35.4814 12.8503 35.4288 12.9986L35.376 13.1474L35.2983 13.3015C35.233 13.4309 35.1581 13.5553 35.0742 13.6735L35.0024 13.7747L34.8047 14.0302L34.585 14.2626L34.2993 14.4949L34.0796 14.6575L33.6621 14.9131L33.1348 15.1454L32.6733 15.2848L32.168 15.3777L31.9922 15.4009H31.1415C30.9911 15.4009 30.8409 15.3892 30.6923 15.366L30.3223 15.308L29.9048 15.1918L29.4873 15.0292C29.4674 15.0187 29.4434 15.0331 29.4434 15.0557V17.1752C29.4434 17.8913 28.8671 18.474 28.1511 18.4821L27.3958 18.4906C27.3844 18.4907 27.3735 18.4861 27.3656 18.4778C27.3594 18.4711 27.3555 18.4626 27.3546 18.4535L27.334 18.2352L27.312 13.3797V7.36268L27.3504 6.14437C27.3541 6.02745 27.3662 5.91095 27.3866 5.79578C27.4101 5.66352 27.4444 5.53344 27.4893 5.40685L27.4914 5.40094C27.5329 5.28404 27.583 5.17037 27.6412 5.06086L27.7515 4.85363L27.9492 4.57485L28.147 4.3193L28.3416 4.11356C28.4314 4.0186 28.5296 3.93198 28.6351 3.85478C28.7197 3.79283 28.8087 3.73713 28.9015 3.68811L28.915 3.68095C29.0181 3.62647 29.125 3.57966 29.235 3.5409L29.4653 3.45972L29.8828 3.36679L30.4321 3.2971L30.8276 3.27386ZM31.5516 5.01626C31.3915 5.01626 31.2317 5.02951 31.0737 5.05588L30.8936 5.08595L30.7807 5.12003C30.6512 5.15917 30.5257 5.21073 30.406 5.27399L30.402 5.27611C30.2905 5.33507 30.1846 5.40418 30.0858 5.48256L30.0615 5.50179C30.0011 5.54975 29.9441 5.60197 29.891 5.65805C29.8125 5.74106 29.743 5.83213 29.6837 5.92976L29.667 5.95723C29.6059 6.0576 29.555 6.16376 29.5148 6.27415L29.4841 6.35863C29.4716 6.39293 29.4619 6.4282 29.4551 6.46407C29.4473 6.50549 29.4434 6.54755 29.4434 6.5897V12.0211C29.4434 12.1211 29.455 12.2209 29.478 12.3183C29.4988 12.4062 29.5287 12.4916 29.5673 12.5733L29.5849 12.6103C29.6369 12.7202 29.7006 12.8242 29.7751 12.9204L29.7853 12.9337C29.8356 12.9986 29.8909 13.0595 29.9508 13.1158C30.0225 13.1832 30.1004 13.2437 30.1835 13.2964L30.2213 13.3203C30.3323 13.3908 30.4499 13.4502 30.5723 13.4979L30.6038 13.5102C30.7381 13.5625 30.8769 13.6025 31.0184 13.6297L31.0474 13.6353L31.2891 13.6585H31.4888C31.6191 13.6585 31.7492 13.6483 31.878 13.6279L31.9202 13.6212C32.0557 13.5997 32.1888 13.5647 32.3174 13.5167C32.4372 13.472 32.5527 13.4161 32.6622 13.35L32.6768 13.3412C32.7623 13.2895 32.8437 13.2315 32.9206 13.1677L32.9613 13.1339C33.0619 13.0503 33.1517 12.9545 33.2287 12.8487L33.2355 12.8393C33.3 12.7507 33.3544 12.6552 33.3976 12.5546C33.4274 12.4853 33.4518 12.4138 33.4707 12.3407L33.476 12.3202C33.4975 12.2368 33.5128 12.1519 33.5218 12.0662L33.5303 11.9858L33.5091 6.67722C33.5086 6.5464 33.4883 6.41641 33.449 6.29165C33.4154 6.18525 33.3683 6.08362 33.3088 5.98925L33.2852 5.95182C33.2436 5.88576 33.1973 5.82276 33.1466 5.76329L33.1419 5.75768C33.0641 5.66633 32.9771 5.58324 32.8823 5.50973L32.8556 5.48904C32.749 5.40637 32.6346 5.33431 32.5139 5.2739L32.4834 5.25863C32.3467 5.19013 32.2037 5.13475 32.0565 5.09325L31.9482 5.06272L31.6187 5.01626H31.5516Z" fill="#6C6C84"/>
<path fill-rule="evenodd" clip-rule="evenodd" d="M8.96484 0.555764L8.26172 0.532532L7.93213 0.555764L7.20703 0.648691L6.52588 0.788083L5.93262 0.950706L5.31738 1.18303L4.76807 1.43858L4.28467 1.71736L3.95508 1.92645L3.55957 2.20523L3.20801 2.48401L2.92236 2.73956L2.74658 2.90219L2.41699 3.25066L2.10938 3.59914L1.91162 3.85469L1.66992 4.17994L1.40625 4.57488L1.12061 5.06275L0.878906 5.55062L0.615234 6.17789L0.395508 6.85161L0.241699 7.45564L0.131836 8.05967L0.0439453 8.82632L0.0219727 9.40712L0.0439453 10.0808L0.0878906 10.5687L0.197754 11.2889L0.32959 11.8697L0.593262 12.7061L0.834961 13.3101L1.07666 13.798L1.34033 14.2626L1.604 14.6808L1.91162 15.0989L2.17529 15.4242L2.3291 15.61L2.48291 15.7727L2.85645 16.1444L3.09814 16.3535L3.44971 16.6555L3.88916 16.9807L4.32861 17.2595L4.8999 17.5615L5.33936 17.7706L6.13037 18.0494L6.74561 18.212L7.44873 18.3282L7.99805 18.3746H8.96484L9.27246 18.3514L9.95361 18.2585L10.5688 18.1191L11.1841 17.9332L11.8213 17.6777L12.3706 17.3989L12.876 17.0969L13.2495 16.8413L13.5571 16.609L13.8428 16.3767L14.0845 16.1676L14.6997 15.5171L14.8975 15.2848L15.1831 14.9131L15.4248 14.5646L15.6885 14.1464L15.9521 13.6586L16.1719 13.1707L16.3696 12.6828L16.6113 11.9162L16.7432 11.3354L16.875 10.499L16.9189 9.84853V9.08187L16.853 8.29199L16.7432 7.59503L16.6113 7.03747L16.4355 6.45667L16.2378 5.92233L15.9521 5.29507L15.6445 4.73751L15.3369 4.24964L15.0513 3.85469L14.7876 3.52945L14.6338 3.34359L14.3921 3.08804L14.2163 2.92542L13.9746 2.6931L13.6011 2.36785L13.2056 2.06584L12.7222 1.74059L12.1289 1.41534L11.5796 1.15979L11.0083 0.950706L10.437 0.788083L9.75586 0.648691L8.96484 0.555764ZM6.02051 3.80833H5.75684L5.49316 3.83156L5.11963 3.90125L4.79004 4.04064L4.50439 4.2265L4.28467 4.45882L4.13086 4.66791L3.93311 5.06285L3.80127 5.48102L3.69141 6.06182L3.62549 6.61939L3.60352 7.24665V8.75672L3.62549 9.47691V10.7547L3.60352 12.2183V13.589L3.62549 15.0526L3.66943 15.1455H5.49316L5.51514 7.10726L5.55908 6.78201L5.66895 6.4103L5.77881 6.22444L5.88867 6.10828L6.06445 6.01536H6.28418L6.54785 6.13152L6.72363 6.29414L6.85547 6.54969L6.98731 6.96786L7.44873 8.89611L7.93213 10.8244L8.26172 12.0789L8.48145 12.7758L8.70117 13.3102L8.9209 13.7284L9.11865 14.0536L9.33838 14.3556L9.51416 14.5415L9.82178 14.797L10.1294 14.9596L10.481 15.0758L10.8765 15.1223H11.4038L11.7773 15.0526L12.1069 14.9364L12.4365 14.7506L12.6563 14.5647L12.898 14.2627L13.0737 13.9374L13.2056 13.5425L13.2935 13.1243L13.3374 12.6365V3.90125L13.3154 3.87802H11.4697L11.4478 3.92448V10.3365L11.4697 12.3577L11.4478 12.6597L11.3599 12.8688L11.2061 13.0546L10.9863 13.1708H10.7666L10.6128 13.1243L10.3931 12.9849L10.2173 12.7526L10.0855 12.4274L9.82178 11.4516L9.38233 9.80216L8.85498 7.85068L8.52539 6.54969L8.32764 5.87597L8.12988 5.3184L7.91016 4.90023L7.69043 4.57498L7.51465 4.38912L7.229 4.1568L6.98731 4.01741L6.70166 3.90125L6.39404 3.83156L6.02051 3.80833Z" fill="#6C6C84"/>
<path d="M21.4673 3.34363H22.3022L23.0493 3.41332L23.5327 3.50625L24.082 3.66887L24.4995 3.85473L24.5758 3.89774C24.7442 3.99273 24.9028 4.10432 25.049 4.23085L25.0708 4.24967L25.1712 4.35578C25.2799 4.4707 25.379 4.59432 25.4675 4.7254L25.5542 4.8537L25.6725 5.0914C25.74 5.227 25.7968 5.36767 25.8423 5.51213L25.8838 5.64359L25.9277 5.87591L25.9497 6.10823V15.3929C25.9497 15.4387 25.9188 15.4788 25.8745 15.4906C25.8661 15.4928 25.8574 15.4939 25.8487 15.4939H23.9009C23.8903 15.4939 23.8801 15.4895 23.8729 15.4818C23.8661 15.4747 23.8623 15.4652 23.8623 15.4553V14.6844C23.8623 14.682 23.8627 14.6796 23.8634 14.6774C23.8701 14.6559 23.8459 14.6382 23.8275 14.6511L23.6865 14.7505L23.313 14.9828L22.8955 15.1687L22.522 15.2848L22.0825 15.3778L21.9067 15.401H21.0498L20.5444 15.3313L20.3428 15.2752C20.1991 15.2352 20.0587 15.1842 19.9229 15.1227L19.6655 15.006L19.314 14.797L19.0063 14.5646L18.7646 14.3556L18.5201 14.097C18.4196 13.9908 18.3273 13.877 18.2439 13.7568L18.1274 13.5889L17.9956 13.3333L17.8638 13.0313L17.8138 12.8516C17.7739 12.7083 17.7451 12.5622 17.7277 12.4145L17.71 12.2647V6.76516C17.71 6.62167 17.7208 6.47731 17.742 6.3354C17.7644 6.18494 17.7989 6.03534 17.8446 5.89025L17.8857 5.75975L18.0615 5.38804L18.2153 5.13248L18.4131 4.87693L18.6915 4.58251C18.7987 4.46922 18.9148 4.36474 19.0387 4.2701L19.248 4.11028L19.5776 3.90119L19.9292 3.71534L20.3467 3.55272L20.7861 3.43656L21.2036 3.36686L21.4673 3.34363ZM21.5988 5.10925C21.4385 5.10925 21.2788 5.12904 21.1234 5.16817C20.9723 5.20619 20.8264 5.26221 20.6887 5.33501L20.5444 5.41127L20.4361 5.48418C20.3473 5.54388 20.264 5.61115 20.1869 5.68525C20.1032 5.76571 20.0272 5.85388 19.96 5.94858L19.949 5.9641C19.892 6.04454 19.8421 6.12983 19.7999 6.21898L19.7797 6.26168C19.7476 6.32959 19.722 6.40039 19.7032 6.47314C19.6782 6.57021 19.6655 6.67005 19.6655 6.7703V12.0446C19.6655 12.1446 19.6763 12.2442 19.6976 12.3419C19.7201 12.445 19.7542 12.5452 19.7993 12.6405L19.8156 12.6749C19.8619 12.7729 19.9182 12.8658 19.9836 12.9522C20.0351 13.0203 20.0921 13.0842 20.154 13.143L20.1641 13.1526C20.2417 13.2265 20.3259 13.293 20.4157 13.3515L20.5664 13.4495L20.6178 13.4767C20.7298 13.5359 20.8466 13.5857 20.967 13.6254L21.0018 13.6369C21.0922 13.6668 21.1849 13.6895 21.279 13.7048C21.3751 13.7204 21.4722 13.7283 21.5696 13.7283H21.8095C21.9472 13.7283 22.0847 13.7148 22.2198 13.688C22.3186 13.6684 22.4158 13.6418 22.5108 13.6083L22.5181 13.6058C22.6376 13.5636 22.7534 13.5113 22.864 13.4494L22.938 13.408C23.0267 13.3583 23.1103 13.3003 23.1879 13.2347L23.1963 13.2276C23.2593 13.1743 23.3177 13.1157 23.3709 13.0525C23.4347 12.9766 23.4905 12.8945 23.5377 12.8073L23.5786 12.7315C23.6211 12.6528 23.6552 12.5699 23.6802 12.484C23.7135 12.3693 23.7305 12.2505 23.7305 12.1311V6.73693C23.7305 6.61269 23.7128 6.48908 23.6781 6.36979C23.6545 6.28853 23.623 6.20975 23.5842 6.13453L23.5748 6.11615C23.5322 6.0336 23.4821 5.95511 23.4253 5.88164L23.3866 5.83165C23.3376 5.76833 23.2837 5.70897 23.2253 5.65413C23.1521 5.58532 23.0723 5.52393 22.9869 5.47086L22.9291 5.43487C22.8045 5.35738 22.6725 5.2925 22.535 5.2412L22.3682 5.17895C22.1637 5.13263 21.9548 5.10925 21.7451 5.10925H21.5988Z" fill="#6C6C84"/>
<path d="M40.4956 3.27386H41.2866L41.8359 3.34356L42.3193 3.45972L42.8027 3.64558L43.2422 3.87789L43.5718 4.11021L43.8794 4.36576L44.165 4.64455L44.3628 4.87687L44.6045 5.24858L44.7803 5.62029L44.9121 5.96877L44.9881 6.26997C44.996 6.30137 45 6.33362 45 6.366C45 6.58285 44.8242 6.75865 44.6073 6.75865H43.125C43.0256 6.75865 42.9385 6.69199 42.9126 6.59603L42.8626 6.3979C42.8374 6.2979 42.8025 6.2006 42.7584 6.10737L42.7517 6.09309C42.7126 6.0104 42.6656 5.93167 42.6114 5.85799C42.5633 5.79257 42.5096 5.73138 42.4511 5.6751L42.4174 5.64273C42.3375 5.56595 42.2513 5.49605 42.1597 5.43378L42.1385 5.41937C42.0395 5.3521 41.9349 5.29344 41.8259 5.24404C41.7302 5.20066 41.6313 5.16456 41.5302 5.13604L41.3525 5.08595L41.0229 5.03949H40.9598C40.8117 5.03949 40.6638 5.05114 40.5175 5.07434C40.3713 5.09754 40.2271 5.1322 40.0863 5.178L40.0122 5.20211L40.01 5.20306C39.8654 5.2642 39.7278 5.34065 39.5995 5.43109L39.5744 5.44874C39.5002 5.50108 39.43 5.55897 39.3645 5.62193L39.3337 5.6515C39.2589 5.7234 39.1923 5.80333 39.135 5.88985C39.09 5.95782 39.051 6.02957 39.0184 6.10428L38.9946 6.15866C38.9553 6.24868 38.925 6.34234 38.9041 6.4383L38.903 6.44334C38.8808 6.54484 38.8696 6.64842 38.8696 6.75231C38.8696 6.86457 38.8827 6.97646 38.9085 7.08571L38.9205 7.13653C38.9451 7.24055 38.9806 7.3417 39.0263 7.43833C39.0682 7.52708 39.1186 7.61159 39.1768 7.69067L39.2432 7.78086C39.3599 7.90433 39.4909 8.01354 39.6334 8.10623L39.7046 8.15257L39.7915 8.195C39.9238 8.25952 40.0612 8.3128 40.2024 8.35426C40.3245 8.39012 40.449 8.41703 40.575 8.4348L40.7153 8.45458H41.1768L41.8579 8.54751L42.3193 8.66367L42.8027 8.84952L43.2422 9.08184L43.6377 9.36063L43.8574 9.54648L44.165 9.82526L44.3628 10.0576L44.6045 10.4061L44.7803 10.7545L44.9341 11.1959C44.9779 11.3967 45 11.6016 45 11.8071V12.0467C45 12.3146 44.9629 12.5812 44.8898 12.8389L44.8682 12.9151L44.7144 13.2868L44.5605 13.5656L44.3628 13.8444L44.165 14.0767L43.9893 14.2626L43.6816 14.5181L43.3521 14.7504L42.9346 14.9827L42.4731 15.1686L41.9678 15.308L41.628 15.3633C41.4739 15.3883 41.3181 15.4009 41.162 15.4009H40.5324C40.3763 15.4009 40.2204 15.3883 40.0664 15.3633L39.7266 15.308L39.1772 15.1454L38.85 15.0012C38.7168 14.9425 38.5882 14.8739 38.4653 14.7959L38.2104 14.6343L37.9028 14.3787L37.6392 14.1232L37.3975 13.8444L37.1777 13.5191L37.002 13.1707L36.8921 12.8686L36.8042 12.4969L36.787 12.3875C36.7838 12.3676 36.7822 12.3474 36.7822 12.3272C36.7822 12.113 36.9558 11.9394 37.17 11.9394H38.807C38.8189 11.9394 38.8303 11.9443 38.8385 11.953C38.8445 11.9592 38.8484 11.9672 38.8498 11.9757L38.8966 12.2561C38.9079 12.3236 38.9262 12.3896 38.9513 12.4532L39.0234 12.6363L39.088 12.7501C39.1327 12.829 39.1849 12.9034 39.2436 12.9724C39.3163 13.0578 39.3987 13.1344 39.4892 13.2007L39.5292 13.2299C39.6021 13.2833 39.6787 13.3312 39.7586 13.3734L39.7741 13.3817C39.8887 13.4422 40.0085 13.492 40.1322 13.5305L40.1367 13.5319C40.2585 13.5698 40.3835 13.5968 40.5101 13.6125L40.6934 13.6353H40.8606C40.9979 13.6353 41.1351 13.625 41.2709 13.6045L41.373 13.5891C41.4763 13.5735 41.5779 13.5481 41.6765 13.5134C41.7534 13.4863 41.8282 13.4535 41.9003 13.4154L41.9766 13.3751C42.0877 13.3164 42.1931 13.2475 42.2916 13.1695L42.359 13.116C42.4494 13.0443 42.5303 12.9615 42.6 12.8695C42.6472 12.8071 42.6889 12.7408 42.7248 12.6712L42.7369 12.6477C42.7807 12.5628 42.8172 12.4744 42.8459 12.3833L42.8699 12.3071C42.8837 12.2633 42.8942 12.2186 42.9013 12.1734C42.9088 12.1259 42.9126 12.0778 42.9126 12.0297V11.9632C42.9126 11.8394 42.8973 11.716 42.867 11.5959L42.865 11.5879C42.8382 11.4818 42.7994 11.3792 42.7492 11.2819C42.7117 11.2093 42.6681 11.1399 42.6187 11.0747L42.5171 10.9404C42.4002 10.8169 42.2704 10.7063 42.1297 10.6107L42.0337 10.5455L41.9482 10.5033C41.7858 10.4231 41.6163 10.3584 41.4419 10.3099L41.2866 10.2667C41.1842 10.2512 41.0808 10.2434 40.9773 10.2434H40.6494L40.4517 10.2202L39.9463 10.1505L39.5288 10.0576L39.0015 9.87173L38.606 9.68587L38.2104 9.43032L37.9468 9.22123L37.6831 8.96568L37.5924 8.86979C37.4919 8.7635 37.3995 8.64977 37.3162 8.52955L37.1997 8.36165L37.1347 8.24136C37.061 8.10494 36.9983 7.96284 36.9473 7.8164L36.8701 7.595L36.8443 7.4721C36.803 7.27578 36.7822 7.07571 36.7822 6.8751V6.6363C36.7822 6.42424 36.8055 6.21281 36.8515 6.00581L36.8701 5.9223L37.002 5.55059L37.1777 5.20211L37.3975 4.87687L37.6611 4.57485L37.8369 4.389L38.2104 4.08698L38.562 3.85466L38.9136 3.66881L39.3091 3.50618L39.8364 3.36679L40.2539 3.2971L40.4956 3.27386Z" fill="#6C6C84"/>
<path d="M42.7368 3.64551L42.8467 3.66874L43.3521 3.94752L43.6597 4.17984L43.9014 4.38893L44.165 4.64448L44.3628 4.8768L44.4946 5.06265L44.4727 5.10912L44.209 4.78387L44.0112 4.62125L43.9014 4.50509L43.7476 4.3657L43.6816 4.31923V4.27277L43.5938 4.24954L43.4839 4.13338L43.3521 4.01722L43.1763 3.92429L42.8687 3.73844L42.7368 3.66874V3.64551Z" fill="#6C6C84"/>
<path d="M23.7085 12.3807L23.7305 12.4272L23.6206 12.8454L23.4888 13.1009L23.3789 13.1939L23.1812 13.2868L22.9395 13.4494L22.6538 13.5888L22.5879 13.5656L23.0054 13.3565L23.269 13.1474L23.4448 12.9383L23.6206 12.6131L23.7085 12.3807Z" fill="#6C6C84"/>
<path d="M24.126 3.71503L24.2578 3.73826L24.7632 3.99381L25.0488 4.22613L25.3345 4.52814L25.4224 4.6443L25.4004 4.69077L25.1807 4.43522L24.8291 4.10997L24.5215 3.92411L24.126 3.73826V3.71503Z" fill="#6C6C84"/>
<path d="M33.4644 12.3107L33.4863 12.4037L33.3765 12.7057L33.2666 12.938L33.2007 12.9612V13.0077L32.915 13.2168L32.8711 13.1935L33.1128 12.9845L33.3325 12.6592L33.4424 12.3804L33.4644 12.3107Z" fill="#6C6C84"/>
<path d="M2.15332 15.3544L2.30713 15.4938L2.92236 16.1443H2.85645L2.48291 15.7726L2.3291 15.61L2.17529 15.4241L2.15332 15.3544Z" fill="#6C6C84"/>
<path d="M14.0405 2.78601L14.1284 2.83247L14.458 3.15772L14.6338 3.34358L14.6118 3.39004L14.3262 3.08803L14.1504 2.9254L14.0405 2.78601Z" fill="#6C6C84"/>
</g>
<defs>
<clipPath id="clip0_11_5177">
<rect width="45" height="18" fill="white" transform="translate(0 0.5)"/>
</clipPath>
</defs>
</svg>
