<svg width="56" height="20" viewBox="0 0 56 20" fill="none" xmlns="http://www.w3.org/2000/svg">
<rect x="0.5" y="1.32355" width="25" height="17.3529" rx="3.5" fill="white"/>
<rect x="0.5" y="1.32355" width="25" height="17.3529" rx="3.5" stroke="#CCCCCC"/>
<path fill-rule="evenodd" clip-rule="evenodd" d="M8.22109 12.9507H6.64599L5.46486 8.31205C5.4088 8.09868 5.28977 7.91004 5.11467 7.82113C4.6777 7.59771 4.19619 7.41989 3.6709 7.33021V7.15163H6.20825C6.55845 7.15163 6.82109 7.41989 6.86486 7.73145L7.4777 11.0774L9.05203 7.15163H10.5834L8.22109 12.9507ZM11.4592 12.9507H9.97168L11.1966 7.15167H12.6841L11.4592 12.9507ZM14.6083 8.75813C14.652 8.4458 14.9147 8.26721 15.2211 8.26721C15.7026 8.22238 16.2271 8.31205 16.6649 8.53471L16.9275 7.28615C16.4898 7.10756 16.0083 7.01788 15.5713 7.01788C14.1275 7.01788 13.0769 7.82114 13.0769 8.93595C13.0769 9.78404 13.8211 10.2293 14.3464 10.4976C14.9147 10.7651 15.1335 10.9437 15.0898 11.2112C15.0898 11.6124 14.652 11.791 14.2151 11.791C13.6898 11.791 13.1645 11.6573 12.6837 11.4338L12.4211 12.6832C12.9464 12.9058 13.5147 12.9955 14.04 12.9955C15.6588 13.0396 16.6649 12.2371 16.6649 11.0326C16.6649 9.51577 14.6083 9.42687 14.6083 8.75813ZM21.8709 12.9507L20.6898 7.15163H19.4211C19.1584 7.15163 18.8958 7.33021 18.8083 7.59771L16.6211 12.9507H18.1524L18.4581 12.1033H20.3396L20.5147 12.9507H21.8709ZM19.6395 8.7132L20.0765 10.8988H18.8516L19.6395 8.7132Z" fill="#1434CB"/>
<rect x="30" y="0.823547" width="26" height="18.3529" rx="4" fill="#252525"/>
<path fill-rule="evenodd" clip-rule="evenodd" d="M43.1365 13.6933C42.2311 14.4565 41.0566 14.9173 39.7731 14.9173C36.9094 14.9173 34.5879 12.6234 34.5879 9.79375C34.5879 6.96411 36.9094 4.67023 39.7731 4.67023C41.0566 4.67023 42.2311 5.13096 43.1365 5.89417C44.042 5.13096 45.2165 4.67023 46.4999 4.67023C49.3636 4.67023 51.6852 6.96411 51.6852 9.79375C51.6852 12.6234 49.3636 14.9173 46.4999 14.9173C45.2165 14.9173 44.042 14.4565 43.1365 13.6933Z" fill="#ED0006"/>
<path fill-rule="evenodd" clip-rule="evenodd" d="M43.1365 13.6935C44.2515 12.7538 44.9585 11.3553 44.9585 9.79375C44.9585 8.23216 44.2515 6.83374 43.1365 5.89399C44.0419 5.13089 45.2163 4.67023 46.4997 4.67023C49.3634 4.67023 51.6849 6.96411 51.6849 9.79375C51.6849 12.6234 49.3634 14.9173 46.4997 14.9173C45.2163 14.9173 44.0419 14.4566 43.1365 13.6935Z" fill="#F9A000"/>
<path fill-rule="evenodd" clip-rule="evenodd" d="M43.1363 13.6937C44.2513 12.754 44.9584 11.3555 44.9584 9.79396C44.9584 8.23245 44.2514 6.8341 43.1365 5.89435C42.0215 6.8341 41.3145 8.23251 41.3145 9.7941C41.3145 11.3556 42.0214 12.754 43.1363 13.6937Z" fill="#FF5E00"/>
</svg>
